G04 #@! TF.GenerationSoftware,KiCad,Pcbnew,7.0.1-0*
G04 #@! TF.CreationDate,2023-04-02T15:36:46-05:00*
G04 #@! TF.ProjectId,V0_Display,56305f44-6973-4706-9c61-792e6b696361,rev?*
G04 #@! TF.SameCoordinates,Original*
G04 #@! TF.FileFunction,Copper,L1,Top*
G04 #@! TF.FilePolarity,Positive*
%FSLAX46Y46*%
G04 Gerber Fmt 4.6, Leading zero omitted, Abs format (unit mm)*
G04 Created by KiCad (PCBNEW 7.0.1-0) date 2023-04-02 15:36:46*
%MOMM*%
%LPD*%
G01*
G04 APERTURE LIST*
G04 Aperture macros list*
%AMRoundRect*
0 Rectangle with rounded corners*
0 $1 Rounding radius*
0 $2 $3 $4 $5 $6 $7 $8 $9 X,Y pos of 4 corners*
0 Add a 4 corners polygon primitive as box body*
4,1,4,$2,$3,$4,$5,$6,$7,$8,$9,$2,$3,0*
0 Add four circle primitives for the rounded corners*
1,1,$1+$1,$2,$3*
1,1,$1+$1,$4,$5*
1,1,$1+$1,$6,$7*
1,1,$1+$1,$8,$9*
0 Add four rect primitives between the rounded corners*
20,1,$1+$1,$2,$3,$4,$5,0*
20,1,$1+$1,$4,$5,$6,$7,0*
20,1,$1+$1,$6,$7,$8,$9,0*
20,1,$1+$1,$8,$9,$2,$3,0*%
G04 Aperture macros list end*
G04 #@! TA.AperFunction,ComponentPad*
%ADD10C,0.600000*%
G04 #@! TD*
G04 #@! TA.AperFunction,SMDPad,CuDef*
%ADD11RoundRect,0.200000X0.275000X-0.200000X0.275000X0.200000X-0.275000X0.200000X-0.275000X-0.200000X0*%
G04 #@! TD*
G04 #@! TA.AperFunction,SMDPad,CuDef*
%ADD12R,1.500000X1.000000*%
G04 #@! TD*
G04 #@! TA.AperFunction,ComponentPad*
%ADD13C,2.000000*%
G04 #@! TD*
G04 #@! TA.AperFunction,ComponentPad*
%ADD14O,2.500000X4.000000*%
G04 #@! TD*
G04 #@! TA.AperFunction,ComponentPad*
%ADD15C,1.524000*%
G04 #@! TD*
G04 #@! TA.AperFunction,SMDPad,CuDef*
%ADD16RoundRect,0.140000X-0.140000X-0.170000X0.140000X-0.170000X0.140000X0.170000X-0.140000X0.170000X0*%
G04 #@! TD*
G04 #@! TA.AperFunction,SMDPad,CuDef*
%ADD17RoundRect,0.135000X-0.135000X-0.185000X0.135000X-0.185000X0.135000X0.185000X-0.135000X0.185000X0*%
G04 #@! TD*
G04 #@! TA.AperFunction,SMDPad,CuDef*
%ADD18RoundRect,0.140000X0.140000X0.170000X-0.140000X0.170000X-0.140000X-0.170000X0.140000X-0.170000X0*%
G04 #@! TD*
G04 #@! TA.AperFunction,SMDPad,CuDef*
%ADD19RoundRect,0.135000X0.135000X0.185000X-0.135000X0.185000X-0.135000X-0.185000X0.135000X-0.185000X0*%
G04 #@! TD*
G04 #@! TA.AperFunction,SMDPad,CuDef*
%ADD20RoundRect,0.140000X-0.170000X0.140000X-0.170000X-0.140000X0.170000X-0.140000X0.170000X0.140000X0*%
G04 #@! TD*
G04 #@! TA.AperFunction,SMDPad,CuDef*
%ADD21RoundRect,0.140000X0.170000X-0.140000X0.170000X0.140000X-0.170000X0.140000X-0.170000X-0.140000X0*%
G04 #@! TD*
G04 #@! TA.AperFunction,ComponentPad*
%ADD22R,1.700000X1.700000*%
G04 #@! TD*
G04 #@! TA.AperFunction,ComponentPad*
%ADD23O,1.700000X1.700000*%
G04 #@! TD*
G04 #@! TA.AperFunction,ComponentPad*
%ADD24O,2.100000X1.050000*%
G04 #@! TD*
G04 #@! TA.AperFunction,ComponentPad*
%ADD25O,2.000000X1.000000*%
G04 #@! TD*
G04 #@! TA.AperFunction,ViaPad*
%ADD26C,0.800000*%
G04 #@! TD*
G04 #@! TA.AperFunction,ViaPad*
%ADD27C,0.400000*%
G04 #@! TD*
G04 #@! TA.AperFunction,ViaPad*
%ADD28C,0.550000*%
G04 #@! TD*
G04 #@! TA.AperFunction,Conductor*
%ADD29C,0.200000*%
G04 #@! TD*
G04 #@! TA.AperFunction,Conductor*
%ADD30C,0.400000*%
G04 #@! TD*
G04 #@! TA.AperFunction,Conductor*
%ADD31C,1.000000*%
G04 #@! TD*
G04 APERTURE END LIST*
D10*
X111725000Y-61725000D03*
X113000000Y-61725000D03*
X114275000Y-61725000D03*
X111725000Y-63000000D03*
X113000000Y-63000000D03*
X114275000Y-63000000D03*
X111725000Y-64275000D03*
X113000000Y-64275000D03*
X114275000Y-64275000D03*
D11*
X119360000Y-79085000D03*
X119360000Y-77435000D03*
D12*
X157470000Y-60550000D03*
X157470000Y-63750000D03*
X162370000Y-63750000D03*
X162370000Y-60550000D03*
D13*
X156670000Y-69900000D03*
X163170000Y-69900000D03*
X156670000Y-74400000D03*
X163170000Y-74400000D03*
X141920000Y-74650000D03*
X146920000Y-74650000D03*
X144420000Y-74650000D03*
D14*
X139340000Y-67150000D03*
X149500000Y-67150000D03*
D13*
X141920000Y-60150000D03*
X146920000Y-60150000D03*
D15*
X109660000Y-52850000D03*
X112200000Y-52850000D03*
X114740000Y-52850000D03*
X117280000Y-52850000D03*
D16*
X109890000Y-62450000D03*
X110850000Y-62450000D03*
D17*
X91810000Y-73050000D03*
X92830000Y-73050000D03*
D18*
X116100000Y-62750000D03*
X115140000Y-62750000D03*
D16*
X109890000Y-63450000D03*
X110850000Y-63450000D03*
D19*
X92830000Y-61150000D03*
X91810000Y-61150000D03*
D20*
X107080000Y-77510000D03*
X107080000Y-78470000D03*
D21*
X114000000Y-66080000D03*
X114000000Y-65120000D03*
D16*
X109890000Y-61450000D03*
X110850000Y-61450000D03*
D20*
X117320000Y-77070000D03*
X117320000Y-78030000D03*
D16*
X109890000Y-64450000D03*
X110850000Y-64450000D03*
X109890000Y-65450000D03*
X110850000Y-65450000D03*
X110610000Y-60400000D03*
X111570000Y-60400000D03*
D20*
X114000000Y-59870000D03*
X114000000Y-60830000D03*
D18*
X116080000Y-64050000D03*
X115120000Y-64050000D03*
D21*
X111880000Y-66080000D03*
X111880000Y-65120000D03*
D22*
X108795000Y-73120000D03*
D23*
X111335000Y-73120000D03*
X113875000Y-73120000D03*
X116415000Y-73120000D03*
X118955000Y-73120000D03*
D13*
X128975000Y-73145000D03*
X122475000Y-73145000D03*
X128975000Y-77645000D03*
X122475000Y-77645000D03*
D22*
X148300000Y-54260000D03*
D23*
X145760000Y-54260000D03*
D22*
X97220000Y-69550000D03*
D23*
X97220000Y-67010000D03*
X97220000Y-64470000D03*
X97220000Y-61930000D03*
D13*
X104720000Y-73145000D03*
X98220000Y-73145000D03*
X104720000Y-77645000D03*
X98220000Y-77645000D03*
D24*
X92100000Y-71450000D03*
D25*
X87920000Y-71450000D03*
X87920000Y-62810000D03*
D24*
X92100000Y-62810000D03*
D26*
X99320000Y-62850000D03*
D27*
X124865000Y-60775000D03*
D26*
X104220000Y-64250000D03*
D27*
X123610000Y-64750000D03*
X104130000Y-58377500D03*
D28*
X155630000Y-60620000D03*
X128240000Y-67850000D03*
D26*
X94820000Y-64050000D03*
D27*
X111215000Y-57905000D03*
X112767676Y-57117676D03*
X116330000Y-70560000D03*
X117710000Y-66500000D03*
X120050000Y-66500000D03*
D28*
X127389999Y-65950000D03*
X154991233Y-59168767D03*
D27*
X134081800Y-58738200D03*
X116930000Y-69140000D03*
X114178886Y-58358886D03*
X110420000Y-67450000D03*
X108200000Y-65770000D03*
X110220000Y-58150000D03*
X118270000Y-62850000D03*
X114010000Y-67220000D03*
D28*
X108030000Y-63400000D03*
D27*
X116050000Y-56450000D03*
X94020000Y-65450000D03*
X93920000Y-68150000D03*
X108245000Y-64899500D03*
X118491043Y-64168957D03*
X107020000Y-62874500D03*
D29*
X119360000Y-79085000D02*
X120800000Y-77645000D01*
X120800000Y-77645000D02*
X122475000Y-77645000D01*
D30*
X104855000Y-77510000D02*
X107080000Y-77510000D01*
X108790000Y-75800000D02*
X108790000Y-73125000D01*
X107080000Y-77510000D02*
X108790000Y-75800000D01*
X104720000Y-77645000D02*
X104855000Y-77510000D01*
X108790000Y-73125000D02*
X108795000Y-73120000D01*
X110850000Y-62450000D02*
X111000000Y-62450000D01*
X111570000Y-61570000D02*
X111725000Y-61725000D01*
X111275000Y-63450000D02*
X111725000Y-63000000D01*
X110850000Y-63450000D02*
X111275000Y-63450000D01*
X91810000Y-71740000D02*
X92100000Y-71450000D01*
X114000000Y-60830000D02*
X114000000Y-61450000D01*
X110850000Y-64450000D02*
X111550000Y-64450000D01*
X115140000Y-62750000D02*
X114525000Y-62750000D01*
X114000000Y-64550000D02*
X114275000Y-64275000D01*
X115120000Y-64050000D02*
X114500000Y-64050000D01*
X110850000Y-61450000D02*
X111450000Y-61450000D01*
X114525000Y-62750000D02*
X114275000Y-63000000D01*
X110850000Y-65450000D02*
X110850000Y-65150000D01*
X111880000Y-65120000D02*
X111880000Y-64430000D01*
X111550000Y-64450000D02*
X111725000Y-64275000D01*
X111570000Y-60400000D02*
X111570000Y-61570000D01*
X110850000Y-65150000D02*
X111725000Y-64275000D01*
X111450000Y-61450000D02*
X111725000Y-61725000D01*
X111880000Y-64430000D02*
X111725000Y-64275000D01*
X114500000Y-64050000D02*
X114275000Y-64275000D01*
X111000000Y-62450000D02*
X111725000Y-61725000D01*
X114000000Y-61450000D02*
X114275000Y-61725000D01*
X114000000Y-65120000D02*
X114000000Y-64550000D01*
X157400000Y-60620000D02*
X157470000Y-60550000D01*
X155630000Y-60620000D02*
X157400000Y-60620000D01*
X95520000Y-69550000D02*
X97220000Y-69550000D01*
X94820000Y-64050000D02*
X94820000Y-68850000D01*
X94820000Y-68850000D02*
X95520000Y-69550000D01*
D29*
X117280000Y-53310000D02*
X117280000Y-52850000D01*
X112951752Y-57640000D02*
X113260000Y-57331752D01*
X113260000Y-57331752D02*
X113260000Y-57330000D01*
X111215000Y-57905000D02*
X111480000Y-57640000D01*
X113260000Y-57330000D02*
X117280000Y-53310000D01*
X111480000Y-57640000D02*
X112951752Y-57640000D01*
X112767676Y-57117676D02*
X114740000Y-55145352D01*
X114740000Y-55145352D02*
X114740000Y-52850000D01*
X116415000Y-70645000D02*
X116415000Y-73120000D01*
X116330000Y-70560000D02*
X116415000Y-70645000D01*
D30*
X157470000Y-63750000D02*
X156090000Y-63750000D01*
X148300000Y-55960000D02*
X148300000Y-54260000D01*
X156090000Y-63750000D02*
X148300000Y-55960000D01*
D29*
X120050000Y-66500000D02*
X117710000Y-66500000D01*
D30*
X154991233Y-59168767D02*
X155302466Y-59480000D01*
X161300000Y-59480000D02*
X162370000Y-60550000D01*
X155302466Y-59480000D02*
X161300000Y-59480000D01*
D29*
X134099477Y-58720523D02*
X140490523Y-58720523D01*
X140490523Y-58720523D02*
X141920000Y-60150000D01*
X134081800Y-58738200D02*
X134099477Y-58720523D01*
X116930000Y-69140000D02*
X110746809Y-69140000D01*
X108795000Y-71091809D02*
X108795000Y-73120000D01*
X110746809Y-69140000D02*
X108795000Y-71091809D01*
D30*
X98220000Y-77645000D02*
X104720000Y-77645000D01*
X114020000Y-58517772D02*
X114020000Y-59850000D01*
X114000000Y-67210000D02*
X114000000Y-66080000D01*
X110830000Y-66260000D02*
X111700000Y-66260000D01*
X110420000Y-67450000D02*
X110420000Y-66670000D01*
X118270000Y-62850000D02*
X118170000Y-62750000D01*
X118955000Y-73120000D02*
X118955000Y-69795000D01*
X108030000Y-63310000D02*
X108240000Y-63100000D01*
X111700000Y-66260000D02*
X111880000Y-66080000D01*
X118170000Y-62750000D02*
X116100000Y-62750000D01*
X108200000Y-65770000D02*
X108520000Y-65450000D01*
X110220000Y-58150000D02*
X110610000Y-58540000D01*
X116380000Y-67220000D02*
X114010000Y-67220000D01*
X108240000Y-63100000D02*
X109240000Y-63100000D01*
X117320000Y-77070000D02*
X117320000Y-76040000D01*
X108380000Y-63310000D02*
X108520000Y-63450000D01*
X110420000Y-66670000D02*
X110830000Y-66260000D01*
X114178886Y-58358886D02*
X114020000Y-58517772D01*
X108520000Y-63450000D02*
X109890000Y-63450000D01*
D29*
X114020000Y-59850000D02*
X114000000Y-59870000D01*
D30*
X109240000Y-63100000D02*
X109890000Y-62450000D01*
X118955000Y-74405000D02*
X118955000Y-73120000D01*
X117320000Y-76040000D02*
X118955000Y-74405000D01*
X108030000Y-63310000D02*
X108380000Y-63310000D01*
X110610000Y-58540000D02*
X110610000Y-60400000D01*
X108520000Y-65450000D02*
X109890000Y-65450000D01*
X118955000Y-69795000D02*
X116380000Y-67220000D01*
X114010000Y-67220000D02*
X114000000Y-67210000D01*
D29*
X125220000Y-56450000D02*
X116050000Y-56450000D01*
X128975000Y-73145000D02*
X128975000Y-59515000D01*
X125910000Y-56450000D02*
X125180000Y-56450000D01*
X128975000Y-59515000D02*
X125910000Y-56450000D01*
X94020000Y-65450000D02*
X94020000Y-62340000D01*
X94020000Y-62340000D02*
X92830000Y-61150000D01*
X93920000Y-71960000D02*
X92830000Y-73050000D01*
X93920000Y-68150000D02*
X93920000Y-71960000D01*
D31*
X128975000Y-77645000D02*
X122475000Y-77645000D01*
D30*
X108245000Y-64899500D02*
X108594500Y-64550000D01*
X108444500Y-61450000D02*
X109890000Y-61450000D01*
X118491043Y-64168957D02*
X118372086Y-64050000D01*
X107020000Y-62874500D02*
X108444500Y-61450000D01*
X118372086Y-64050000D02*
X116080000Y-64050000D01*
X108594500Y-64550000D02*
X109880000Y-64550000D01*
G04 #@! TA.AperFunction,Conductor*
G36*
X114620000Y-64650000D02*
G01*
X111320000Y-64650000D01*
X111320000Y-61350000D01*
X114620000Y-61350000D01*
X114620000Y-64650000D01*
G37*
G04 #@! TD.AperFunction*
G04 #@! TA.AperFunction,Conductor*
G36*
X165081500Y-49692381D02*
G01*
X165127619Y-49738500D01*
X165144500Y-49801500D01*
X165144500Y-84498500D01*
X165127619Y-84561500D01*
X165081500Y-84607619D01*
X165018500Y-84624500D01*
X85321500Y-84624500D01*
X85258500Y-84607619D01*
X85212381Y-84561500D01*
X85195500Y-84498500D01*
X85195500Y-80781182D01*
X87419500Y-80781182D01*
X87458604Y-81040615D01*
X87458605Y-81040618D01*
X87535936Y-81291323D01*
X87649772Y-81527704D01*
X87797563Y-81744474D01*
X87797565Y-81744476D01*
X87797567Y-81744479D01*
X87976019Y-81936805D01*
X88181143Y-82100386D01*
X88408357Y-82231568D01*
X88652584Y-82327420D01*
X88908370Y-82385802D01*
X89104506Y-82400500D01*
X89235489Y-82400500D01*
X89235494Y-82400500D01*
X89431630Y-82385802D01*
X89687416Y-82327420D01*
X89931643Y-82231568D01*
X90158857Y-82100386D01*
X90363981Y-81936805D01*
X90542433Y-81744479D01*
X90690228Y-81527704D01*
X90804063Y-81291323D01*
X90881396Y-81040615D01*
X90920500Y-80781182D01*
X159419500Y-80781182D01*
X159458604Y-81040615D01*
X159458605Y-81040618D01*
X159535936Y-81291323D01*
X159649772Y-81527704D01*
X159797563Y-81744474D01*
X159797565Y-81744476D01*
X159797567Y-81744479D01*
X159976019Y-81936805D01*
X160181143Y-82100386D01*
X160408357Y-82231568D01*
X160652584Y-82327420D01*
X160908370Y-82385802D01*
X161104506Y-82400500D01*
X161235489Y-82400500D01*
X161235494Y-82400500D01*
X161431630Y-82385802D01*
X161687416Y-82327420D01*
X161931643Y-82231568D01*
X162158857Y-82100386D01*
X162363981Y-81936805D01*
X162542433Y-81744479D01*
X162690228Y-81527704D01*
X162804063Y-81291323D01*
X162881396Y-81040615D01*
X162920500Y-80781182D01*
X162920500Y-80518818D01*
X162881396Y-80259385D01*
X162804063Y-80008677D01*
X162796754Y-79993500D01*
X162726114Y-79846814D01*
X162690228Y-79772296D01*
X162542433Y-79555521D01*
X162363981Y-79363195D01*
X162158857Y-79199614D01*
X161931643Y-79068432D01*
X161687417Y-78972580D01*
X161431631Y-78914198D01*
X161398940Y-78911748D01*
X161235494Y-78899500D01*
X161104506Y-78899500D01*
X160964408Y-78909998D01*
X160908368Y-78914198D01*
X160652582Y-78972580D01*
X160408356Y-79068432D01*
X160181146Y-79199612D01*
X160181143Y-79199614D01*
X159976019Y-79363195D01*
X159929206Y-79413648D01*
X159797563Y-79555525D01*
X159649772Y-79772295D01*
X159535936Y-80008676D01*
X159458605Y-80259381D01*
X159458604Y-80259385D01*
X159419500Y-80518818D01*
X159419500Y-80781182D01*
X90920500Y-80781182D01*
X90920500Y-80518818D01*
X90881396Y-80259385D01*
X90804063Y-80008677D01*
X90796754Y-79993500D01*
X90726114Y-79846814D01*
X90690228Y-79772296D01*
X90542433Y-79555521D01*
X90363981Y-79363195D01*
X90337734Y-79342264D01*
X118376500Y-79342264D01*
X118382986Y-79413648D01*
X118418222Y-79526726D01*
X118434173Y-79577913D01*
X118500313Y-79687322D01*
X118523185Y-79725157D01*
X118644842Y-79846814D01*
X118644844Y-79846815D01*
X118644845Y-79846816D01*
X118792087Y-79935827D01*
X118956351Y-79987013D01*
X119027735Y-79993500D01*
X119692264Y-79993499D01*
X119763649Y-79987013D01*
X119927913Y-79935827D01*
X120075155Y-79846816D01*
X120196816Y-79725155D01*
X120285827Y-79577913D01*
X120337013Y-79413649D01*
X120343500Y-79342265D01*
X120343499Y-79014238D01*
X120353090Y-78966021D01*
X120380401Y-78925146D01*
X120955545Y-78350003D01*
X121003357Y-78320055D01*
X121059448Y-78313974D01*
X121112569Y-78332981D01*
X121152070Y-78373266D01*
X121250823Y-78534415D01*
X121405030Y-78714969D01*
X121585584Y-78869176D01*
X121788033Y-78993238D01*
X121788035Y-78993238D01*
X121788037Y-78993240D01*
X122007406Y-79084105D01*
X122182857Y-79126227D01*
X122238288Y-79139535D01*
X122255558Y-79140894D01*
X122475000Y-79158165D01*
X122711711Y-79139535D01*
X122942594Y-79084105D01*
X123161963Y-78993240D01*
X123364416Y-78869176D01*
X123544969Y-78714969D01*
X123559744Y-78697668D01*
X123602806Y-78665074D01*
X123655556Y-78653500D01*
X127794444Y-78653500D01*
X127847194Y-78665074D01*
X127890254Y-78697668D01*
X127905032Y-78714970D01*
X128085584Y-78869176D01*
X128288033Y-78993238D01*
X128288035Y-78993238D01*
X128288037Y-78993240D01*
X128507406Y-79084105D01*
X128682857Y-79126227D01*
X128738288Y-79139535D01*
X128755558Y-79140894D01*
X128975000Y-79158165D01*
X129211711Y-79139535D01*
X129442594Y-79084105D01*
X129661963Y-78993240D01*
X129864416Y-78869176D01*
X130044969Y-78714969D01*
X130199176Y-78534416D01*
X130323240Y-78331963D01*
X130414105Y-78112594D01*
X130469535Y-77881711D01*
X130488165Y-77645000D01*
X130469535Y-77408289D01*
X130414105Y-77177406D01*
X130323240Y-76958037D01*
X130300197Y-76920435D01*
X130199176Y-76755584D01*
X130044969Y-76575030D01*
X129864415Y-76420823D01*
X129661966Y-76296761D01*
X129442594Y-76205895D01*
X129211711Y-76150464D01*
X128975000Y-76131835D01*
X128738288Y-76150464D01*
X128507405Y-76205895D01*
X128288033Y-76296761D01*
X128085584Y-76420823D01*
X127905032Y-76575029D01*
X127890254Y-76592332D01*
X127847194Y-76624926D01*
X127794444Y-76636500D01*
X123655556Y-76636500D01*
X123602806Y-76624926D01*
X123559746Y-76592332D01*
X123544967Y-76575029D01*
X123364415Y-76420823D01*
X123161966Y-76296761D01*
X122942594Y-76205895D01*
X122711711Y-76150464D01*
X122475000Y-76131835D01*
X122238288Y-76150464D01*
X122007405Y-76205895D01*
X121788033Y-76296761D01*
X121585584Y-76420823D01*
X121405030Y-76575030D01*
X121250823Y-76755584D01*
X121126760Y-76958035D01*
X121126478Y-76958717D01*
X121124843Y-76961163D01*
X121121578Y-76966492D01*
X121121368Y-76966363D01*
X121099165Y-76999595D01*
X121058287Y-77026909D01*
X121010069Y-77036500D01*
X120848144Y-77036500D01*
X120831698Y-77035422D01*
X120800000Y-77031249D01*
X120641151Y-77052161D01*
X120493121Y-77113476D01*
X120398696Y-77185932D01*
X120398476Y-77186102D01*
X120366011Y-77211014D01*
X120346545Y-77236381D01*
X120335681Y-77248768D01*
X119444854Y-78139595D01*
X119403977Y-78166909D01*
X119355759Y-78176500D01*
X119027735Y-78176500D01*
X118956351Y-78182986D01*
X118792087Y-78234173D01*
X118644842Y-78323185D01*
X118523185Y-78444842D01*
X118434173Y-78592087D01*
X118382986Y-78756351D01*
X118376500Y-78827735D01*
X118376500Y-79342264D01*
X90337734Y-79342264D01*
X90158857Y-79199614D01*
X89931643Y-79068432D01*
X89687417Y-78972580D01*
X89431631Y-78914198D01*
X89398940Y-78911748D01*
X89235494Y-78899500D01*
X89104506Y-78899500D01*
X88964408Y-78909998D01*
X88908368Y-78914198D01*
X88652582Y-78972580D01*
X88408356Y-79068432D01*
X88181146Y-79199612D01*
X88181143Y-79199614D01*
X87976019Y-79363195D01*
X87929206Y-79413648D01*
X87797563Y-79555525D01*
X87649772Y-79772295D01*
X87535936Y-80008676D01*
X87458605Y-80259381D01*
X87458604Y-80259385D01*
X87419500Y-80518818D01*
X87419500Y-80781182D01*
X85195500Y-80781182D01*
X85195500Y-77644999D01*
X96706835Y-77644999D01*
X96725464Y-77881711D01*
X96780895Y-78112594D01*
X96871761Y-78331966D01*
X96995823Y-78534415D01*
X97150030Y-78714969D01*
X97330584Y-78869176D01*
X97533033Y-78993238D01*
X97533035Y-78993238D01*
X97533037Y-78993240D01*
X97752406Y-79084105D01*
X97927857Y-79126227D01*
X97983288Y-79139535D01*
X98000558Y-79140894D01*
X98220000Y-79158165D01*
X98456711Y-79139535D01*
X98687594Y-79084105D01*
X98906963Y-78993240D01*
X99109416Y-78869176D01*
X99289969Y-78714969D01*
X99444176Y-78534416D01*
X99491941Y-78456470D01*
X99518173Y-78413665D01*
X99564039Y-78369565D01*
X99625605Y-78353500D01*
X103314395Y-78353500D01*
X103375961Y-78369565D01*
X103421827Y-78413665D01*
X103495823Y-78534415D01*
X103650030Y-78714969D01*
X103830584Y-78869176D01*
X104033033Y-78993238D01*
X104033035Y-78993238D01*
X104033037Y-78993240D01*
X104252406Y-79084105D01*
X104427857Y-79126227D01*
X104483288Y-79139535D01*
X104500558Y-79140894D01*
X104720000Y-79158165D01*
X104956711Y-79139535D01*
X105187594Y-79084105D01*
X105406963Y-78993240D01*
X105609416Y-78869176D01*
X105789969Y-78714969D01*
X105944176Y-78534416D01*
X106068240Y-78331963D01*
X106071876Y-78323185D01*
X106083021Y-78296281D01*
X106110334Y-78255404D01*
X106151211Y-78228091D01*
X106199429Y-78218500D01*
X106562849Y-78218500D01*
X106626987Y-78236046D01*
X106650403Y-78249894D01*
X106807746Y-78295606D01*
X106844516Y-78298500D01*
X107315479Y-78298500D01*
X107315484Y-78298500D01*
X107352254Y-78295606D01*
X107509597Y-78249894D01*
X107650629Y-78166488D01*
X107766488Y-78050629D01*
X107849894Y-77909597D01*
X107895606Y-77752254D01*
X107896733Y-77737927D01*
X107907919Y-77695064D01*
X107933247Y-77658722D01*
X109273157Y-76318811D01*
X109278683Y-76313610D01*
X109297923Y-76296565D01*
X109324215Y-76273273D01*
X109358791Y-76223179D01*
X109363247Y-76217125D01*
X109400775Y-76169226D01*
X109404960Y-76159925D01*
X109416162Y-76140065D01*
X109421954Y-76131675D01*
X109443524Y-76074795D01*
X109446433Y-76067775D01*
X109471387Y-76012331D01*
X109471386Y-76012331D01*
X109471388Y-76012329D01*
X109473225Y-76002302D01*
X109479347Y-75980339D01*
X109482965Y-75970801D01*
X109490297Y-75910415D01*
X109491436Y-75902925D01*
X109502401Y-75843093D01*
X109498729Y-75782401D01*
X109498500Y-75774794D01*
X109498500Y-74604500D01*
X109515381Y-74541500D01*
X109561500Y-74495381D01*
X109624500Y-74478500D01*
X109693638Y-74478500D01*
X109754201Y-74471989D01*
X109891204Y-74420889D01*
X110008261Y-74333261D01*
X110095889Y-74216204D01*
X110139999Y-74097941D01*
X110176530Y-74045903D01*
X110233821Y-74018327D01*
X110297282Y-74022237D01*
X110350753Y-74056636D01*
X110388780Y-74097943D01*
X110411762Y-74122908D01*
X110589421Y-74261187D01*
X110589424Y-74261189D01*
X110787426Y-74368342D01*
X111000365Y-74441444D01*
X111222431Y-74478500D01*
X111447566Y-74478500D01*
X111447569Y-74478500D01*
X111669635Y-74441444D01*
X111882574Y-74368342D01*
X112080576Y-74261189D01*
X112258240Y-74122906D01*
X112410722Y-73957268D01*
X112533860Y-73768791D01*
X112624296Y-73562616D01*
X112679564Y-73344368D01*
X112698156Y-73120000D01*
X112679564Y-72895632D01*
X112624296Y-72677384D01*
X112533860Y-72471209D01*
X112410722Y-72282732D01*
X112258240Y-72117094D01*
X112258239Y-72117093D01*
X112258237Y-72117091D01*
X112080578Y-71978812D01*
X111882573Y-71871657D01*
X111729510Y-71819111D01*
X111669635Y-71798556D01*
X111447569Y-71761500D01*
X111222431Y-71761500D01*
X111000365Y-71798556D01*
X111000362Y-71798556D01*
X111000362Y-71798557D01*
X110787426Y-71871657D01*
X110589421Y-71978812D01*
X110411758Y-72117094D01*
X110350754Y-72183362D01*
X110297282Y-72217762D01*
X110233820Y-72221672D01*
X110176530Y-72194096D01*
X110139998Y-72142056D01*
X110130688Y-72117094D01*
X110095889Y-72023796D01*
X110095888Y-72023794D01*
X110008261Y-71906738D01*
X109891205Y-71819111D01*
X109816823Y-71791368D01*
X109754201Y-71768011D01*
X109693638Y-71761500D01*
X109529500Y-71761500D01*
X109466500Y-71744619D01*
X109420381Y-71698500D01*
X109403500Y-71635500D01*
X109403500Y-71396048D01*
X109413091Y-71347830D01*
X109440405Y-71306953D01*
X110961953Y-69785405D01*
X111002830Y-69758091D01*
X111051048Y-69748500D01*
X115845330Y-69748500D01*
X115903885Y-69762933D01*
X115949026Y-69802924D01*
X115970411Y-69859312D01*
X115963142Y-69919180D01*
X115928883Y-69968812D01*
X115795787Y-70086723D01*
X115698044Y-70228327D01*
X115637034Y-70389199D01*
X115616296Y-70560000D01*
X115637034Y-70730800D01*
X115698044Y-70891672D01*
X115698045Y-70891674D01*
X115698046Y-70891675D01*
X115784198Y-71016487D01*
X115800795Y-71050573D01*
X115806500Y-71088059D01*
X115806500Y-71829549D01*
X115788741Y-71894046D01*
X115740470Y-71940362D01*
X115669423Y-71978811D01*
X115491762Y-72117091D01*
X115339278Y-72282731D01*
X115216139Y-72471209D01*
X115125702Y-72677388D01*
X115070437Y-72895627D01*
X115070436Y-72895632D01*
X115051844Y-73120000D01*
X115070436Y-73344368D01*
X115070436Y-73344371D01*
X115070437Y-73344372D01*
X115125702Y-73562611D01*
X115125703Y-73562614D01*
X115125704Y-73562616D01*
X115133343Y-73580031D01*
X115216139Y-73768790D01*
X115257412Y-73831963D01*
X115339278Y-73957268D01*
X115451525Y-74079200D01*
X115491762Y-74122908D01*
X115669421Y-74261187D01*
X115669424Y-74261189D01*
X115867426Y-74368342D01*
X116080365Y-74441444D01*
X116302431Y-74478500D01*
X116527566Y-74478500D01*
X116527569Y-74478500D01*
X116749635Y-74441444D01*
X116962574Y-74368342D01*
X117160576Y-74261189D01*
X117338240Y-74122906D01*
X117490722Y-73957268D01*
X117579518Y-73821354D01*
X117625030Y-73779457D01*
X117685000Y-73764271D01*
X117744970Y-73779457D01*
X117790481Y-73821354D01*
X117879278Y-73957268D01*
X118008780Y-74097943D01*
X118031760Y-74122906D01*
X118033519Y-74124275D01*
X118035361Y-74126817D01*
X118038831Y-74130587D01*
X118038387Y-74130995D01*
X118074727Y-74181156D01*
X118079081Y-74251261D01*
X118045225Y-74312803D01*
X116836856Y-75521172D01*
X116831317Y-75526388D01*
X116785782Y-75566729D01*
X116751238Y-75616773D01*
X116746731Y-75622898D01*
X116709224Y-75670774D01*
X116705036Y-75680078D01*
X116693843Y-75699923D01*
X116688048Y-75708319D01*
X116666482Y-75765183D01*
X116663570Y-75772211D01*
X116638611Y-75827668D01*
X116636771Y-75837710D01*
X116630651Y-75859662D01*
X116627035Y-75869197D01*
X116619705Y-75929554D01*
X116618561Y-75937071D01*
X116607597Y-75996906D01*
X116611270Y-76057610D01*
X116611500Y-76065218D01*
X116611500Y-76532121D01*
X116593954Y-76596259D01*
X116550106Y-76670402D01*
X116504394Y-76827743D01*
X116501500Y-76864521D01*
X116501500Y-77275479D01*
X116504394Y-77312256D01*
X116550105Y-77469595D01*
X116633514Y-77610632D01*
X116749367Y-77726485D01*
X116749369Y-77726486D01*
X116749371Y-77726488D01*
X116890403Y-77809894D01*
X117047746Y-77855606D01*
X117084516Y-77858500D01*
X117555479Y-77858500D01*
X117555484Y-77858500D01*
X117592254Y-77855606D01*
X117749597Y-77809894D01*
X117890629Y-77726488D01*
X118006488Y-77610629D01*
X118089894Y-77469597D01*
X118135606Y-77312254D01*
X118138500Y-77275484D01*
X118138500Y-76864516D01*
X118135606Y-76827746D01*
X118089894Y-76670403D01*
X118046046Y-76596259D01*
X118028500Y-76532121D01*
X118028500Y-76385660D01*
X118038091Y-76337442D01*
X118065402Y-76296567D01*
X119438173Y-74923795D01*
X119443683Y-74918610D01*
X119479690Y-74886711D01*
X119489215Y-74878273D01*
X119523791Y-74828179D01*
X119528247Y-74822125D01*
X119565775Y-74774226D01*
X119569960Y-74764925D01*
X119581162Y-74745065D01*
X119586954Y-74736675D01*
X119608524Y-74679795D01*
X119611433Y-74672775D01*
X119618009Y-74658164D01*
X119636388Y-74617329D01*
X119638225Y-74607302D01*
X119644347Y-74585339D01*
X119647965Y-74575801D01*
X119655297Y-74515415D01*
X119656436Y-74507925D01*
X119667401Y-74448093D01*
X119663729Y-74387401D01*
X119663500Y-74379794D01*
X119663500Y-74351644D01*
X119676303Y-74296306D01*
X119712109Y-74252213D01*
X119818416Y-74169469D01*
X119878240Y-74122906D01*
X120030722Y-73957268D01*
X120153860Y-73768791D01*
X120244296Y-73562616D01*
X120299564Y-73344368D01*
X120316084Y-73145000D01*
X120961835Y-73145000D01*
X120980464Y-73381711D01*
X121035895Y-73612594D01*
X121126761Y-73831966D01*
X121250823Y-74034415D01*
X121405030Y-74214969D01*
X121585584Y-74369176D01*
X121788033Y-74493238D01*
X121788035Y-74493238D01*
X121788037Y-74493240D01*
X122007406Y-74584105D01*
X122145803Y-74617331D01*
X122238288Y-74639535D01*
X122255558Y-74640894D01*
X122475000Y-74658165D01*
X122711711Y-74639535D01*
X122942594Y-74584105D01*
X123161963Y-74493240D01*
X123364416Y-74369176D01*
X123544969Y-74214969D01*
X123699176Y-74034416D01*
X123823240Y-73831963D01*
X123914105Y-73612594D01*
X123969535Y-73381711D01*
X123988165Y-73145000D01*
X123969535Y-72908289D01*
X123966496Y-72895632D01*
X123934782Y-72763532D01*
X123914105Y-72677406D01*
X123823240Y-72458037D01*
X123799099Y-72418643D01*
X123699176Y-72255584D01*
X123544969Y-72075030D01*
X123364415Y-71920823D01*
X123161966Y-71796761D01*
X122942594Y-71705895D01*
X122711711Y-71650464D01*
X122475000Y-71631835D01*
X122238288Y-71650464D01*
X122007405Y-71705895D01*
X121788033Y-71796761D01*
X121585584Y-71920823D01*
X121405030Y-72075030D01*
X121250823Y-72255584D01*
X121126761Y-72458033D01*
X121035895Y-72677405D01*
X120980464Y-72908288D01*
X120961835Y-73145000D01*
X120316084Y-73145000D01*
X120318156Y-73120000D01*
X120299564Y-72895632D01*
X120244296Y-72677384D01*
X120153860Y-72471209D01*
X120030722Y-72282732D01*
X119878240Y-72117094D01*
X119878239Y-72117093D01*
X119878237Y-72117091D01*
X119712109Y-71987787D01*
X119676303Y-71943694D01*
X119663500Y-71888356D01*
X119663500Y-69820223D01*
X119663730Y-69812615D01*
X119667402Y-69751908D01*
X119666777Y-69748500D01*
X119656435Y-69692064D01*
X119655293Y-69684555D01*
X119647965Y-69624200D01*
X119644350Y-69614667D01*
X119638227Y-69592702D01*
X119636389Y-69582671D01*
X119611418Y-69527189D01*
X119608524Y-69520203D01*
X119586954Y-69463325D01*
X119586952Y-69463323D01*
X119586952Y-69463321D01*
X119581161Y-69454931D01*
X119569957Y-69435067D01*
X119565775Y-69425774D01*
X119528260Y-69377891D01*
X119523766Y-69371783D01*
X119489215Y-69321727D01*
X119443682Y-69281388D01*
X119438141Y-69276171D01*
X117585565Y-67423595D01*
X117554827Y-67373436D01*
X117550211Y-67314789D01*
X117572724Y-67260439D01*
X117617457Y-67222233D01*
X117674660Y-67208500D01*
X117796026Y-67208500D01*
X117796028Y-67208500D01*
X117963083Y-67167325D01*
X118047665Y-67122932D01*
X118106219Y-67108500D01*
X119653781Y-67108500D01*
X119712334Y-67122932D01*
X119796917Y-67167325D01*
X119963972Y-67208500D01*
X120136026Y-67208500D01*
X120136028Y-67208500D01*
X120303083Y-67167325D01*
X120455430Y-67087367D01*
X120584215Y-66973273D01*
X120681954Y-66831675D01*
X120742965Y-66670801D01*
X120763704Y-66500000D01*
X120742965Y-66329199D01*
X120710377Y-66243271D01*
X120681955Y-66168327D01*
X120681792Y-66168091D01*
X120584215Y-66026727D01*
X120455430Y-65912633D01*
X120303083Y-65832675D01*
X120136028Y-65791500D01*
X119963972Y-65791500D01*
X119796917Y-65832675D01*
X119712334Y-65877067D01*
X119653781Y-65891500D01*
X118106219Y-65891500D01*
X118047665Y-65877067D01*
X117963083Y-65832675D01*
X117796028Y-65791500D01*
X117623972Y-65791500D01*
X117456917Y-65832675D01*
X117456916Y-65832675D01*
X117456914Y-65832676D01*
X117304571Y-65912632D01*
X117175786Y-66026726D01*
X117078044Y-66168327D01*
X117017034Y-66329199D01*
X116996393Y-66499199D01*
X116996296Y-66500000D01*
X116997692Y-66511500D01*
X117000256Y-66532615D01*
X116994024Y-66589642D01*
X116963155Y-66637996D01*
X116914049Y-66667653D01*
X116856884Y-66672465D01*
X116803511Y-66651436D01*
X116803135Y-66651176D01*
X116797092Y-66646725D01*
X116749224Y-66609223D01*
X116739922Y-66605036D01*
X116720068Y-66593839D01*
X116713987Y-66589642D01*
X116711675Y-66588046D01*
X116711673Y-66588045D01*
X116654822Y-66566483D01*
X116647794Y-66563572D01*
X116592329Y-66538610D01*
X116582289Y-66536770D01*
X116560332Y-66530649D01*
X116550801Y-66527035D01*
X116490432Y-66519704D01*
X116482914Y-66518559D01*
X116475153Y-66517137D01*
X116423093Y-66507597D01*
X116362390Y-66511270D01*
X116354782Y-66511500D01*
X114928442Y-66511500D01*
X114872123Y-66498213D01*
X114827682Y-66461153D01*
X114804492Y-66408138D01*
X114807445Y-66350348D01*
X114815605Y-66322258D01*
X114815605Y-66322256D01*
X114815606Y-66322254D01*
X114818500Y-66285484D01*
X114818500Y-65874516D01*
X114815606Y-65837746D01*
X114769894Y-65680403D01*
X114686488Y-65539371D01*
X114686486Y-65539369D01*
X114686485Y-65539367D01*
X114570632Y-65423514D01*
X114568802Y-65422432D01*
X114429597Y-65340106D01*
X114429596Y-65340105D01*
X114429595Y-65340105D01*
X114272256Y-65294394D01*
X114261748Y-65293567D01*
X114235484Y-65291500D01*
X113764516Y-65291500D01*
X113741534Y-65293308D01*
X113727743Y-65294394D01*
X113570404Y-65340105D01*
X113429367Y-65423514D01*
X113313514Y-65539367D01*
X113230105Y-65680404D01*
X113184394Y-65837743D01*
X113184394Y-65837746D01*
X113181500Y-65874516D01*
X113181500Y-66285484D01*
X113182744Y-66301291D01*
X113184394Y-66322256D01*
X113230106Y-66479597D01*
X113273954Y-66553741D01*
X113291500Y-66617879D01*
X113291500Y-67184782D01*
X113291270Y-67192390D01*
X113287597Y-67253093D01*
X113298559Y-67312910D01*
X113299704Y-67320432D01*
X113307035Y-67380801D01*
X113310649Y-67390332D01*
X113316770Y-67412289D01*
X113318610Y-67422329D01*
X113343572Y-67477794D01*
X113346483Y-67484822D01*
X113368045Y-67541673D01*
X113373839Y-67550068D01*
X113385036Y-67569922D01*
X113389222Y-67579222D01*
X113409905Y-67605621D01*
X113422288Y-67624773D01*
X113422633Y-67625431D01*
X113432183Y-67636211D01*
X113441563Y-67648183D01*
X113461266Y-67676727D01*
X113467812Y-67686209D01*
X113475783Y-67693270D01*
X113475785Y-67693273D01*
X113502402Y-67716853D01*
X113513145Y-67727596D01*
X113536727Y-67754215D01*
X113565985Y-67774410D01*
X113577959Y-67783792D01*
X113597451Y-67801060D01*
X113604570Y-67807367D01*
X113613596Y-67812104D01*
X113632745Y-67824484D01*
X113640774Y-67830775D01*
X113650071Y-67834959D01*
X113669931Y-67846161D01*
X113678320Y-67851951D01*
X113678321Y-67851951D01*
X113678325Y-67851954D01*
X113711579Y-67864565D01*
X113725443Y-67870806D01*
X113756917Y-67887325D01*
X113766812Y-67889764D01*
X113788369Y-67897202D01*
X113797671Y-67901389D01*
X113807702Y-67903227D01*
X113829669Y-67909351D01*
X113839199Y-67912965D01*
X113874497Y-67917250D01*
X113889450Y-67919990D01*
X113923972Y-67928500D01*
X113934165Y-67928500D01*
X113956876Y-67930563D01*
X113966907Y-67932402D01*
X113966907Y-67932401D01*
X113966908Y-67932402D01*
X114027610Y-67928730D01*
X114035218Y-67928500D01*
X114096028Y-67928500D01*
X116034340Y-67928500D01*
X116082558Y-67938091D01*
X116123435Y-67965405D01*
X116474435Y-68316405D01*
X116505173Y-68366564D01*
X116509789Y-68425211D01*
X116487276Y-68479561D01*
X116442543Y-68517767D01*
X116385340Y-68531500D01*
X110794945Y-68531500D01*
X110778501Y-68530422D01*
X110746809Y-68526250D01*
X110715116Y-68530422D01*
X110715103Y-68530423D01*
X110607392Y-68544602D01*
X110607371Y-68544605D01*
X110607352Y-68544608D01*
X110593064Y-68546489D01*
X110587956Y-68547162D01*
X110439930Y-68608476D01*
X110345505Y-68680932D01*
X110345285Y-68681102D01*
X110312820Y-68706014D01*
X110293354Y-68731381D01*
X110282490Y-68743768D01*
X108398767Y-70627491D01*
X108386380Y-70638356D01*
X108361012Y-70657822D01*
X108333973Y-70693060D01*
X108333950Y-70693088D01*
X108263476Y-70784930D01*
X108236156Y-70850889D01*
X108236156Y-70850890D01*
X108202161Y-70932960D01*
X108185422Y-71060112D01*
X108185422Y-71060119D01*
X108181250Y-71091809D01*
X108185422Y-71123499D01*
X108186500Y-71139945D01*
X108186500Y-71635500D01*
X108169619Y-71698500D01*
X108123500Y-71744619D01*
X108060500Y-71761500D01*
X107896362Y-71761500D01*
X107835799Y-71768011D01*
X107698794Y-71819111D01*
X107581738Y-71906738D01*
X107494111Y-72023794D01*
X107458657Y-72118851D01*
X107443011Y-72160799D01*
X107436500Y-72221362D01*
X107436500Y-74018638D01*
X107443011Y-74079201D01*
X107459312Y-74122906D01*
X107494111Y-74216205D01*
X107581738Y-74333261D01*
X107698794Y-74420888D01*
X107698795Y-74420888D01*
X107698796Y-74420889D01*
X107835799Y-74471989D01*
X107896362Y-74478500D01*
X107955500Y-74478500D01*
X108018500Y-74495381D01*
X108064619Y-74541500D01*
X108081500Y-74604500D01*
X108081500Y-75454340D01*
X108071909Y-75502558D01*
X108044595Y-75543435D01*
X106901280Y-76686749D01*
X106864938Y-76712079D01*
X106822074Y-76723265D01*
X106807749Y-76724392D01*
X106650402Y-76770106D01*
X106626987Y-76783954D01*
X106562849Y-76801500D01*
X106041478Y-76801500D01*
X105988727Y-76789926D01*
X105945667Y-76757330D01*
X105789969Y-76575030D01*
X105609415Y-76420823D01*
X105406966Y-76296761D01*
X105187594Y-76205895D01*
X104956711Y-76150464D01*
X104737269Y-76133194D01*
X104720000Y-76131835D01*
X104719999Y-76131835D01*
X104483288Y-76150464D01*
X104252405Y-76205895D01*
X104033033Y-76296761D01*
X103830584Y-76420823D01*
X103650030Y-76575030D01*
X103495823Y-76755584D01*
X103421827Y-76876335D01*
X103375961Y-76920435D01*
X103314395Y-76936500D01*
X99625605Y-76936500D01*
X99564039Y-76920435D01*
X99518173Y-76876335D01*
X99444176Y-76755584D01*
X99289969Y-76575030D01*
X99109415Y-76420823D01*
X98906966Y-76296761D01*
X98687594Y-76205895D01*
X98456711Y-76150464D01*
X98237269Y-76133194D01*
X98220000Y-76131835D01*
X98219999Y-76131835D01*
X97983288Y-76150464D01*
X97752405Y-76205895D01*
X97533033Y-76296761D01*
X97330584Y-76420823D01*
X97150030Y-76575030D01*
X96995823Y-76755584D01*
X96871761Y-76958033D01*
X96780895Y-77177405D01*
X96725464Y-77408288D01*
X96706835Y-77644999D01*
X85195500Y-77644999D01*
X85195500Y-73299985D01*
X92051500Y-73299985D01*
X92054371Y-73336466D01*
X92080331Y-73425823D01*
X92099731Y-73492596D01*
X92170697Y-73612594D01*
X92182496Y-73632544D01*
X92297455Y-73747503D01*
X92297457Y-73747504D01*
X92297459Y-73747506D01*
X92437404Y-73830269D01*
X92593534Y-73875629D01*
X92630011Y-73878500D01*
X93029988Y-73878499D01*
X93066466Y-73875629D01*
X93222596Y-73830269D01*
X93362541Y-73747506D01*
X93477506Y-73632541D01*
X93560269Y-73492596D01*
X93605629Y-73336466D01*
X93608500Y-73299989D01*
X93608499Y-73184237D01*
X93618090Y-73136020D01*
X93645401Y-73095146D01*
X94316235Y-72424312D01*
X94328619Y-72413452D01*
X94328788Y-72413322D01*
X94353987Y-72393987D01*
X94367948Y-72375791D01*
X94367952Y-72375788D01*
X94385827Y-72352494D01*
X94409610Y-72321498D01*
X94451523Y-72266878D01*
X94470319Y-72221500D01*
X94512838Y-72118851D01*
X94525352Y-72023796D01*
X94528500Y-71999885D01*
X94529578Y-71991697D01*
X94529578Y-71991690D01*
X94531273Y-71978812D01*
X94533750Y-71960000D01*
X94529577Y-71928307D01*
X94528500Y-71911864D01*
X94528500Y-69864661D01*
X94542233Y-69807458D01*
X94580439Y-69762725D01*
X94634789Y-69740212D01*
X94693436Y-69744828D01*
X94743594Y-69775565D01*
X94887209Y-69919180D01*
X95001188Y-70033159D01*
X95006404Y-70038700D01*
X95046727Y-70084215D01*
X95096793Y-70118773D01*
X95102895Y-70123263D01*
X95150774Y-70160774D01*
X95154725Y-70162552D01*
X95160067Y-70164957D01*
X95179928Y-70176159D01*
X95188322Y-70181953D01*
X95245193Y-70203521D01*
X95252213Y-70206428D01*
X95307670Y-70231388D01*
X95317699Y-70233225D01*
X95339664Y-70239349D01*
X95349199Y-70242965D01*
X95381374Y-70246871D01*
X95409579Y-70250296D01*
X95417081Y-70251437D01*
X95476907Y-70262401D01*
X95476907Y-70262400D01*
X95476908Y-70262401D01*
X95537598Y-70258730D01*
X95545206Y-70258500D01*
X95735500Y-70258500D01*
X95798500Y-70275381D01*
X95844619Y-70321500D01*
X95861500Y-70384500D01*
X95861500Y-70448638D01*
X95868011Y-70509200D01*
X95919111Y-70646205D01*
X96006738Y-70763261D01*
X96123794Y-70850888D01*
X96123795Y-70850888D01*
X96123796Y-70850889D01*
X96260799Y-70901989D01*
X96321362Y-70908500D01*
X98118638Y-70908500D01*
X98179201Y-70901989D01*
X98316204Y-70850889D01*
X98433261Y-70763261D01*
X98520889Y-70646204D01*
X98571989Y-70509201D01*
X98578500Y-70448638D01*
X98578500Y-68651362D01*
X98571989Y-68590799D01*
X98520889Y-68453796D01*
X98520888Y-68453794D01*
X98433261Y-68336738D01*
X98316205Y-68249111D01*
X98254670Y-68226159D01*
X98201191Y-68206213D01*
X98150858Y-68171650D01*
X98122684Y-68117480D01*
X98123287Y-68056424D01*
X98152522Y-68002822D01*
X98295722Y-67847268D01*
X98418860Y-67658791D01*
X98509296Y-67452616D01*
X98564564Y-67234368D01*
X98583156Y-67010000D01*
X98564564Y-66785632D01*
X98509296Y-66567384D01*
X98418860Y-66361209D01*
X98295722Y-66172732D01*
X98143240Y-66007094D01*
X98143239Y-66007093D01*
X98143237Y-66007091D01*
X97965578Y-65868812D01*
X97932317Y-65850812D01*
X97884046Y-65804495D01*
X97866288Y-65739997D01*
X97884049Y-65675499D01*
X97932317Y-65629187D01*
X97965576Y-65611189D01*
X98143240Y-65472906D01*
X98295722Y-65307268D01*
X98418860Y-65118791D01*
X98509296Y-64912616D01*
X98564564Y-64694368D01*
X98583156Y-64470000D01*
X98564564Y-64245632D01*
X98509296Y-64027384D01*
X98418860Y-63821209D01*
X98295722Y-63632732D01*
X98143240Y-63467094D01*
X98143239Y-63467093D01*
X98143237Y-63467091D01*
X97965578Y-63328812D01*
X97767573Y-63221657D01*
X97623339Y-63172142D01*
X97554635Y-63148556D01*
X97332569Y-63111500D01*
X97107431Y-63111500D01*
X96885365Y-63148556D01*
X96885362Y-63148556D01*
X96885362Y-63148557D01*
X96672426Y-63221657D01*
X96474421Y-63328812D01*
X96296762Y-63467091D01*
X96144278Y-63632731D01*
X96021139Y-63821209D01*
X95960701Y-63958997D01*
X95919823Y-64009992D01*
X95858898Y-64033650D01*
X95794318Y-64023603D01*
X95743458Y-63982557D01*
X95720004Y-63921557D01*
X95713542Y-63860072D01*
X95675210Y-63742098D01*
X95654527Y-63678443D01*
X95559041Y-63513057D01*
X95450194Y-63392170D01*
X95431253Y-63371134D01*
X95424361Y-63366127D01*
X95319794Y-63290154D01*
X95276752Y-63258882D01*
X95102288Y-63181206D01*
X94915487Y-63141500D01*
X94754500Y-63141500D01*
X94691500Y-63124619D01*
X94645381Y-63078500D01*
X94628500Y-63015500D01*
X94628500Y-62874499D01*
X106306295Y-62874499D01*
X106313625Y-62934867D01*
X106314314Y-62942444D01*
X106317987Y-63003149D01*
X106321020Y-63012883D01*
X106325805Y-63035170D01*
X106327035Y-63045301D01*
X106348599Y-63102162D01*
X106351081Y-63109354D01*
X106369173Y-63167413D01*
X106374449Y-63176142D01*
X106384427Y-63196633D01*
X106386221Y-63201362D01*
X106388047Y-63206177D01*
X106422595Y-63256228D01*
X106426727Y-63262619D01*
X106458182Y-63314652D01*
X106458183Y-63314653D01*
X106458184Y-63314654D01*
X106465394Y-63321864D01*
X106479992Y-63339381D01*
X106485783Y-63347771D01*
X106531316Y-63388110D01*
X106536840Y-63393310D01*
X106579846Y-63436316D01*
X106588572Y-63441590D01*
X106606933Y-63455101D01*
X106614570Y-63461867D01*
X106614572Y-63461868D01*
X106668424Y-63490132D01*
X106675030Y-63493857D01*
X106727087Y-63525327D01*
X106727089Y-63525327D01*
X106727090Y-63525328D01*
X106736819Y-63528360D01*
X106757884Y-63537085D01*
X106766916Y-63541825D01*
X106782055Y-63545556D01*
X106825972Y-63556380D01*
X106833284Y-63558418D01*
X106891351Y-63576513D01*
X106901527Y-63577128D01*
X106924074Y-63580560D01*
X106933972Y-63583000D01*
X106994782Y-63583000D01*
X107002390Y-63583230D01*
X107063091Y-63586902D01*
X107063091Y-63586901D01*
X107063093Y-63586902D01*
X107073123Y-63585063D01*
X107095835Y-63583000D01*
X107106027Y-63583000D01*
X107106028Y-63583000D01*
X107140172Y-63574584D01*
X107201531Y-63574848D01*
X107255493Y-63604065D01*
X107289254Y-63655307D01*
X107319623Y-63742098D01*
X107413560Y-63891598D01*
X107538401Y-64016439D01*
X107538403Y-64016440D01*
X107538404Y-64016441D01*
X107687901Y-64110376D01*
X107753645Y-64133381D01*
X107805980Y-64168349D01*
X107834870Y-64224271D01*
X107833105Y-64287190D01*
X107801124Y-64341404D01*
X107761856Y-64380672D01*
X107756317Y-64385888D01*
X107710782Y-64426229D01*
X107676238Y-64476273D01*
X107671731Y-64482398D01*
X107634224Y-64530274D01*
X107630036Y-64539578D01*
X107618843Y-64559423D01*
X107613048Y-64567819D01*
X107591482Y-64624683D01*
X107588570Y-64631711D01*
X107563611Y-64687168D01*
X107561771Y-64697210D01*
X107555651Y-64719162D01*
X107552035Y-64728697D01*
X107544705Y-64789054D01*
X107543561Y-64796570D01*
X107532597Y-64856408D01*
X107533213Y-64866588D01*
X107532525Y-64889368D01*
X107531295Y-64899499D01*
X107538625Y-64959867D01*
X107539314Y-64967444D01*
X107542987Y-65028149D01*
X107546020Y-65037883D01*
X107550805Y-65060170D01*
X107552035Y-65070301D01*
X107573599Y-65127162D01*
X107576081Y-65134354D01*
X107594173Y-65192413D01*
X107599449Y-65201142D01*
X107609427Y-65221633D01*
X107613046Y-65231175D01*
X107613047Y-65231177D01*
X107618472Y-65245481D01*
X107618354Y-65245525D01*
X107631696Y-65277737D01*
X107630099Y-65330601D01*
X107606947Y-65378153D01*
X107589222Y-65400776D01*
X107585036Y-65410078D01*
X107573843Y-65429923D01*
X107568048Y-65438319D01*
X107546482Y-65495183D01*
X107543570Y-65502211D01*
X107518611Y-65557668D01*
X107516771Y-65567710D01*
X107510651Y-65589662D01*
X107507035Y-65599197D01*
X107499705Y-65659554D01*
X107498561Y-65667070D01*
X107487597Y-65726908D01*
X107488213Y-65737088D01*
X107487525Y-65759868D01*
X107486295Y-65769999D01*
X107493625Y-65830367D01*
X107494314Y-65837944D01*
X107497987Y-65898649D01*
X107501020Y-65908383D01*
X107505805Y-65930670D01*
X107507035Y-65940801D01*
X107528599Y-65997662D01*
X107531081Y-66004854D01*
X107531779Y-66007094D01*
X107549173Y-66062913D01*
X107554449Y-66071642D01*
X107564427Y-66092133D01*
X107568046Y-66101675D01*
X107568047Y-66101677D01*
X107602595Y-66151728D01*
X107606727Y-66158119D01*
X107638182Y-66210152D01*
X107638183Y-66210153D01*
X107638184Y-66210154D01*
X107645394Y-66217364D01*
X107659992Y-66234881D01*
X107665783Y-66243271D01*
X107665784Y-66243272D01*
X107665785Y-66243273D01*
X107697424Y-66271303D01*
X107711316Y-66283610D01*
X107716840Y-66288810D01*
X107759846Y-66331816D01*
X107768572Y-66337090D01*
X107786933Y-66350601D01*
X107794570Y-66357367D01*
X107794572Y-66357368D01*
X107848424Y-66385632D01*
X107855030Y-66389357D01*
X107907087Y-66420827D01*
X107907089Y-66420827D01*
X107907090Y-66420828D01*
X107916819Y-66423860D01*
X107937884Y-66432585D01*
X107946916Y-66437325D01*
X107964147Y-66441571D01*
X108005972Y-66451880D01*
X108013284Y-66453918D01*
X108071351Y-66472013D01*
X108081527Y-66472628D01*
X108104074Y-66476060D01*
X108113972Y-66478500D01*
X108174782Y-66478500D01*
X108182390Y-66478730D01*
X108243091Y-66482402D01*
X108243091Y-66482401D01*
X108243093Y-66482402D01*
X108253123Y-66480563D01*
X108275835Y-66478500D01*
X108286027Y-66478500D01*
X108286028Y-66478500D01*
X108345102Y-66463938D01*
X108352460Y-66462359D01*
X108412329Y-66451389D01*
X108421622Y-66447206D01*
X108443187Y-66439763D01*
X108453083Y-66437325D01*
X108506931Y-66409062D01*
X108513753Y-66405741D01*
X108569226Y-66380775D01*
X108577255Y-66374483D01*
X108596403Y-66362103D01*
X108605430Y-66357367D01*
X108650981Y-66317010D01*
X108656759Y-66312195D01*
X108670679Y-66301291D01*
X108683148Y-66288821D01*
X108688693Y-66283601D01*
X108702575Y-66271303D01*
X108734215Y-66243273D01*
X108740008Y-66234879D01*
X108754609Y-66217360D01*
X108776567Y-66195403D01*
X108817443Y-66168091D01*
X108865660Y-66158500D01*
X109352121Y-66158500D01*
X109416259Y-66176046D01*
X109448991Y-66195403D01*
X109490403Y-66219894D01*
X109602222Y-66252380D01*
X109660143Y-66269208D01*
X109659534Y-66271303D01*
X109697235Y-66283707D01*
X109739011Y-66326432D01*
X109756405Y-66383600D01*
X109745504Y-66442352D01*
X109738611Y-66457667D01*
X109736771Y-66467710D01*
X109730651Y-66489662D01*
X109727035Y-66499197D01*
X109719705Y-66559554D01*
X109718561Y-66567071D01*
X109707597Y-66626906D01*
X109711270Y-66687610D01*
X109711500Y-66695218D01*
X109711500Y-67399522D01*
X109710581Y-67414709D01*
X109706296Y-67449999D01*
X109727034Y-67620800D01*
X109788044Y-67781672D01*
X109788045Y-67781674D01*
X109788046Y-67781675D01*
X109885785Y-67923273D01*
X110014570Y-68037367D01*
X110166917Y-68117325D01*
X110333972Y-68158500D01*
X110506026Y-68158500D01*
X110506028Y-68158500D01*
X110673083Y-68117325D01*
X110825430Y-68037367D01*
X110954215Y-67923273D01*
X111051954Y-67781675D01*
X111112965Y-67620801D01*
X111133704Y-67450000D01*
X111129419Y-67414709D01*
X111128500Y-67399522D01*
X111128500Y-67094500D01*
X111145381Y-67031500D01*
X111191500Y-66985381D01*
X111254500Y-66968500D01*
X111674782Y-66968500D01*
X111682390Y-66968730D01*
X111743091Y-66972402D01*
X111743091Y-66972401D01*
X111743093Y-66972402D01*
X111802941Y-66961434D01*
X111810398Y-66960299D01*
X111870801Y-66952965D01*
X111880328Y-66949351D01*
X111902294Y-66943227D01*
X111912329Y-66941389D01*
X111967797Y-66916423D01*
X111974802Y-66913522D01*
X112031675Y-66891954D01*
X112033335Y-66890807D01*
X112067429Y-66874206D01*
X112104917Y-66868500D01*
X112115479Y-66868500D01*
X112115484Y-66868500D01*
X112152254Y-66865606D01*
X112309597Y-66819894D01*
X112450629Y-66736488D01*
X112566488Y-66620629D01*
X112649894Y-66479597D01*
X112695606Y-66322254D01*
X112698500Y-66285484D01*
X112698500Y-65874516D01*
X112695606Y-65837746D01*
X112649894Y-65680403D01*
X112566488Y-65539371D01*
X112566486Y-65539369D01*
X112566485Y-65539367D01*
X112450632Y-65423514D01*
X112448802Y-65422432D01*
X112309597Y-65340106D01*
X112309596Y-65340105D01*
X112309595Y-65340105D01*
X112152256Y-65294394D01*
X112141748Y-65293567D01*
X112115484Y-65291500D01*
X111644516Y-65291500D01*
X111621534Y-65293308D01*
X111607743Y-65294394D01*
X111450404Y-65340105D01*
X111309367Y-65423514D01*
X111218287Y-65514595D01*
X111177410Y-65541909D01*
X111129192Y-65551500D01*
X110855223Y-65551500D01*
X110847616Y-65551270D01*
X110826082Y-65549967D01*
X110796892Y-65548201D01*
X110737158Y-65528926D01*
X110694134Y-65483222D01*
X110678500Y-65422432D01*
X110678500Y-65214521D01*
X110678218Y-65210935D01*
X110675606Y-65177746D01*
X110629894Y-65020403D01*
X110626188Y-65014138D01*
X110608642Y-64949999D01*
X110626191Y-64885857D01*
X110629894Y-64879597D01*
X110675606Y-64722254D01*
X110678500Y-64685484D01*
X110678500Y-64285484D01*
X115291500Y-64285484D01*
X115292454Y-64297602D01*
X115294394Y-64322256D01*
X115340105Y-64479595D01*
X115340106Y-64479597D01*
X115416700Y-64609111D01*
X115423514Y-64620632D01*
X115539367Y-64736485D01*
X115539369Y-64736486D01*
X115539371Y-64736488D01*
X115680403Y-64819894D01*
X115837746Y-64865606D01*
X115874516Y-64868500D01*
X116285479Y-64868500D01*
X116285484Y-64868500D01*
X116322254Y-64865606D01*
X116479597Y-64819894D01*
X116547508Y-64779732D01*
X116553741Y-64776046D01*
X116617879Y-64758500D01*
X118051237Y-64758500D01*
X118092343Y-64765394D01*
X118107723Y-64773765D01*
X118107865Y-64773452D01*
X118121817Y-64779731D01*
X118121818Y-64779732D01*
X118177285Y-64804695D01*
X118184111Y-64808020D01*
X118212303Y-64822816D01*
X118237960Y-64836282D01*
X118247855Y-64838720D01*
X118269414Y-64846160D01*
X118278714Y-64850346D01*
X118338542Y-64861309D01*
X118345952Y-64862899D01*
X118405015Y-64877457D01*
X118415209Y-64877457D01*
X118437920Y-64879520D01*
X118447951Y-64881359D01*
X118447951Y-64881358D01*
X118447952Y-64881359D01*
X118503269Y-64878013D01*
X118508659Y-64877686D01*
X118516266Y-64877457D01*
X118577070Y-64877457D01*
X118577071Y-64877457D01*
X118586968Y-64875017D01*
X118609510Y-64871586D01*
X118619692Y-64870971D01*
X118677773Y-64852871D01*
X118685062Y-64850838D01*
X118744126Y-64836282D01*
X118753155Y-64831542D01*
X118774212Y-64822820D01*
X118783957Y-64819784D01*
X118822357Y-64796570D01*
X118835999Y-64788323D01*
X118842630Y-64784583D01*
X118852102Y-64779611D01*
X118896473Y-64756324D01*
X118904103Y-64749563D01*
X118922473Y-64736046D01*
X118931197Y-64730773D01*
X118974215Y-64687754D01*
X118979726Y-64682567D01*
X119023114Y-64644129D01*
X119025258Y-64642230D01*
X119031052Y-64633834D01*
X119045648Y-64616321D01*
X119052859Y-64609111D01*
X119084320Y-64557067D01*
X119088450Y-64550681D01*
X119102536Y-64530274D01*
X119122997Y-64500632D01*
X119126613Y-64491096D01*
X119136596Y-64470593D01*
X119141870Y-64461871D01*
X119159962Y-64403807D01*
X119162445Y-64396613D01*
X119172669Y-64369657D01*
X119184008Y-64339758D01*
X119185235Y-64329643D01*
X119190024Y-64307336D01*
X119193057Y-64297606D01*
X119196728Y-64236902D01*
X119197417Y-64229316D01*
X119199215Y-64214516D01*
X119204747Y-64168957D01*
X119203517Y-64158833D01*
X119202829Y-64136044D01*
X119203445Y-64125865D01*
X119192478Y-64066021D01*
X119191336Y-64058512D01*
X119188317Y-64033650D01*
X119184008Y-63998156D01*
X119180392Y-63988623D01*
X119174270Y-63966659D01*
X119172432Y-63956628D01*
X119147463Y-63901150D01*
X119144568Y-63894161D01*
X119122997Y-63837282D01*
X119122022Y-63835870D01*
X119117203Y-63828888D01*
X119106000Y-63809025D01*
X119101818Y-63799733D01*
X119101818Y-63799732D01*
X119064314Y-63751862D01*
X119059815Y-63745747D01*
X119046782Y-63726866D01*
X119025258Y-63695684D01*
X118979725Y-63655345D01*
X118974184Y-63650128D01*
X118890913Y-63566857D01*
X118885696Y-63561316D01*
X118871734Y-63545556D01*
X118845359Y-63515785D01*
X118845358Y-63515784D01*
X118845356Y-63515782D01*
X118831185Y-63506000D01*
X118788928Y-63456321D01*
X118777171Y-63392170D01*
X118799064Y-63330735D01*
X118804212Y-63323274D01*
X118804215Y-63323273D01*
X118810008Y-63314879D01*
X118824605Y-63297364D01*
X118831816Y-63290154D01*
X118863275Y-63238112D01*
X118867398Y-63231736D01*
X118901954Y-63181675D01*
X118905573Y-63172131D01*
X118915552Y-63151635D01*
X118920826Y-63142913D01*
X118938924Y-63084830D01*
X118941387Y-63077694D01*
X118962965Y-63020801D01*
X118964193Y-63010678D01*
X118968982Y-62988374D01*
X118972013Y-62978649D01*
X118975683Y-62917961D01*
X118976372Y-62910376D01*
X118977692Y-62899508D01*
X118983704Y-62850000D01*
X118982473Y-62839868D01*
X118981785Y-62817082D01*
X118982401Y-62806907D01*
X118971437Y-62747081D01*
X118970296Y-62739579D01*
X118966871Y-62711374D01*
X118962965Y-62679199D01*
X118959349Y-62669664D01*
X118953225Y-62647698D01*
X118951388Y-62637670D01*
X118937454Y-62606711D01*
X118926432Y-62582220D01*
X118923519Y-62575188D01*
X118901953Y-62518322D01*
X118896161Y-62509931D01*
X118884957Y-62490067D01*
X118880773Y-62480770D01*
X118843265Y-62432896D01*
X118838753Y-62426764D01*
X118804216Y-62376728D01*
X118758697Y-62336401D01*
X118753156Y-62331185D01*
X118688818Y-62266848D01*
X118683600Y-62261305D01*
X118643271Y-62215783D01*
X118593221Y-62181235D01*
X118587092Y-62176725D01*
X118539224Y-62139223D01*
X118529922Y-62135036D01*
X118510068Y-62123839D01*
X118508781Y-62122951D01*
X118501675Y-62118046D01*
X118501673Y-62118045D01*
X118444822Y-62096483D01*
X118437794Y-62093572D01*
X118382329Y-62068610D01*
X118372289Y-62066770D01*
X118350332Y-62060649D01*
X118340801Y-62057035D01*
X118280432Y-62049704D01*
X118272914Y-62048559D01*
X118265153Y-62047137D01*
X118213093Y-62037597D01*
X118152390Y-62041270D01*
X118144782Y-62041500D01*
X116637879Y-62041500D01*
X116573741Y-62023954D01*
X116499597Y-61980106D01*
X116342256Y-61934394D01*
X116331748Y-61933567D01*
X116305484Y-61931500D01*
X115894516Y-61931500D01*
X115871534Y-61933308D01*
X115857743Y-61934394D01*
X115700404Y-61980105D01*
X115559367Y-62063514D01*
X115443514Y-62179367D01*
X115360105Y-62320404D01*
X115314394Y-62477743D01*
X115313424Y-62490067D01*
X115311500Y-62514516D01*
X115311500Y-62985484D01*
X115312588Y-62999311D01*
X115314394Y-63022256D01*
X115359567Y-63177743D01*
X115360106Y-63179597D01*
X115440116Y-63314887D01*
X115445320Y-63323686D01*
X115462307Y-63375966D01*
X115455418Y-63430503D01*
X115425965Y-63476917D01*
X115423513Y-63479368D01*
X115340105Y-63620404D01*
X115294394Y-63777743D01*
X115294394Y-63777746D01*
X115291500Y-63814516D01*
X115291500Y-64285484D01*
X110678500Y-64285484D01*
X110678500Y-64214516D01*
X110675606Y-64177746D01*
X110629894Y-64020403D01*
X110626189Y-64014139D01*
X110608643Y-63950000D01*
X110626189Y-63885860D01*
X110629894Y-63879597D01*
X110675606Y-63722254D01*
X110678500Y-63685484D01*
X110678500Y-63214516D01*
X110675606Y-63177746D01*
X110629894Y-63020403D01*
X110626188Y-63014138D01*
X110608642Y-62949999D01*
X110626191Y-62885857D01*
X110629894Y-62879597D01*
X110675606Y-62722254D01*
X110678500Y-62685484D01*
X110678500Y-62214516D01*
X110675606Y-62177746D01*
X110629894Y-62020403D01*
X110626189Y-62014139D01*
X110608643Y-61950000D01*
X110626189Y-61885860D01*
X110629894Y-61879597D01*
X110675606Y-61722254D01*
X110678500Y-61685484D01*
X110678500Y-61344500D01*
X110695381Y-61281500D01*
X110741500Y-61235381D01*
X110804500Y-61218500D01*
X110815479Y-61218500D01*
X110815484Y-61218500D01*
X110852254Y-61215606D01*
X111009597Y-61169894D01*
X111150629Y-61086488D01*
X111266488Y-60970629D01*
X111349894Y-60829597D01*
X111395606Y-60672254D01*
X111398500Y-60635484D01*
X111398500Y-60164516D01*
X111395606Y-60127746D01*
X111349894Y-59970403D01*
X111336046Y-59946987D01*
X111318500Y-59882849D01*
X111318500Y-58707909D01*
X111330665Y-58653894D01*
X111364811Y-58610309D01*
X111414345Y-58585571D01*
X111454601Y-58575648D01*
X111468083Y-58572325D01*
X111620430Y-58492367D01*
X111749215Y-58378273D01*
X111767151Y-58352289D01*
X111801227Y-58302923D01*
X111846367Y-58262932D01*
X111904922Y-58248500D01*
X112903616Y-58248500D01*
X112920059Y-58249577D01*
X112951752Y-58253750D01*
X112983445Y-58249577D01*
X112983455Y-58249577D01*
X112991636Y-58248500D01*
X112991637Y-58248500D01*
X113091208Y-58235391D01*
X113110603Y-58232838D01*
X113153789Y-58214949D01*
X113218138Y-58206396D01*
X113278206Y-58231013D01*
X113318047Y-58282265D01*
X113327086Y-58346550D01*
X113319705Y-58407326D01*
X113318561Y-58414843D01*
X113307597Y-58474678D01*
X113311270Y-58535382D01*
X113311500Y-58542990D01*
X113311500Y-59298303D01*
X113293954Y-59362442D01*
X113230105Y-59470404D01*
X113184394Y-59627743D01*
X113183308Y-59641534D01*
X113181500Y-59664516D01*
X113181500Y-60075484D01*
X113183403Y-60099658D01*
X113184394Y-60112256D01*
X113230105Y-60269595D01*
X113230106Y-60269597D01*
X113289324Y-60369730D01*
X113313514Y-60410632D01*
X113429367Y-60526485D01*
X113429369Y-60526486D01*
X113429371Y-60526488D01*
X113570403Y-60609894D01*
X113727746Y-60655606D01*
X113764516Y-60658500D01*
X114235479Y-60658500D01*
X114235484Y-60658500D01*
X114272254Y-60655606D01*
X114429597Y-60609894D01*
X114570629Y-60526488D01*
X114686488Y-60410629D01*
X114769894Y-60269597D01*
X114815606Y-60112254D01*
X114818500Y-60075484D01*
X114818500Y-59664516D01*
X114815606Y-59627746D01*
X114769894Y-59470403D01*
X114765538Y-59463037D01*
X114746046Y-59430077D01*
X114728500Y-59365939D01*
X114728500Y-58849657D01*
X114735393Y-58808555D01*
X114755316Y-58771949D01*
X114789660Y-58728113D01*
X114789659Y-58728113D01*
X114789661Y-58728112D01*
X114793846Y-58718812D01*
X114805045Y-58698955D01*
X114810840Y-58690561D01*
X114832408Y-58633688D01*
X114835309Y-58626683D01*
X114860275Y-58571215D01*
X114862113Y-58561180D01*
X114868238Y-58539213D01*
X114869691Y-58535382D01*
X114871851Y-58529687D01*
X114879185Y-58469282D01*
X114880319Y-58461831D01*
X114891288Y-58401978D01*
X114890672Y-58391797D01*
X114891360Y-58369009D01*
X114892590Y-58358886D01*
X114885259Y-58298520D01*
X114884571Y-58290940D01*
X114882070Y-58249578D01*
X114880900Y-58230237D01*
X114877866Y-58220501D01*
X114873078Y-58198195D01*
X114871851Y-58188086D01*
X114871097Y-58186097D01*
X114850276Y-58131196D01*
X114847812Y-58124055D01*
X114829713Y-58065972D01*
X114824437Y-58057245D01*
X114814454Y-58036741D01*
X114810840Y-58027211D01*
X114800069Y-58011606D01*
X114776287Y-57977152D01*
X114772154Y-57970760D01*
X114740702Y-57918732D01*
X114733490Y-57911520D01*
X114718892Y-57894003D01*
X114713101Y-57885613D01*
X114667568Y-57845274D01*
X114662027Y-57840057D01*
X114619039Y-57797069D01*
X114610315Y-57791795D01*
X114591949Y-57778281D01*
X114584316Y-57771519D01*
X114572160Y-57765139D01*
X114530469Y-57743257D01*
X114523853Y-57739526D01*
X114471800Y-57708059D01*
X114471799Y-57708058D01*
X114471798Y-57708058D01*
X114462058Y-57705023D01*
X114440998Y-57696299D01*
X114431970Y-57691561D01*
X114372936Y-57677011D01*
X114365603Y-57674967D01*
X114307534Y-57656871D01*
X114297347Y-57656255D01*
X114274812Y-57652825D01*
X114264914Y-57650386D01*
X114204109Y-57650386D01*
X114196502Y-57650156D01*
X114194279Y-57650021D01*
X114135791Y-57646483D01*
X114127353Y-57648030D01*
X114064260Y-57643447D01*
X114011346Y-57608780D01*
X113981949Y-57552767D01*
X113983478Y-57489526D01*
X114015546Y-57435001D01*
X115124511Y-56326036D01*
X115177574Y-56294394D01*
X115239303Y-56291782D01*
X115294853Y-56318828D01*
X115330867Y-56369031D01*
X115338685Y-56430317D01*
X115336296Y-56450000D01*
X115336296Y-56450001D01*
X115357034Y-56620800D01*
X115418044Y-56781672D01*
X115418045Y-56781674D01*
X115418046Y-56781675D01*
X115515785Y-56923273D01*
X115644570Y-57037367D01*
X115796917Y-57117325D01*
X115963972Y-57158500D01*
X116136026Y-57158500D01*
X116136028Y-57158500D01*
X116303083Y-57117325D01*
X116387665Y-57072932D01*
X116446219Y-57058500D01*
X125140115Y-57058500D01*
X125259885Y-57058500D01*
X125605761Y-57058500D01*
X125653979Y-57068091D01*
X125694856Y-57095405D01*
X128329595Y-59730144D01*
X128356909Y-59771021D01*
X128366500Y-59819239D01*
X128366500Y-65626860D01*
X128347187Y-65693896D01*
X128295170Y-65740382D01*
X128226393Y-65752068D01*
X128161941Y-65725371D01*
X128121571Y-65668476D01*
X128121079Y-65667070D01*
X128100375Y-65607901D01*
X128006440Y-65458404D01*
X128006439Y-65458403D01*
X128006438Y-65458401D01*
X127881597Y-65333560D01*
X127732097Y-65239623D01*
X127565449Y-65181310D01*
X127389999Y-65161542D01*
X127214548Y-65181310D01*
X127047900Y-65239623D01*
X126898400Y-65333560D01*
X126773559Y-65458401D01*
X126679622Y-65607901D01*
X126621309Y-65774549D01*
X126601541Y-65949999D01*
X126621309Y-66125450D01*
X126679622Y-66292098D01*
X126773559Y-66441598D01*
X126898400Y-66566439D01*
X126898402Y-66566440D01*
X126898403Y-66566441D01*
X127047900Y-66660376D01*
X127214551Y-66718690D01*
X127389999Y-66738458D01*
X127565447Y-66718690D01*
X127732098Y-66660376D01*
X127881595Y-66566441D01*
X128006440Y-66441596D01*
X128100375Y-66292099D01*
X128121571Y-66231523D01*
X128161941Y-66174629D01*
X128226393Y-66147932D01*
X128295170Y-66159618D01*
X128347187Y-66206104D01*
X128366500Y-66273140D01*
X128366500Y-66934801D01*
X128347202Y-67001813D01*
X128295220Y-67048299D01*
X128253593Y-67055395D01*
X128254107Y-67059953D01*
X128240001Y-67061542D01*
X128145071Y-67072237D01*
X128064549Y-67081310D01*
X127897901Y-67139623D01*
X127748401Y-67233560D01*
X127623560Y-67358401D01*
X127529623Y-67507901D01*
X127471310Y-67674549D01*
X127451542Y-67850000D01*
X127471310Y-68025450D01*
X127529623Y-68192098D01*
X127623560Y-68341598D01*
X127748401Y-68466439D01*
X127748403Y-68466440D01*
X127748404Y-68466441D01*
X127826726Y-68515654D01*
X127897901Y-68560376D01*
X127984844Y-68590799D01*
X128064552Y-68618690D01*
X128240000Y-68638458D01*
X128240002Y-68638457D01*
X128254107Y-68640047D01*
X128253593Y-68644604D01*
X128295220Y-68651701D01*
X128347202Y-68698187D01*
X128366500Y-68765199D01*
X128366500Y-71680069D01*
X128356909Y-71728287D01*
X128329595Y-71769165D01*
X128296363Y-71791368D01*
X128296492Y-71791578D01*
X128291163Y-71794843D01*
X128288717Y-71796478D01*
X128288035Y-71796760D01*
X128085584Y-71920823D01*
X127905030Y-72075030D01*
X127750823Y-72255584D01*
X127626761Y-72458033D01*
X127535895Y-72677405D01*
X127480464Y-72908288D01*
X127461835Y-73145000D01*
X127480464Y-73381711D01*
X127535895Y-73612594D01*
X127626761Y-73831966D01*
X127750823Y-74034415D01*
X127905030Y-74214969D01*
X128085584Y-74369176D01*
X128288033Y-74493238D01*
X128288035Y-74493238D01*
X128288037Y-74493240D01*
X128507406Y-74584105D01*
X128645803Y-74617331D01*
X128738288Y-74639535D01*
X128755558Y-74640894D01*
X128975000Y-74658165D01*
X129078756Y-74649999D01*
X140406835Y-74649999D01*
X140425464Y-74886711D01*
X140480895Y-75117594D01*
X140571761Y-75336966D01*
X140695823Y-75539415D01*
X140850030Y-75719969D01*
X141030584Y-75874176D01*
X141233033Y-75998238D01*
X141233035Y-75998238D01*
X141233037Y-75998240D01*
X141452406Y-76089105D01*
X141627857Y-76131227D01*
X141683288Y-76144535D01*
X141701918Y-76146001D01*
X141920000Y-76163165D01*
X142156711Y-76144535D01*
X142387594Y-76089105D01*
X142606963Y-75998240D01*
X142809416Y-75874176D01*
X142989969Y-75719969D01*
X143144176Y-75539416D01*
X143268240Y-75336963D01*
X143359105Y-75117594D01*
X143414535Y-74886711D01*
X143433165Y-74650000D01*
X143433165Y-74649999D01*
X145406835Y-74649999D01*
X145425464Y-74886711D01*
X145480895Y-75117594D01*
X145571761Y-75336966D01*
X145695823Y-75539415D01*
X145850030Y-75719969D01*
X146030584Y-75874176D01*
X146233033Y-75998238D01*
X146233035Y-75998238D01*
X146233037Y-75998240D01*
X146452406Y-76089105D01*
X146627857Y-76131227D01*
X146683288Y-76144535D01*
X146701918Y-76146001D01*
X146920000Y-76163165D01*
X147156711Y-76144535D01*
X147387594Y-76089105D01*
X147606963Y-75998240D01*
X147809416Y-75874176D01*
X147989969Y-75719969D01*
X148144176Y-75539416D01*
X148268240Y-75336963D01*
X148359105Y-75117594D01*
X148414535Y-74886711D01*
X148433165Y-74650000D01*
X148414535Y-74413289D01*
X148411344Y-74399999D01*
X155156835Y-74399999D01*
X155175464Y-74636711D01*
X155230895Y-74867594D01*
X155321761Y-75086966D01*
X155445823Y-75289415D01*
X155600030Y-75469969D01*
X155780584Y-75624176D01*
X155983033Y-75748238D01*
X155983035Y-75748238D01*
X155983037Y-75748240D01*
X156202406Y-75839105D01*
X156348488Y-75874176D01*
X156433288Y-75894535D01*
X156451917Y-75896001D01*
X156670000Y-75913165D01*
X156906711Y-75894535D01*
X157137594Y-75839105D01*
X157356963Y-75748240D01*
X157559416Y-75624176D01*
X157739969Y-75469969D01*
X157894176Y-75289416D01*
X158018240Y-75086963D01*
X158109105Y-74867594D01*
X158164535Y-74636711D01*
X158183165Y-74400000D01*
X158183165Y-74399999D01*
X161656835Y-74399999D01*
X161675464Y-74636711D01*
X161730895Y-74867594D01*
X161821761Y-75086966D01*
X161945823Y-75289415D01*
X162100030Y-75469969D01*
X162280584Y-75624176D01*
X162483033Y-75748238D01*
X162483035Y-75748238D01*
X162483037Y-75748240D01*
X162702406Y-75839105D01*
X162848488Y-75874176D01*
X162933288Y-75894535D01*
X162951917Y-75896001D01*
X163170000Y-75913165D01*
X163406711Y-75894535D01*
X163637594Y-75839105D01*
X163856963Y-75748240D01*
X164059416Y-75624176D01*
X164239969Y-75469969D01*
X164394176Y-75289416D01*
X164518240Y-75086963D01*
X164609105Y-74867594D01*
X164664535Y-74636711D01*
X164683165Y-74400000D01*
X164664535Y-74163289D01*
X164609105Y-73932406D01*
X164518240Y-73713037D01*
X164436733Y-73580031D01*
X164394176Y-73510584D01*
X164239969Y-73330030D01*
X164059415Y-73175823D01*
X163856966Y-73051761D01*
X163637594Y-72960895D01*
X163406711Y-72905464D01*
X163170000Y-72886835D01*
X162933288Y-72905464D01*
X162702405Y-72960895D01*
X162483033Y-73051761D01*
X162280584Y-73175823D01*
X162100030Y-73330030D01*
X161945823Y-73510584D01*
X161821761Y-73713033D01*
X161730895Y-73932405D01*
X161675464Y-74163288D01*
X161656835Y-74399999D01*
X158183165Y-74399999D01*
X158164535Y-74163289D01*
X158109105Y-73932406D01*
X158018240Y-73713037D01*
X157936733Y-73580031D01*
X157894176Y-73510584D01*
X157739969Y-73330030D01*
X157559415Y-73175823D01*
X157356966Y-73051761D01*
X157137594Y-72960895D01*
X156906711Y-72905464D01*
X156670000Y-72886835D01*
X156433288Y-72905464D01*
X156202405Y-72960895D01*
X155983033Y-73051761D01*
X155780584Y-73175823D01*
X155600030Y-73330030D01*
X155445823Y-73510584D01*
X155321761Y-73713033D01*
X155230895Y-73932405D01*
X155175464Y-74163288D01*
X155156835Y-74399999D01*
X148411344Y-74399999D01*
X148378019Y-74261189D01*
X148359105Y-74182406D01*
X148268240Y-73963037D01*
X148249469Y-73932406D01*
X148144176Y-73760584D01*
X147989969Y-73580030D01*
X147809415Y-73425823D01*
X147606966Y-73301761D01*
X147387594Y-73210895D01*
X147156711Y-73155464D01*
X146920000Y-73136835D01*
X146683288Y-73155464D01*
X146452405Y-73210895D01*
X146233033Y-73301761D01*
X146030584Y-73425823D01*
X145850030Y-73580030D01*
X145695823Y-73760584D01*
X145571761Y-73963033D01*
X145480895Y-74182405D01*
X145425464Y-74413288D01*
X145406835Y-74649999D01*
X143433165Y-74649999D01*
X143414535Y-74413289D01*
X143411344Y-74399999D01*
X143378019Y-74261189D01*
X143359105Y-74182406D01*
X143268240Y-73963037D01*
X143249469Y-73932406D01*
X143144176Y-73760584D01*
X142989969Y-73580030D01*
X142809415Y-73425823D01*
X142606966Y-73301761D01*
X142387594Y-73210895D01*
X142156711Y-73155464D01*
X141920000Y-73136835D01*
X141683288Y-73155464D01*
X141452405Y-73210895D01*
X141233033Y-73301761D01*
X141030584Y-73425823D01*
X140850030Y-73580030D01*
X140695823Y-73760584D01*
X140571761Y-73963033D01*
X140480895Y-74182405D01*
X140425464Y-74413288D01*
X140406835Y-74649999D01*
X129078756Y-74649999D01*
X129211711Y-74639535D01*
X129442594Y-74584105D01*
X129661963Y-74493240D01*
X129864416Y-74369176D01*
X130044969Y-74214969D01*
X130199176Y-74034416D01*
X130323240Y-73831963D01*
X130414105Y-73612594D01*
X130469535Y-73381711D01*
X130488165Y-73145000D01*
X130469535Y-72908289D01*
X130466496Y-72895632D01*
X130434782Y-72763532D01*
X130414105Y-72677406D01*
X130323240Y-72458037D01*
X130299099Y-72418643D01*
X130199176Y-72255584D01*
X130044969Y-72075030D01*
X129864415Y-71920823D01*
X129661964Y-71796760D01*
X129661283Y-71796478D01*
X129658836Y-71794843D01*
X129653508Y-71791578D01*
X129653636Y-71791368D01*
X129620405Y-71769165D01*
X129593091Y-71728287D01*
X129583500Y-71680069D01*
X129583500Y-59563144D01*
X129584578Y-59546698D01*
X129585262Y-59541500D01*
X129588751Y-59515000D01*
X129567838Y-59356149D01*
X129506524Y-59208124D01*
X129506523Y-59208123D01*
X129506523Y-59208122D01*
X129428457Y-59106385D01*
X129428443Y-59106369D01*
X129408987Y-59081012D01*
X129383618Y-59061546D01*
X129371228Y-59050679D01*
X129058748Y-58738199D01*
X133368096Y-58738199D01*
X133388834Y-58909000D01*
X133449844Y-59069872D01*
X133449845Y-59069874D01*
X133449846Y-59069875D01*
X133547585Y-59211473D01*
X133676370Y-59325567D01*
X133828717Y-59405525D01*
X133995772Y-59446700D01*
X134167826Y-59446700D01*
X134167828Y-59446700D01*
X134334883Y-59405525D01*
X134453145Y-59343455D01*
X134511700Y-59329023D01*
X140186284Y-59329023D01*
X140234502Y-59338614D01*
X140275379Y-59365928D01*
X140453862Y-59544411D01*
X140481174Y-59585283D01*
X140490767Y-59633495D01*
X140482971Y-59672706D01*
X140483210Y-59672764D01*
X140481757Y-59678813D01*
X140481182Y-59681709D01*
X140480897Y-59682395D01*
X140425464Y-59913288D01*
X140406835Y-60149999D01*
X140425464Y-60386711D01*
X140480895Y-60617594D01*
X140571761Y-60836966D01*
X140695823Y-61039415D01*
X140850030Y-61219969D01*
X141030584Y-61374176D01*
X141233033Y-61498238D01*
X141233035Y-61498238D01*
X141233037Y-61498240D01*
X141452406Y-61589105D01*
X141627857Y-61631227D01*
X141683288Y-61644535D01*
X141700558Y-61645894D01*
X141920000Y-61663165D01*
X142156711Y-61644535D01*
X142387594Y-61589105D01*
X142606963Y-61498240D01*
X142809416Y-61374176D01*
X142989969Y-61219969D01*
X143144176Y-61039416D01*
X143268240Y-60836963D01*
X143359105Y-60617594D01*
X143414535Y-60386711D01*
X143433165Y-60150000D01*
X143414535Y-59913289D01*
X143359105Y-59682406D01*
X143268240Y-59463037D01*
X143232996Y-59405525D01*
X143144176Y-59260584D01*
X142989969Y-59080030D01*
X142809415Y-58925823D01*
X142606966Y-58801761D01*
X142387594Y-58710895D01*
X142156711Y-58655464D01*
X141920000Y-58636835D01*
X141683288Y-58655464D01*
X141452395Y-58710897D01*
X141451709Y-58711182D01*
X141448813Y-58711757D01*
X141442764Y-58713210D01*
X141442706Y-58712971D01*
X141403495Y-58720767D01*
X141355283Y-58711174D01*
X141314411Y-58683862D01*
X140954838Y-58324289D01*
X140943971Y-58311898D01*
X140937084Y-58302923D01*
X140924510Y-58286536D01*
X140892597Y-58262048D01*
X140892595Y-58262046D01*
X140820071Y-58206396D01*
X140797398Y-58188998D01*
X140649372Y-58127684D01*
X140624794Y-58124449D01*
X140624793Y-58124449D01*
X140522226Y-58110945D01*
X140522214Y-58110945D01*
X140490523Y-58106773D01*
X140458830Y-58110945D01*
X140442387Y-58112023D01*
X134444339Y-58112023D01*
X134385784Y-58097590D01*
X134370619Y-58089631D01*
X134334883Y-58070875D01*
X134167828Y-58029700D01*
X133995772Y-58029700D01*
X133828717Y-58070875D01*
X133828716Y-58070875D01*
X133828714Y-58070876D01*
X133676371Y-58150832D01*
X133564911Y-58249577D01*
X133547585Y-58264927D01*
X133532669Y-58286536D01*
X133449844Y-58406527D01*
X133388834Y-58567399D01*
X133368096Y-58738199D01*
X129058748Y-58738199D01*
X126374315Y-56053766D01*
X126363448Y-56041375D01*
X126343988Y-56016014D01*
X126327149Y-56003093D01*
X126312074Y-55991525D01*
X126312072Y-55991523D01*
X126216876Y-55918476D01*
X126216875Y-55918475D01*
X126082059Y-55862633D01*
X126068851Y-55857162D01*
X126068850Y-55857161D01*
X126068848Y-55857161D01*
X126049468Y-55854608D01*
X126049456Y-55854608D01*
X126035469Y-55852766D01*
X125941703Y-55840422D01*
X125941691Y-55840422D01*
X125910000Y-55836250D01*
X125878307Y-55840422D01*
X125861864Y-55841500D01*
X125259885Y-55841500D01*
X116446219Y-55841500D01*
X116387665Y-55827067D01*
X116303083Y-55782675D01*
X116136028Y-55741500D01*
X116013238Y-55741500D01*
X115956035Y-55727767D01*
X115911302Y-55689561D01*
X115888789Y-55635211D01*
X115893405Y-55576564D01*
X115924143Y-55526405D01*
X116291910Y-55158638D01*
X146941500Y-55158638D01*
X146948011Y-55219200D01*
X146999111Y-55356205D01*
X147086738Y-55473261D01*
X147203794Y-55560888D01*
X147203795Y-55560888D01*
X147203796Y-55560889D01*
X147340799Y-55611989D01*
X147401362Y-55618500D01*
X147465500Y-55618500D01*
X147528500Y-55635381D01*
X147574619Y-55681500D01*
X147591500Y-55744500D01*
X147591500Y-55934782D01*
X147591270Y-55942390D01*
X147587597Y-56003093D01*
X147598559Y-56062910D01*
X147599704Y-56070432D01*
X147607035Y-56130801D01*
X147610649Y-56140332D01*
X147616770Y-56162289D01*
X147618610Y-56172329D01*
X147643572Y-56227794D01*
X147646483Y-56234822D01*
X147668045Y-56291673D01*
X147673839Y-56300068D01*
X147685036Y-56319922D01*
X147689223Y-56329224D01*
X147726725Y-56377092D01*
X147731235Y-56383220D01*
X147765785Y-56433273D01*
X147811316Y-56473610D01*
X147816857Y-56478827D01*
X155571171Y-64233141D01*
X155576388Y-64238682D01*
X155616727Y-64284215D01*
X155647909Y-64305739D01*
X155666790Y-64318772D01*
X155672905Y-64323271D01*
X155720775Y-64360775D01*
X155730071Y-64364959D01*
X155749931Y-64376160D01*
X155758323Y-64381953D01*
X155758324Y-64381953D01*
X155758325Y-64381954D01*
X155815204Y-64403525D01*
X155822193Y-64406420D01*
X155877671Y-64431389D01*
X155887704Y-64433227D01*
X155909666Y-64439349D01*
X155919199Y-64442965D01*
X155979565Y-64450294D01*
X155987064Y-64451435D01*
X156046908Y-64462402D01*
X156107616Y-64458729D01*
X156115223Y-64458500D01*
X156177814Y-64458500D01*
X156234214Y-64471828D01*
X156278682Y-64508991D01*
X156356738Y-64613261D01*
X156473794Y-64700888D01*
X156473795Y-64700888D01*
X156473796Y-64700889D01*
X156610799Y-64751989D01*
X156671362Y-64758500D01*
X158268638Y-64758500D01*
X158329201Y-64751989D01*
X158466204Y-64700889D01*
X158583261Y-64613261D01*
X158670889Y-64496204D01*
X158721989Y-64359201D01*
X158728500Y-64298638D01*
X158728500Y-63201362D01*
X158721989Y-63140799D01*
X158670889Y-63003796D01*
X158667532Y-62999311D01*
X158583261Y-62886738D01*
X158466205Y-62799111D01*
X158382361Y-62767839D01*
X158329201Y-62748011D01*
X158268638Y-62741500D01*
X156671362Y-62741500D01*
X156610799Y-62748011D01*
X156473794Y-62799111D01*
X156370922Y-62876121D01*
X156316308Y-62899508D01*
X156257048Y-62895270D01*
X156206318Y-62864348D01*
X152510736Y-59168766D01*
X154202775Y-59168766D01*
X154222543Y-59344217D01*
X154280856Y-59510865D01*
X154374793Y-59660365D01*
X154499634Y-59785206D01*
X154499636Y-59785207D01*
X154499637Y-59785208D01*
X154649134Y-59879143D01*
X154699680Y-59896830D01*
X154747159Y-59926663D01*
X154783637Y-59963141D01*
X154788854Y-59968682D01*
X154829193Y-60014215D01*
X154879249Y-60048766D01*
X154885351Y-60053256D01*
X154913499Y-60075309D01*
X154950986Y-60123441D01*
X154961465Y-60183545D01*
X154942479Y-60241527D01*
X154919623Y-60277902D01*
X154861310Y-60444549D01*
X154841542Y-60620000D01*
X154861310Y-60795450D01*
X154919623Y-60962098D01*
X155013560Y-61111598D01*
X155138401Y-61236439D01*
X155138403Y-61236440D01*
X155138404Y-61236441D01*
X155233518Y-61296205D01*
X155287901Y-61330376D01*
X155413073Y-61374176D01*
X155454552Y-61388690D01*
X155630000Y-61408458D01*
X155805448Y-61388690D01*
X155957254Y-61335570D01*
X155998867Y-61328500D01*
X156230217Y-61328500D01*
X156286617Y-61341828D01*
X156331085Y-61378991D01*
X156356737Y-61413259D01*
X156356738Y-61413259D01*
X156356739Y-61413261D01*
X156473796Y-61500889D01*
X156610799Y-61551989D01*
X156671362Y-61558500D01*
X158268638Y-61558500D01*
X158329201Y-61551989D01*
X158466204Y-61500889D01*
X158583261Y-61413261D01*
X158670889Y-61296204D01*
X158721989Y-61159201D01*
X158728500Y-61098638D01*
X158728500Y-60314500D01*
X158745381Y-60251500D01*
X158791500Y-60205381D01*
X158854500Y-60188500D01*
X160954340Y-60188500D01*
X161002558Y-60198091D01*
X161043435Y-60225405D01*
X161074595Y-60256565D01*
X161101909Y-60297442D01*
X161111500Y-60345660D01*
X161111500Y-61098638D01*
X161118011Y-61159201D01*
X161139049Y-61215605D01*
X161169111Y-61296205D01*
X161256738Y-61413261D01*
X161373794Y-61500888D01*
X161373795Y-61500888D01*
X161373796Y-61500889D01*
X161510799Y-61551989D01*
X161571362Y-61558500D01*
X163168638Y-61558500D01*
X163229201Y-61551989D01*
X163366204Y-61500889D01*
X163483261Y-61413261D01*
X163570889Y-61296204D01*
X163621989Y-61159201D01*
X163628500Y-61098638D01*
X163628500Y-60001362D01*
X163621989Y-59940799D01*
X163570889Y-59803796D01*
X163570888Y-59803794D01*
X163483261Y-59686738D01*
X163366205Y-59599111D01*
X163297702Y-59573561D01*
X163229201Y-59548011D01*
X163168638Y-59541500D01*
X162415660Y-59541500D01*
X162367442Y-59531909D01*
X162326565Y-59504595D01*
X161818827Y-58996857D01*
X161813610Y-58991316D01*
X161773273Y-58945785D01*
X161742743Y-58924711D01*
X161723220Y-58911235D01*
X161717092Y-58906725D01*
X161669224Y-58869223D01*
X161659922Y-58865036D01*
X161640068Y-58853839D01*
X161634009Y-58849657D01*
X161631675Y-58848046D01*
X161631673Y-58848045D01*
X161574822Y-58826483D01*
X161567794Y-58823572D01*
X161512329Y-58798610D01*
X161502289Y-58796770D01*
X161480332Y-58790649D01*
X161470801Y-58787035D01*
X161410432Y-58779704D01*
X161402914Y-58778559D01*
X161395153Y-58777137D01*
X161343093Y-58767597D01*
X161282390Y-58771270D01*
X161274782Y-58771500D01*
X155736583Y-58771500D01*
X155675635Y-58755778D01*
X155629896Y-58712537D01*
X155629040Y-58711174D01*
X155607674Y-58677171D01*
X155607672Y-58677169D01*
X155607671Y-58677167D01*
X155482831Y-58552327D01*
X155333331Y-58458390D01*
X155166683Y-58400077D01*
X154991233Y-58380309D01*
X154815782Y-58400077D01*
X154649134Y-58458390D01*
X154499634Y-58552327D01*
X154374793Y-58677168D01*
X154280856Y-58826668D01*
X154222543Y-58993316D01*
X154202775Y-59168766D01*
X152510736Y-59168766D01*
X149169811Y-55827841D01*
X149144061Y-55781182D01*
X159419500Y-55781182D01*
X159458604Y-56040615D01*
X159458605Y-56040618D01*
X159535936Y-56291323D01*
X159649772Y-56527704D01*
X159797563Y-56744474D01*
X159797565Y-56744476D01*
X159797567Y-56744479D01*
X159976019Y-56936805D01*
X160181143Y-57100386D01*
X160408357Y-57231568D01*
X160652584Y-57327420D01*
X160908370Y-57385802D01*
X161104506Y-57400500D01*
X161235489Y-57400500D01*
X161235494Y-57400500D01*
X161431630Y-57385802D01*
X161687416Y-57327420D01*
X161931643Y-57231568D01*
X162158857Y-57100386D01*
X162363981Y-56936805D01*
X162542433Y-56744479D01*
X162690228Y-56527704D01*
X162804063Y-56291323D01*
X162881396Y-56040615D01*
X162920500Y-55781182D01*
X162920500Y-55518818D01*
X162881396Y-55259385D01*
X162804063Y-55008677D01*
X162690228Y-54772296D01*
X162542433Y-54555521D01*
X162363981Y-54363195D01*
X162158857Y-54199614D01*
X161931643Y-54068432D01*
X161880704Y-54048440D01*
X161687417Y-53972580D01*
X161431631Y-53914198D01*
X161398940Y-53911748D01*
X161235494Y-53899500D01*
X161104506Y-53899500D01*
X160964408Y-53909998D01*
X160908368Y-53914198D01*
X160652582Y-53972580D01*
X160408356Y-54068432D01*
X160181146Y-54199612D01*
X160181143Y-54199614D01*
X159976019Y-54363195D01*
X159837525Y-54512455D01*
X159797563Y-54555525D01*
X159649772Y-54772295D01*
X159535936Y-55008676D01*
X159489680Y-55158638D01*
X159458604Y-55259385D01*
X159419500Y-55518818D01*
X159419500Y-55781182D01*
X149144061Y-55781182D01*
X149136029Y-55766627D01*
X149140084Y-55696827D01*
X149180725Y-55639935D01*
X149245437Y-55613468D01*
X149259201Y-55611989D01*
X149396204Y-55560889D01*
X149513261Y-55473261D01*
X149600889Y-55356204D01*
X149651989Y-55219201D01*
X149658500Y-55158638D01*
X149658500Y-53361362D01*
X149651989Y-53300799D01*
X149600889Y-53163796D01*
X149600888Y-53163794D01*
X149513261Y-53046738D01*
X149396205Y-52959111D01*
X149267713Y-52911186D01*
X149259201Y-52908011D01*
X149198638Y-52901500D01*
X147401362Y-52901500D01*
X147340799Y-52908011D01*
X147203794Y-52959111D01*
X147086738Y-53046738D01*
X146999111Y-53163794D01*
X146948011Y-53300799D01*
X146941500Y-53361362D01*
X146941500Y-55158638D01*
X116291910Y-55158638D01*
X116609435Y-54841113D01*
X117297102Y-54153445D01*
X117332945Y-54128348D01*
X117375211Y-54117022D01*
X117501463Y-54105978D01*
X117716196Y-54048440D01*
X117917677Y-53954488D01*
X118099781Y-53826977D01*
X118256977Y-53669781D01*
X118384488Y-53487677D01*
X118478440Y-53286196D01*
X118535978Y-53071463D01*
X118555353Y-52850000D01*
X118535978Y-52628537D01*
X118478440Y-52413804D01*
X118384488Y-52212324D01*
X118256977Y-52030219D01*
X118256976Y-52030218D01*
X118256974Y-52030215D01*
X118099784Y-51873025D01*
X117917678Y-51745512D01*
X117847117Y-51712609D01*
X117716196Y-51651560D01*
X117702709Y-51647946D01*
X117501467Y-51594022D01*
X117280000Y-51574647D01*
X117058532Y-51594022D01*
X116843807Y-51651559D01*
X116843806Y-51651559D01*
X116843804Y-51651560D01*
X116783442Y-51679707D01*
X116642322Y-51745512D01*
X116460215Y-51873025D01*
X116303025Y-52030215D01*
X116175512Y-52212322D01*
X116124195Y-52322374D01*
X116077700Y-52375391D01*
X116010000Y-52395124D01*
X115942300Y-52375391D01*
X115895805Y-52322374D01*
X115844487Y-52212322D01*
X115716974Y-52030215D01*
X115559784Y-51873025D01*
X115377678Y-51745512D01*
X115307117Y-51712609D01*
X115176196Y-51651560D01*
X115162709Y-51647946D01*
X114961467Y-51594022D01*
X114740000Y-51574647D01*
X114518532Y-51594022D01*
X114303807Y-51651559D01*
X114303806Y-51651559D01*
X114303804Y-51651560D01*
X114243442Y-51679707D01*
X114102322Y-51745512D01*
X113920215Y-51873025D01*
X113763025Y-52030215D01*
X113635512Y-52212322D01*
X113584195Y-52322374D01*
X113537700Y-52375391D01*
X113470000Y-52395124D01*
X113402300Y-52375391D01*
X113355805Y-52322374D01*
X113304487Y-52212322D01*
X113176974Y-52030215D01*
X113019784Y-51873025D01*
X112837678Y-51745512D01*
X112767117Y-51712609D01*
X112636196Y-51651560D01*
X112622709Y-51647946D01*
X112421467Y-51594022D01*
X112200000Y-51574647D01*
X111978532Y-51594022D01*
X111763807Y-51651559D01*
X111763806Y-51651559D01*
X111763804Y-51651560D01*
X111703442Y-51679707D01*
X111562322Y-51745512D01*
X111380215Y-51873025D01*
X111223025Y-52030215D01*
X111095512Y-52212322D01*
X111001559Y-52413807D01*
X110944022Y-52628532D01*
X110924647Y-52850000D01*
X110944022Y-53071467D01*
X110997946Y-53272709D01*
X111001560Y-53286196D01*
X111062609Y-53417117D01*
X111095512Y-53487678D01*
X111223025Y-53669784D01*
X111380215Y-53826974D01*
X111380218Y-53826976D01*
X111380219Y-53826977D01*
X111440704Y-53869329D01*
X111562321Y-53954487D01*
X111562322Y-53954487D01*
X111562323Y-53954488D01*
X111763804Y-54048440D01*
X111914739Y-54088883D01*
X111978532Y-54105977D01*
X111978533Y-54105977D01*
X111978537Y-54105978D01*
X112200000Y-54125353D01*
X112421463Y-54105978D01*
X112636196Y-54048440D01*
X112837677Y-53954488D01*
X113019781Y-53826977D01*
X113176977Y-53669781D01*
X113304488Y-53487677D01*
X113355806Y-53377624D01*
X113402300Y-53324609D01*
X113470000Y-53304876D01*
X113537700Y-53324609D01*
X113584193Y-53377624D01*
X113611996Y-53437247D01*
X113635512Y-53487678D01*
X113763025Y-53669784D01*
X113920215Y-53826974D01*
X113920218Y-53826976D01*
X113920219Y-53826977D01*
X114077772Y-53937297D01*
X114117263Y-53982329D01*
X114131500Y-54040509D01*
X114131500Y-54841113D01*
X114121909Y-54889331D01*
X114094597Y-54930205D01*
X112984187Y-56040615D01*
X112618869Y-56405933D01*
X112559931Y-56439175D01*
X112514591Y-56450351D01*
X112362247Y-56530307D01*
X112233462Y-56644402D01*
X112135720Y-56786003D01*
X112088963Y-56909294D01*
X112078531Y-56936804D01*
X112073458Y-56950180D01*
X112046518Y-56992783D01*
X112005034Y-57021417D01*
X111955646Y-57031500D01*
X111528144Y-57031500D01*
X111511698Y-57030422D01*
X111480000Y-57026249D01*
X111321149Y-57047161D01*
X111173121Y-57108476D01*
X111078518Y-57181069D01*
X111078474Y-57181103D01*
X111045951Y-57206059D01*
X110999402Y-57228435D01*
X110961916Y-57237674D01*
X110809571Y-57317631D01*
X110680784Y-57431727D01*
X110663145Y-57457282D01*
X110618004Y-57497272D01*
X110559450Y-57511704D01*
X110500897Y-57497272D01*
X110473082Y-57482674D01*
X110463177Y-57480232D01*
X110441634Y-57472798D01*
X110432328Y-57468610D01*
X110372505Y-57457647D01*
X110365067Y-57456050D01*
X110306030Y-57441500D01*
X110306028Y-57441500D01*
X110295835Y-57441500D01*
X110273123Y-57439436D01*
X110271114Y-57439067D01*
X110263091Y-57437597D01*
X110202390Y-57441270D01*
X110194782Y-57441500D01*
X110133972Y-57441500D01*
X110124067Y-57443941D01*
X110101529Y-57447371D01*
X110091352Y-57447986D01*
X110033302Y-57466075D01*
X110025975Y-57468117D01*
X109966916Y-57482674D01*
X109957881Y-57487416D01*
X109936824Y-57496138D01*
X109927088Y-57499172D01*
X109875041Y-57530635D01*
X109868415Y-57534371D01*
X109814572Y-57562630D01*
X109806936Y-57569396D01*
X109788574Y-57582907D01*
X109779846Y-57588183D01*
X109736856Y-57631173D01*
X109731316Y-57636388D01*
X109685782Y-57676728D01*
X109679984Y-57685128D01*
X109665397Y-57702631D01*
X109658185Y-57709843D01*
X109626731Y-57761873D01*
X109622601Y-57768261D01*
X109588045Y-57818324D01*
X109584430Y-57827858D01*
X109574449Y-57848359D01*
X109569172Y-57857087D01*
X109551080Y-57915149D01*
X109548597Y-57922343D01*
X109527034Y-57979200D01*
X109525803Y-57989334D01*
X109521022Y-58011606D01*
X109517987Y-58021348D01*
X109514314Y-58082055D01*
X109513625Y-58089631D01*
X109506295Y-58149999D01*
X109507525Y-58160129D01*
X109508213Y-58182904D01*
X109507598Y-58193093D01*
X109507598Y-58193096D01*
X109518559Y-58252911D01*
X109519704Y-58260432D01*
X109527035Y-58320801D01*
X109530649Y-58330332D01*
X109536770Y-58352289D01*
X109538610Y-58362329D01*
X109563572Y-58417794D01*
X109566483Y-58424822D01*
X109588045Y-58481673D01*
X109593839Y-58490068D01*
X109605036Y-58509922D01*
X109609223Y-58519224D01*
X109646725Y-58567092D01*
X109651235Y-58573220D01*
X109685785Y-58623273D01*
X109720349Y-58653894D01*
X109731316Y-58663610D01*
X109736857Y-58668827D01*
X109864595Y-58796565D01*
X109891909Y-58837442D01*
X109901500Y-58885660D01*
X109901500Y-59882849D01*
X109883954Y-59946987D01*
X109870106Y-59970402D01*
X109824394Y-60127743D01*
X109824394Y-60127746D01*
X109822643Y-60150000D01*
X109821500Y-60164521D01*
X109821500Y-60505500D01*
X109804619Y-60568500D01*
X109758500Y-60614619D01*
X109695500Y-60631500D01*
X109684516Y-60631500D01*
X109661534Y-60633308D01*
X109647743Y-60634394D01*
X109490402Y-60680106D01*
X109416259Y-60723954D01*
X109352121Y-60741500D01*
X108469706Y-60741500D01*
X108462098Y-60741270D01*
X108401407Y-60737598D01*
X108341587Y-60748559D01*
X108334070Y-60749703D01*
X108273695Y-60757035D01*
X108264155Y-60760653D01*
X108242205Y-60766772D01*
X108232175Y-60768610D01*
X108176719Y-60793568D01*
X108169691Y-60796479D01*
X108112823Y-60818046D01*
X108104428Y-60823841D01*
X108084573Y-60835039D01*
X108075275Y-60839224D01*
X108027399Y-60876731D01*
X108021274Y-60881238D01*
X107971229Y-60915783D01*
X107930888Y-60961317D01*
X107925672Y-60966856D01*
X106536856Y-62355672D01*
X106531317Y-62360888D01*
X106485782Y-62401229D01*
X106451238Y-62451273D01*
X106446731Y-62457398D01*
X106409224Y-62505274D01*
X106405036Y-62514578D01*
X106393843Y-62534423D01*
X106388048Y-62542819D01*
X106366482Y-62599683D01*
X106363570Y-62606711D01*
X106338611Y-62662168D01*
X106336771Y-62672210D01*
X106330651Y-62694162D01*
X106327035Y-62703697D01*
X106319705Y-62764054D01*
X106318561Y-62771570D01*
X106307597Y-62831408D01*
X106308213Y-62841588D01*
X106307525Y-62864368D01*
X106306295Y-62874499D01*
X94628500Y-62874499D01*
X94628500Y-62388136D01*
X94629578Y-62371690D01*
X94631331Y-62358372D01*
X94633750Y-62340000D01*
X94629578Y-62308309D01*
X94629578Y-62308304D01*
X94624120Y-62266848D01*
X94612838Y-62181150D01*
X94612101Y-62179371D01*
X94551524Y-62033124D01*
X94551523Y-62033123D01*
X94551523Y-62033122D01*
X94473456Y-61931383D01*
X94473443Y-61931369D01*
X94453987Y-61906012D01*
X94428618Y-61886546D01*
X94416228Y-61875679D01*
X93645404Y-61104855D01*
X93618090Y-61063978D01*
X93608499Y-61015760D01*
X93608499Y-60900015D01*
X93608499Y-60900011D01*
X93605629Y-60863534D01*
X93560269Y-60707404D01*
X93477506Y-60567459D01*
X93477504Y-60567457D01*
X93477503Y-60567455D01*
X93362544Y-60452496D01*
X93349111Y-60444552D01*
X93222596Y-60369731D01*
X93222595Y-60369730D01*
X93222594Y-60369730D01*
X93066467Y-60324371D01*
X93060386Y-60323892D01*
X93029989Y-60321500D01*
X93029984Y-60321500D01*
X92630014Y-60321500D01*
X92593533Y-60324371D01*
X92437405Y-60369730D01*
X92297455Y-60452496D01*
X92182496Y-60567455D01*
X92099730Y-60707405D01*
X92054371Y-60863532D01*
X92051500Y-60900015D01*
X92051500Y-61399985D01*
X92054371Y-61436466D01*
X92098716Y-61589105D01*
X92099731Y-61592596D01*
X92176411Y-61722256D01*
X92182496Y-61732544D01*
X92297455Y-61847503D01*
X92297457Y-61847504D01*
X92297459Y-61847506D01*
X92437404Y-61930269D01*
X92593534Y-61975629D01*
X92630011Y-61978500D01*
X92745760Y-61978499D01*
X92793978Y-61988090D01*
X92834855Y-62015404D01*
X93374595Y-62555144D01*
X93401909Y-62596021D01*
X93411500Y-62644239D01*
X93411500Y-65045083D01*
X93405795Y-65082569D01*
X93389197Y-65116656D01*
X93388571Y-65117564D01*
X93388044Y-65118327D01*
X93327034Y-65279199D01*
X93306296Y-65450000D01*
X93327034Y-65620800D01*
X93388044Y-65781672D01*
X93388045Y-65781674D01*
X93388046Y-65781675D01*
X93485785Y-65923273D01*
X93614570Y-66037367D01*
X93766917Y-66117325D01*
X93933972Y-66158500D01*
X93933974Y-66158500D01*
X93985500Y-66158500D01*
X94048500Y-66175381D01*
X94094619Y-66221500D01*
X94111500Y-66284500D01*
X94111500Y-67315500D01*
X94094619Y-67378500D01*
X94048500Y-67424619D01*
X93985500Y-67441500D01*
X93833972Y-67441500D01*
X93666917Y-67482675D01*
X93666916Y-67482675D01*
X93666914Y-67482676D01*
X93514571Y-67562632D01*
X93406031Y-67658790D01*
X93385785Y-67676727D01*
X93374364Y-67693273D01*
X93288044Y-67818327D01*
X93227034Y-67979199D01*
X93206296Y-68149999D01*
X93227034Y-68320800D01*
X93288044Y-68481672D01*
X93288045Y-68481674D01*
X93288046Y-68481675D01*
X93289197Y-68483343D01*
X93305795Y-68517431D01*
X93311500Y-68554917D01*
X93311500Y-71655760D01*
X93301909Y-71703978D01*
X93274595Y-71744856D01*
X92834853Y-72184596D01*
X92793976Y-72211909D01*
X92745759Y-72221500D01*
X92630015Y-72221500D01*
X92593533Y-72224371D01*
X92437405Y-72269730D01*
X92297455Y-72352496D01*
X92182496Y-72467455D01*
X92099730Y-72607405D01*
X92054371Y-72763532D01*
X92051500Y-72800015D01*
X92051500Y-73299985D01*
X85195500Y-73299985D01*
X85195500Y-70088367D01*
X91124500Y-70088367D01*
X91163022Y-70219561D01*
X91236945Y-70334589D01*
X91340282Y-70424130D01*
X91464658Y-70480931D01*
X91505190Y-70486758D01*
X91565986Y-70495500D01*
X91565989Y-70495500D01*
X91634011Y-70495500D01*
X91634014Y-70495500D01*
X91684676Y-70488215D01*
X91735342Y-70480931D01*
X91859718Y-70424130D01*
X91963055Y-70334589D01*
X92036978Y-70219561D01*
X92075500Y-70088367D01*
X92075500Y-69951633D01*
X92036978Y-69820439D01*
X91963055Y-69705411D01*
X91859718Y-69615870D01*
X91735342Y-69559069D01*
X91735340Y-69559068D01*
X91735339Y-69559068D01*
X91634014Y-69544500D01*
X91634011Y-69544500D01*
X91565989Y-69544500D01*
X91565986Y-69544500D01*
X91464660Y-69559068D01*
X91340281Y-69615870D01*
X91236945Y-69705410D01*
X91203090Y-69758091D01*
X91163022Y-69820439D01*
X91124500Y-69951633D01*
X91124500Y-70088367D01*
X85195500Y-70088367D01*
X85195500Y-64308367D01*
X91124500Y-64308367D01*
X91163022Y-64439561D01*
X91236945Y-64554589D01*
X91340282Y-64644130D01*
X91464658Y-64700931D01*
X91505190Y-64706758D01*
X91565986Y-64715500D01*
X91565989Y-64715500D01*
X91634011Y-64715500D01*
X91634014Y-64715500D01*
X91684676Y-64708215D01*
X91735342Y-64700931D01*
X91859718Y-64644130D01*
X91963055Y-64554589D01*
X92036978Y-64439561D01*
X92075500Y-64308367D01*
X92075500Y-64171633D01*
X92036978Y-64040439D01*
X91963055Y-63925411D01*
X91931074Y-63897700D01*
X91859718Y-63835870D01*
X91827615Y-63821209D01*
X91735342Y-63779069D01*
X91735340Y-63779068D01*
X91735339Y-63779068D01*
X91634014Y-63764500D01*
X91634011Y-63764500D01*
X91565989Y-63764500D01*
X91565986Y-63764500D01*
X91464660Y-63779068D01*
X91340281Y-63835870D01*
X91236945Y-63925410D01*
X91216883Y-63956628D01*
X91163022Y-64040439D01*
X91124500Y-64171633D01*
X91124500Y-64308367D01*
X85195500Y-64308367D01*
X85195500Y-55781182D01*
X87419500Y-55781182D01*
X87458604Y-56040615D01*
X87458605Y-56040618D01*
X87535936Y-56291323D01*
X87649772Y-56527704D01*
X87797563Y-56744474D01*
X87797565Y-56744476D01*
X87797567Y-56744479D01*
X87976019Y-56936805D01*
X88181143Y-57100386D01*
X88408357Y-57231568D01*
X88652584Y-57327420D01*
X88908370Y-57385802D01*
X89104506Y-57400500D01*
X89235489Y-57400500D01*
X89235494Y-57400500D01*
X89431630Y-57385802D01*
X89687416Y-57327420D01*
X89931643Y-57231568D01*
X90158857Y-57100386D01*
X90363981Y-56936805D01*
X90542433Y-56744479D01*
X90690228Y-56527704D01*
X90804063Y-56291323D01*
X90881396Y-56040615D01*
X90920500Y-55781182D01*
X90920500Y-55518818D01*
X90881396Y-55259385D01*
X90804063Y-55008677D01*
X90690228Y-54772296D01*
X90542433Y-54555521D01*
X90363981Y-54363195D01*
X90158857Y-54199614D01*
X89931643Y-54068432D01*
X89880704Y-54048440D01*
X89687417Y-53972580D01*
X89431631Y-53914198D01*
X89398940Y-53911748D01*
X89235494Y-53899500D01*
X89104506Y-53899500D01*
X88964408Y-53909998D01*
X88908368Y-53914198D01*
X88652582Y-53972580D01*
X88408356Y-54068432D01*
X88181146Y-54199612D01*
X88181143Y-54199614D01*
X87976019Y-54363195D01*
X87837525Y-54512455D01*
X87797563Y-54555525D01*
X87649772Y-54772295D01*
X87535936Y-55008676D01*
X87489680Y-55158638D01*
X87458604Y-55259385D01*
X87419500Y-55518818D01*
X87419500Y-55781182D01*
X85195500Y-55781182D01*
X85195500Y-49801500D01*
X85212381Y-49738500D01*
X85258500Y-49692381D01*
X85321500Y-49675500D01*
X165018500Y-49675500D01*
X165081500Y-49692381D01*
G37*
G04 #@! TD.AperFunction*
M02*
