G04 #@! TF.GenerationSoftware,KiCad,Pcbnew,7.0.1-0*
G04 #@! TF.CreationDate,2023-04-02T15:36:46-05:00*
G04 #@! TF.ProjectId,V0_Display,56305f44-6973-4706-9c61-792e6b696361,rev?*
G04 #@! TF.SameCoordinates,Original*
G04 #@! TF.FileFunction,Soldermask,Bot*
G04 #@! TF.FilePolarity,Negative*
%FSLAX46Y46*%
G04 Gerber Fmt 4.6, Leading zero omitted, Abs format (unit mm)*
G04 Created by KiCad (PCBNEW 7.0.1-0) date 2023-04-02 15:36:46*
%MOMM*%
%LPD*%
G01*
G04 APERTURE LIST*
G04 Aperture macros list*
%AMRoundRect*
0 Rectangle with rounded corners*
0 $1 Rounding radius*
0 $2 $3 $4 $5 $6 $7 $8 $9 X,Y pos of 4 corners*
0 Add a 4 corners polygon primitive as box body*
4,1,4,$2,$3,$4,$5,$6,$7,$8,$9,$2,$3,0*
0 Add four circle primitives for the rounded corners*
1,1,$1+$1,$2,$3*
1,1,$1+$1,$4,$5*
1,1,$1+$1,$6,$7*
1,1,$1+$1,$8,$9*
0 Add four rect primitives between the rounded corners*
20,1,$1+$1,$2,$3,$4,$5,0*
20,1,$1+$1,$4,$5,$6,$7,0*
20,1,$1+$1,$6,$7,$8,$9,0*
20,1,$1+$1,$8,$9,$2,$3,0*%
G04 Aperture macros list end*
%ADD10R,0.270000X0.570000*%
%ADD11R,1.670000X0.270000*%
%ADD12RoundRect,0.035000X-0.050000X0.387500X-0.050000X-0.387500X0.050000X-0.387500X0.050000X0.387500X0*%
%ADD13RoundRect,0.035000X-0.387500X0.050000X-0.387500X-0.050000X0.387500X-0.050000X0.387500X0.050000X0*%
%ADD14RoundRect,0.129000X-1.456000X1.456000X-1.456000X-1.456000X1.456000X-1.456000X1.456000X1.456000X0*%
%ADD15C,3.300000*%
%ADD16C,2.100000*%
%ADD17O,2.600000X4.100000*%
%ADD18C,1.624000*%
%ADD19RoundRect,0.050000X-0.850000X0.850000X-0.850000X-0.850000X0.850000X-0.850000X0.850000X0.850000X0*%
%ADD20O,1.800000X1.800000*%
%ADD21RoundRect,0.185000X-0.185000X0.135000X-0.185000X-0.135000X0.185000X-0.135000X0.185000X0.135000X0*%
%ADD22RoundRect,0.250000X-0.275000X0.200000X-0.275000X-0.200000X0.275000X-0.200000X0.275000X0.200000X0*%
%ADD23RoundRect,0.275000X0.250000X-0.225000X0.250000X0.225000X-0.250000X0.225000X-0.250000X-0.225000X0*%
%ADD24RoundRect,0.190000X0.170000X-0.140000X0.170000X0.140000X-0.170000X0.140000X-0.170000X-0.140000X0*%
%ADD25RoundRect,0.050000X-0.530000X-0.325000X0.530000X-0.325000X0.530000X0.325000X-0.530000X0.325000X0*%
%ADD26RoundRect,0.070000X0.525000X-0.300000X0.525000X0.300000X-0.525000X0.300000X-0.525000X-0.300000X0*%
%ADD27R,0.470000X0.345000*%
%ADD28R,0.620000X0.270000*%
%ADD29RoundRect,0.050000X0.850000X-0.850000X0.850000X0.850000X-0.850000X0.850000X-0.850000X-0.850000X0*%
%ADD30RoundRect,0.275000X-0.250000X0.225000X-0.250000X-0.225000X0.250000X-0.225000X0.250000X0.225000X0*%
%ADD31RoundRect,0.050000X-0.850000X-0.850000X0.850000X-0.850000X0.850000X0.850000X-0.850000X0.850000X0*%
%ADD32RoundRect,0.197500X-0.172500X0.147500X-0.172500X-0.147500X0.172500X-0.147500X0.172500X0.147500X0*%
%ADD33RoundRect,0.050000X-0.700000X-0.600000X0.700000X-0.600000X0.700000X0.600000X-0.700000X0.600000X0*%
%ADD34C,0.620000*%
%ADD35R,1.120000X0.570000*%
%ADD36R,1.120000X0.270000*%
%ADD37O,2.070000X1.020000*%
%ADD38O,1.970000X0.970000*%
G04 APERTURE END LIST*
D10*
X103380000Y-57127500D03*
X103880000Y-57127500D03*
X104380000Y-57127500D03*
X104880000Y-57127500D03*
X104880000Y-59627500D03*
X104380000Y-59627500D03*
X103880000Y-59627500D03*
X103380000Y-59627500D03*
D11*
X104130000Y-58377500D03*
D12*
X110400000Y-59562500D03*
X110800000Y-59562500D03*
X111200000Y-59562500D03*
X111600000Y-59562500D03*
X112000000Y-59562500D03*
X112400000Y-59562500D03*
X112800000Y-59562500D03*
X113200000Y-59562500D03*
X113600000Y-59562500D03*
X114000000Y-59562500D03*
X114400000Y-59562500D03*
X114800000Y-59562500D03*
X115200000Y-59562500D03*
X115600000Y-59562500D03*
D13*
X116437500Y-60400000D03*
X116437500Y-60800000D03*
X116437500Y-61200000D03*
X116437500Y-61600000D03*
X116437500Y-62000000D03*
X116437500Y-62400000D03*
X116437500Y-62800000D03*
X116437500Y-63200000D03*
X116437500Y-63600000D03*
X116437500Y-64000000D03*
X116437500Y-64400000D03*
X116437500Y-64800000D03*
X116437500Y-65200000D03*
X116437500Y-65600000D03*
D12*
X115600000Y-66437500D03*
X115200000Y-66437500D03*
X114800000Y-66437500D03*
X114400000Y-66437500D03*
X114000000Y-66437500D03*
X113600000Y-66437500D03*
X113200000Y-66437500D03*
X112800000Y-66437500D03*
X112400000Y-66437500D03*
X112000000Y-66437500D03*
X111600000Y-66437500D03*
X111200000Y-66437500D03*
X110800000Y-66437500D03*
X110400000Y-66437500D03*
D13*
X109562500Y-65600000D03*
X109562500Y-65200000D03*
X109562500Y-64800000D03*
X109562500Y-64400000D03*
X109562500Y-64000000D03*
X109562500Y-63600000D03*
X109562500Y-63200000D03*
X109562500Y-62800000D03*
X109562500Y-62400000D03*
X109562500Y-62000000D03*
X109562500Y-61600000D03*
X109562500Y-61200000D03*
X109562500Y-60800000D03*
X109562500Y-60400000D03*
D14*
X113000000Y-63000000D03*
D15*
X161170000Y-80650000D03*
X161170000Y-55650000D03*
D16*
X156670000Y-69900000D03*
X163170000Y-69900000D03*
X156670000Y-74400000D03*
X163170000Y-74400000D03*
X141920000Y-74650000D03*
X146920000Y-74650000D03*
X144420000Y-74650000D03*
D17*
X139340000Y-67150000D03*
X149500000Y-67150000D03*
D16*
X141920000Y-60150000D03*
X146920000Y-60150000D03*
D15*
X89170000Y-80650000D03*
X89170000Y-55650000D03*
D18*
X109660000Y-52850000D03*
X112200000Y-52850000D03*
X114740000Y-52850000D03*
X117280000Y-52850000D03*
D19*
X108795000Y-73120000D03*
D20*
X111335000Y-73120000D03*
X113875000Y-73120000D03*
X116415000Y-73120000D03*
X118955000Y-73120000D03*
D21*
X119560000Y-62350000D03*
X119560000Y-63370000D03*
D22*
X115150000Y-68925000D03*
X115150000Y-70575000D03*
D16*
X128975000Y-73145000D03*
X122475000Y-73145000D03*
X128975000Y-77645000D03*
X122475000Y-77645000D03*
D23*
X105520000Y-67750000D03*
X105520000Y-66200000D03*
D24*
X119570000Y-61400000D03*
X119570000Y-60440000D03*
X124880000Y-63340000D03*
X124880000Y-62380000D03*
D25*
X101720000Y-68245000D03*
X101720000Y-67295000D03*
X101720000Y-66345000D03*
X103920000Y-66345000D03*
X103920000Y-68245000D03*
D26*
X123460000Y-67850000D03*
X123460000Y-66900000D03*
X123460000Y-65950000D03*
X126160000Y-65950000D03*
X126160000Y-67850000D03*
D27*
X100345000Y-62987500D03*
D28*
X100270000Y-62450000D03*
D27*
X100345000Y-61912500D03*
X102045000Y-61912500D03*
D28*
X102120000Y-62450000D03*
D27*
X102045000Y-62987500D03*
D29*
X148300000Y-54260000D03*
D20*
X145760000Y-54260000D03*
D30*
X100070000Y-66430000D03*
X100070000Y-67980000D03*
D31*
X97220000Y-69550000D03*
D20*
X97220000Y-67010000D03*
X97220000Y-64470000D03*
X97220000Y-61930000D03*
D16*
X104720000Y-73145000D03*
X98220000Y-73145000D03*
X104720000Y-77645000D03*
X98220000Y-77645000D03*
D32*
X108310000Y-66625000D03*
X108310000Y-67595000D03*
D33*
X121130000Y-60350000D03*
X123330000Y-60350000D03*
X123330000Y-62050000D03*
X121130000Y-62050000D03*
D34*
X91600000Y-70020000D03*
X91600000Y-64240000D03*
D35*
X92675000Y-70330000D03*
X92675000Y-69530000D03*
D36*
X92675000Y-68380000D03*
X92675000Y-67380000D03*
X92675000Y-66880000D03*
X92675000Y-65880000D03*
D35*
X92675000Y-63930000D03*
X92675000Y-64730000D03*
D36*
X92675000Y-65380000D03*
X92675000Y-66380000D03*
X92675000Y-67880000D03*
X92675000Y-68880000D03*
D37*
X92100000Y-71450000D03*
D38*
X87920000Y-71450000D03*
X87920000Y-62810000D03*
D37*
X92100000Y-62810000D03*
D22*
X113690000Y-68925000D03*
X113690000Y-70575000D03*
M02*
