M48
; DRILL file {KiCad 7.0.1-0} date 2023 April 02, Sunday 15:37:21
; FORMAT={-:-/ absolute / metric / decimal}
; #@! TF.CreationDate,2023-04-02T15:37:21-05:00
; #@! TF.GenerationSoftware,Kicad,Pcbnew,7.0.1-0
; #@! TF.FileFunction,Plated,1,4,PTH
FMAT,2
METRIC
; #@! TA.AperFunction,Plated,PTH,ViaDrill
T1C0.200
; #@! TA.AperFunction,Plated,PTH,ComponentDrill
T2C0.350
; #@! TA.AperFunction,Plated,PTH,ViaDrill
T3C0.400
; #@! TA.AperFunction,Plated,PTH,ComponentDrill
T4C0.600
; #@! TA.AperFunction,Plated,PTH,ComponentDrill
T5C0.762
; #@! TA.AperFunction,Plated,PTH,ComponentDrill
T6C1.000
; #@! TA.AperFunction,Plated,PTH,ComponentDrill
T7C1.100
; #@! TA.AperFunction,Plated,PTH,ComponentDrill
T8C2.000
%
G90
G05
T1
X93.92Y-68.15
X94.02Y-65.45
X104.13Y-58.377
X107.02Y-62.874
X108.2Y-65.77
X108.245Y-64.9
X110.22Y-58.15
X110.42Y-67.45
X111.215Y-57.905
X112.768Y-57.118
X114.01Y-67.22
X114.179Y-58.359
X116.05Y-56.45
X116.33Y-70.56
X116.93Y-69.14
X117.71Y-66.5
X118.27Y-62.85
X118.491Y-64.169
X120.05Y-66.5
X123.61Y-64.75
X124.865Y-60.775
X134.082Y-58.738
T2
X111.725Y-61.725
X111.725Y-63.0
X111.725Y-64.275
X113.0Y-61.725
X113.0Y-63.0
X113.0Y-64.275
X114.275Y-61.725
X114.275Y-63.0
X114.275Y-64.275
T3
X94.82Y-64.05
X99.32Y-62.85
X104.22Y-64.25
X108.03Y-63.4
X127.39Y-65.95
X128.24Y-67.85
X154.991Y-59.169
X155.63Y-60.62
T5
X109.66Y-52.85
X112.2Y-52.85
X114.74Y-52.85
X117.28Y-52.85
T6
X97.22Y-61.93
X97.22Y-64.47
X97.22Y-67.01
X97.22Y-69.55
X108.795Y-73.12
X111.335Y-73.12
X113.875Y-73.12
X116.415Y-73.12
X118.955Y-73.12
X145.76Y-54.26
X148.3Y-54.26
T7
X98.22Y-73.145
X98.22Y-77.645
X104.72Y-73.145
X104.72Y-77.645
X122.475Y-73.145
X122.475Y-77.645
X128.975Y-73.145
X128.975Y-77.645
X141.92Y-60.15
X141.92Y-74.65
X144.42Y-74.65
X146.92Y-60.15
X146.92Y-74.65
X156.67Y-69.9
X156.67Y-74.4
X163.17Y-69.9
X163.17Y-74.4
T4
X87.52Y-62.81G85X88.32Y-62.81
G05
X87.52Y-71.45G85X88.32Y-71.45
G05
X91.55Y-62.81G85X92.65Y-62.81
G05
X91.55Y-71.45G85X92.65Y-71.45
G05
T8
X139.34Y-66.65G85X139.34Y-67.65
G05
X149.5Y-67.65G85X149.5Y-66.65
G05
T0
M30
