G04 #@! TF.GenerationSoftware,KiCad,Pcbnew,7.0.1-0*
G04 #@! TF.CreationDate,2023-04-02T15:36:46-05:00*
G04 #@! TF.ProjectId,V0_Display,56305f44-6973-4706-9c61-792e6b696361,rev?*
G04 #@! TF.SameCoordinates,Original*
G04 #@! TF.FileFunction,Copper,L2,Inr*
G04 #@! TF.FilePolarity,Positive*
%FSLAX46Y46*%
G04 Gerber Fmt 4.6, Leading zero omitted, Abs format (unit mm)*
G04 Created by KiCad (PCBNEW 7.0.1-0) date 2023-04-02 15:36:46*
%MOMM*%
%LPD*%
G01*
G04 APERTURE LIST*
G04 #@! TA.AperFunction,ComponentPad*
%ADD10C,0.600000*%
G04 #@! TD*
G04 #@! TA.AperFunction,ComponentPad*
%ADD11C,2.000000*%
G04 #@! TD*
G04 #@! TA.AperFunction,ComponentPad*
%ADD12O,2.500000X4.000000*%
G04 #@! TD*
G04 #@! TA.AperFunction,ComponentPad*
%ADD13C,1.524000*%
G04 #@! TD*
G04 #@! TA.AperFunction,ComponentPad*
%ADD14R,1.700000X1.700000*%
G04 #@! TD*
G04 #@! TA.AperFunction,ComponentPad*
%ADD15O,1.700000X1.700000*%
G04 #@! TD*
G04 #@! TA.AperFunction,ComponentPad*
%ADD16O,2.100000X1.050000*%
G04 #@! TD*
G04 #@! TA.AperFunction,ComponentPad*
%ADD17O,2.000000X1.000000*%
G04 #@! TD*
G04 #@! TA.AperFunction,ViaPad*
%ADD18C,0.800000*%
G04 #@! TD*
G04 #@! TA.AperFunction,ViaPad*
%ADD19C,0.400000*%
G04 #@! TD*
G04 #@! TA.AperFunction,ViaPad*
%ADD20C,0.550000*%
G04 #@! TD*
G04 #@! TA.AperFunction,Conductor*
%ADD21C,0.400000*%
G04 #@! TD*
G04 APERTURE END LIST*
D10*
X111725000Y-61725000D03*
X113000000Y-61725000D03*
X114275000Y-61725000D03*
X111725000Y-63000000D03*
X113000000Y-63000000D03*
X114275000Y-63000000D03*
X111725000Y-64275000D03*
X113000000Y-64275000D03*
X114275000Y-64275000D03*
D11*
X156670000Y-69900000D03*
X163170000Y-69900000D03*
X156670000Y-74400000D03*
X163170000Y-74400000D03*
X141920000Y-74650000D03*
X146920000Y-74650000D03*
X144420000Y-74650000D03*
D12*
X139340000Y-67150000D03*
X149500000Y-67150000D03*
D11*
X141920000Y-60150000D03*
X146920000Y-60150000D03*
D13*
X109660000Y-52850000D03*
X112200000Y-52850000D03*
X114740000Y-52850000D03*
X117280000Y-52850000D03*
D14*
X108795000Y-73120000D03*
D15*
X111335000Y-73120000D03*
X113875000Y-73120000D03*
X116415000Y-73120000D03*
X118955000Y-73120000D03*
D11*
X128975000Y-73145000D03*
X122475000Y-73145000D03*
X128975000Y-77645000D03*
X122475000Y-77645000D03*
D14*
X148300000Y-54260000D03*
D15*
X145760000Y-54260000D03*
D14*
X97220000Y-69550000D03*
D15*
X97220000Y-67010000D03*
X97220000Y-64470000D03*
X97220000Y-61930000D03*
D11*
X104720000Y-73145000D03*
X98220000Y-73145000D03*
X104720000Y-77645000D03*
X98220000Y-77645000D03*
D16*
X92100000Y-71450000D03*
D17*
X87920000Y-71450000D03*
X87920000Y-62810000D03*
D16*
X92100000Y-62810000D03*
D18*
X99320000Y-62850000D03*
D19*
X124865000Y-60775000D03*
D18*
X104220000Y-64250000D03*
D19*
X123610000Y-64750000D03*
X104130000Y-58377500D03*
D20*
X155630000Y-60620000D03*
X128240000Y-67850000D03*
D18*
X94820000Y-64050000D03*
D19*
X111215000Y-57905000D03*
X112767676Y-57117676D03*
X116330000Y-70560000D03*
X117710000Y-66500000D03*
X120050000Y-66500000D03*
D20*
X127389999Y-65950000D03*
X154991233Y-59168767D03*
D19*
X134081800Y-58738200D03*
X116930000Y-69140000D03*
X114178886Y-58358886D03*
X110420000Y-67450000D03*
X108200000Y-65770000D03*
X110220000Y-58150000D03*
X118270000Y-62850000D03*
X114010000Y-67220000D03*
D20*
X108030000Y-63400000D03*
D19*
X116050000Y-56450000D03*
X94020000Y-65450000D03*
X93920000Y-68150000D03*
X108245000Y-64899500D03*
X118491043Y-64168957D03*
X107020000Y-62874500D03*
D21*
X129880000Y-67850000D02*
X139480000Y-58250000D01*
X139480000Y-58250000D02*
X153117871Y-58250000D01*
X128240000Y-67850000D02*
X129880000Y-67850000D01*
X155487871Y-60620000D02*
X155630000Y-60620000D01*
X153117871Y-58250000D02*
X155487871Y-60620000D01*
X153472466Y-57650000D02*
X139200000Y-57650000D01*
X154991233Y-59168767D02*
X153472466Y-57650000D01*
X130900000Y-65950000D02*
X127389999Y-65950000D01*
X139200000Y-57650000D02*
X130900000Y-65950000D01*
G04 #@! TA.AperFunction,Conductor*
G36*
X109489971Y-57764432D02*
G01*
X109535112Y-57804424D01*
X109556497Y-57860812D01*
X109549228Y-57920680D01*
X109527034Y-57979199D01*
X109506296Y-58149999D01*
X109527034Y-58320800D01*
X109588044Y-58481672D01*
X109588045Y-58481674D01*
X109588046Y-58481675D01*
X109685785Y-58623273D01*
X109814570Y-58737367D01*
X109966917Y-58817325D01*
X110133972Y-58858500D01*
X110306026Y-58858500D01*
X110306028Y-58858500D01*
X110473083Y-58817325D01*
X110625430Y-58737367D01*
X110754215Y-58623273D01*
X110771854Y-58597717D01*
X110816993Y-58557728D01*
X110875549Y-58543295D01*
X110934104Y-58557728D01*
X110961913Y-58572323D01*
X110961917Y-58572325D01*
X111128972Y-58613500D01*
X111301026Y-58613500D01*
X111301028Y-58613500D01*
X111468083Y-58572325D01*
X111620430Y-58492367D01*
X111749215Y-58378273D01*
X111846954Y-58236675D01*
X111907965Y-58075801D01*
X111928704Y-57905000D01*
X111927026Y-57891187D01*
X111938274Y-57821984D01*
X111984766Y-57769506D01*
X112052108Y-57750000D01*
X112416848Y-57750000D01*
X112475402Y-57764432D01*
X112514593Y-57785001D01*
X112681648Y-57826176D01*
X112853702Y-57826176D01*
X112853704Y-57826176D01*
X113020759Y-57785001D01*
X113059949Y-57764432D01*
X113118504Y-57750000D01*
X113498205Y-57750000D01*
X113563390Y-57768172D01*
X113609773Y-57817445D01*
X113623975Y-57883608D01*
X113601900Y-57947577D01*
X113546932Y-58027210D01*
X113485920Y-58188085D01*
X113465182Y-58358886D01*
X113485920Y-58529686D01*
X113546930Y-58690558D01*
X113546931Y-58690560D01*
X113546932Y-58690561D01*
X113644671Y-58832159D01*
X113773456Y-58946253D01*
X113925803Y-59026211D01*
X114092858Y-59067386D01*
X114264912Y-59067386D01*
X114264914Y-59067386D01*
X114431969Y-59026211D01*
X114584316Y-58946253D01*
X114713101Y-58832159D01*
X114810840Y-58690561D01*
X114871851Y-58529687D01*
X114892590Y-58358886D01*
X114871851Y-58188085D01*
X114810840Y-58027211D01*
X114755871Y-57947576D01*
X114733797Y-57883608D01*
X114747999Y-57817445D01*
X114794382Y-57768172D01*
X114859567Y-57750000D01*
X118544000Y-57750000D01*
X118607000Y-57766881D01*
X118653119Y-57813000D01*
X118670000Y-57876000D01*
X118670000Y-62058060D01*
X118657285Y-62113219D01*
X118621707Y-62157245D01*
X118570445Y-62181254D01*
X118513849Y-62180399D01*
X118356028Y-62141500D01*
X118183972Y-62141500D01*
X118016917Y-62182675D01*
X118016916Y-62182675D01*
X118016914Y-62182676D01*
X117864571Y-62262632D01*
X117864569Y-62262633D01*
X117864570Y-62262633D01*
X117735785Y-62376727D01*
X117703205Y-62423926D01*
X117638044Y-62518327D01*
X117577034Y-62679199D01*
X117556296Y-62849999D01*
X117577034Y-63020800D01*
X117638044Y-63181672D01*
X117638045Y-63181674D01*
X117638046Y-63181675D01*
X117735785Y-63323273D01*
X117864570Y-63437367D01*
X118016917Y-63517325D01*
X118183972Y-63558500D01*
X118356026Y-63558500D01*
X118356028Y-63558500D01*
X118513849Y-63519600D01*
X118570445Y-63518746D01*
X118621707Y-63542755D01*
X118657285Y-63586781D01*
X118670000Y-63641940D01*
X118670000Y-66445405D01*
X118655959Y-66499999D01*
X118670000Y-66554595D01*
X118670000Y-67624000D01*
X118653119Y-67687000D01*
X118607000Y-67733119D01*
X118544000Y-67750000D01*
X114745133Y-67750000D01*
X114679948Y-67731828D01*
X114633565Y-67682555D01*
X114619363Y-67616392D01*
X114636732Y-67566057D01*
X114636529Y-67565980D01*
X114639083Y-67559245D01*
X114641437Y-67552424D01*
X114641438Y-67552421D01*
X114641954Y-67551675D01*
X114702965Y-67390801D01*
X114723704Y-67220000D01*
X114702965Y-67049199D01*
X114641954Y-66888325D01*
X114544215Y-66746727D01*
X114415430Y-66632633D01*
X114263083Y-66552675D01*
X114096028Y-66511500D01*
X113923972Y-66511500D01*
X113756917Y-66552675D01*
X113756916Y-66552675D01*
X113756914Y-66552676D01*
X113604571Y-66632632D01*
X113475786Y-66746726D01*
X113378044Y-66888327D01*
X113317034Y-67049199D01*
X113296296Y-67219999D01*
X113317034Y-67390800D01*
X113378045Y-67551674D01*
X113378563Y-67552424D01*
X113380916Y-67559245D01*
X113383471Y-67565980D01*
X113383267Y-67566057D01*
X113400637Y-67616392D01*
X113386435Y-67682555D01*
X113340052Y-67731828D01*
X113274867Y-67750000D01*
X111239502Y-67750000D01*
X111172159Y-67730494D01*
X111125667Y-67678015D01*
X111114421Y-67608813D01*
X111121358Y-67551675D01*
X111133704Y-67450000D01*
X111112965Y-67279199D01*
X111070537Y-67167325D01*
X111051955Y-67118327D01*
X111051954Y-67118325D01*
X110954215Y-66976727D01*
X110825430Y-66862633D01*
X110673083Y-66782675D01*
X110506028Y-66741500D01*
X110333972Y-66741500D01*
X110166917Y-66782675D01*
X110166916Y-66782675D01*
X110166914Y-66782676D01*
X110014571Y-66862632D01*
X109885786Y-66976726D01*
X109788044Y-67118327D01*
X109727034Y-67279199D01*
X109706296Y-67450000D01*
X109725579Y-67608813D01*
X109714333Y-67678015D01*
X109667841Y-67730494D01*
X109600498Y-67750000D01*
X106926000Y-67750000D01*
X106863000Y-67733119D01*
X106816881Y-67687000D01*
X106800000Y-67624000D01*
X106800000Y-66500000D01*
X116996296Y-66500000D01*
X117017034Y-66670800D01*
X117078044Y-66831672D01*
X117078045Y-66831674D01*
X117078046Y-66831675D01*
X117175785Y-66973273D01*
X117304570Y-67087367D01*
X117456917Y-67167325D01*
X117623972Y-67208500D01*
X117796026Y-67208500D01*
X117796028Y-67208500D01*
X117963083Y-67167325D01*
X118115430Y-67087367D01*
X118244215Y-66973273D01*
X118341954Y-66831675D01*
X118402965Y-66670801D01*
X118418919Y-66539407D01*
X118434319Y-66500000D01*
X118418919Y-66460592D01*
X118402965Y-66329199D01*
X118341955Y-66168327D01*
X118295948Y-66101675D01*
X118244215Y-66026727D01*
X118115430Y-65912633D01*
X117963083Y-65832675D01*
X117796028Y-65791500D01*
X117623972Y-65791500D01*
X117456917Y-65832675D01*
X117456916Y-65832675D01*
X117456914Y-65832676D01*
X117304571Y-65912632D01*
X117175786Y-66026726D01*
X117078044Y-66168327D01*
X117017034Y-66329199D01*
X116996296Y-66500000D01*
X106800000Y-66500000D01*
X106800000Y-65770000D01*
X107486296Y-65770000D01*
X107507034Y-65940800D01*
X107568044Y-66101672D01*
X107568045Y-66101674D01*
X107568046Y-66101675D01*
X107665785Y-66243273D01*
X107794570Y-66357367D01*
X107946917Y-66437325D01*
X108113972Y-66478500D01*
X108286026Y-66478500D01*
X108286028Y-66478500D01*
X108453083Y-66437325D01*
X108605430Y-66357367D01*
X108734215Y-66243273D01*
X108831954Y-66101675D01*
X108892965Y-65940801D01*
X108913704Y-65770000D01*
X108892965Y-65599199D01*
X108831954Y-65438325D01*
X108734215Y-65296727D01*
X108605430Y-65182633D01*
X108453083Y-65102675D01*
X108286028Y-65061500D01*
X108113972Y-65061500D01*
X107946917Y-65102675D01*
X107946916Y-65102675D01*
X107946914Y-65102676D01*
X107794571Y-65182632D01*
X107665786Y-65296726D01*
X107568044Y-65438327D01*
X107507034Y-65599199D01*
X107486296Y-65770000D01*
X106800000Y-65770000D01*
X106800000Y-64275000D01*
X110911384Y-64275000D01*
X110931783Y-64456049D01*
X110991956Y-64628014D01*
X111088889Y-64782282D01*
X111217717Y-64911110D01*
X111217719Y-64911111D01*
X111371985Y-65008043D01*
X111543953Y-65068217D01*
X111725000Y-65088616D01*
X111906047Y-65068217D01*
X112078015Y-65008043D01*
X112232281Y-64911111D01*
X112232282Y-64911109D01*
X112273405Y-64869988D01*
X112329889Y-64837376D01*
X112395111Y-64837376D01*
X112451595Y-64869988D01*
X112492717Y-64911110D01*
X112492719Y-64911111D01*
X112646985Y-65008043D01*
X112818953Y-65068217D01*
X113000000Y-65088616D01*
X113181047Y-65068217D01*
X113353015Y-65008043D01*
X113507281Y-64911111D01*
X113507282Y-64911109D01*
X113548405Y-64869988D01*
X113604889Y-64837376D01*
X113670111Y-64837376D01*
X113726595Y-64869988D01*
X113767717Y-64911110D01*
X113767719Y-64911111D01*
X113921985Y-65008043D01*
X114093953Y-65068217D01*
X114275000Y-65088616D01*
X114456047Y-65068217D01*
X114628015Y-65008043D01*
X114782281Y-64911111D01*
X114911111Y-64782281D01*
X115008043Y-64628015D01*
X115068217Y-64456047D01*
X115088616Y-64275000D01*
X115068217Y-64093953D01*
X115008043Y-63921985D01*
X114911111Y-63767719D01*
X114911110Y-63767717D01*
X114869988Y-63726595D01*
X114837376Y-63670111D01*
X114837376Y-63604889D01*
X114869988Y-63548405D01*
X114911110Y-63507282D01*
X114978520Y-63400000D01*
X115008043Y-63353015D01*
X115068217Y-63181047D01*
X115088616Y-63000000D01*
X115068217Y-62818953D01*
X115055832Y-62783560D01*
X115008043Y-62646985D01*
X114911110Y-62492717D01*
X114869988Y-62451595D01*
X114837376Y-62395111D01*
X114837376Y-62329889D01*
X114869988Y-62273405D01*
X114911110Y-62232282D01*
X114942280Y-62182676D01*
X115008043Y-62078015D01*
X115068217Y-61906047D01*
X115088616Y-61725000D01*
X115068217Y-61543953D01*
X115008043Y-61371985D01*
X114911111Y-61217719D01*
X114911110Y-61217717D01*
X114782282Y-61088889D01*
X114628014Y-60991956D01*
X114456049Y-60931783D01*
X114275000Y-60911384D01*
X114093950Y-60931783D01*
X113921985Y-60991956D01*
X113767717Y-61088889D01*
X113726595Y-61130012D01*
X113670111Y-61162624D01*
X113604889Y-61162624D01*
X113548405Y-61130012D01*
X113507282Y-61088889D01*
X113353014Y-60991956D01*
X113181049Y-60931783D01*
X113000000Y-60911384D01*
X112818950Y-60931783D01*
X112646985Y-60991956D01*
X112492717Y-61088889D01*
X112451595Y-61130012D01*
X112395111Y-61162624D01*
X112329889Y-61162624D01*
X112273405Y-61130012D01*
X112232282Y-61088889D01*
X112078014Y-60991956D01*
X111906049Y-60931783D01*
X111725000Y-60911384D01*
X111543950Y-60931783D01*
X111371985Y-60991956D01*
X111217717Y-61088889D01*
X111088889Y-61217717D01*
X110991956Y-61371985D01*
X110931783Y-61543950D01*
X110911384Y-61724999D01*
X110931783Y-61906049D01*
X110991956Y-62078014D01*
X111088889Y-62232282D01*
X111130012Y-62273405D01*
X111162624Y-62329889D01*
X111162624Y-62395111D01*
X111130012Y-62451595D01*
X111088889Y-62492717D01*
X110991956Y-62646985D01*
X110931783Y-62818950D01*
X110911384Y-63000000D01*
X110931783Y-63181049D01*
X110991956Y-63353014D01*
X111088889Y-63507282D01*
X111130012Y-63548405D01*
X111162624Y-63604889D01*
X111162624Y-63670111D01*
X111130012Y-63726595D01*
X111088889Y-63767717D01*
X110991956Y-63921985D01*
X110931783Y-64093950D01*
X110911384Y-64275000D01*
X106800000Y-64275000D01*
X106800000Y-63400000D01*
X107241542Y-63400000D01*
X107261310Y-63575450D01*
X107319623Y-63742098D01*
X107413560Y-63891598D01*
X107538401Y-64016439D01*
X107538403Y-64016440D01*
X107538404Y-64016441D01*
X107687901Y-64110376D01*
X107854552Y-64168690D01*
X108030000Y-64188458D01*
X108205448Y-64168690D01*
X108372099Y-64110376D01*
X108521596Y-64016441D01*
X108646441Y-63891596D01*
X108740376Y-63742099D01*
X108798690Y-63575448D01*
X108818458Y-63400000D01*
X108798690Y-63224552D01*
X108740376Y-63057901D01*
X108646441Y-62908404D01*
X108646440Y-62908403D01*
X108646439Y-62908401D01*
X108521598Y-62783560D01*
X108372098Y-62689623D01*
X108205450Y-62631310D01*
X108030000Y-62611542D01*
X107854549Y-62631310D01*
X107687901Y-62689623D01*
X107538401Y-62783560D01*
X107413560Y-62908401D01*
X107319623Y-63057901D01*
X107261310Y-63224549D01*
X107241542Y-63400000D01*
X106800000Y-63400000D01*
X106800000Y-57876000D01*
X106816881Y-57813000D01*
X106863000Y-57766881D01*
X106926000Y-57750000D01*
X109431416Y-57750000D01*
X109489971Y-57764432D01*
G37*
G04 #@! TD.AperFunction*
M02*
