G04 #@! TF.GenerationSoftware,KiCad,Pcbnew,7.0.1-0*
G04 #@! TF.CreationDate,2023-04-02T15:36:46-05:00*
G04 #@! TF.ProjectId,V0_Display,56305f44-6973-4706-9c61-792e6b696361,rev?*
G04 #@! TF.SameCoordinates,Original*
G04 #@! TF.FileFunction,Soldermask,Top*
G04 #@! TF.FilePolarity,Negative*
%FSLAX46Y46*%
G04 Gerber Fmt 4.6, Leading zero omitted, Abs format (unit mm)*
G04 Created by KiCad (PCBNEW 7.0.1-0) date 2023-04-02 15:36:46*
%MOMM*%
%LPD*%
G01*
G04 APERTURE LIST*
G04 Aperture macros list*
%AMRoundRect*
0 Rectangle with rounded corners*
0 $1 Rounding radius*
0 $2 $3 $4 $5 $6 $7 $8 $9 X,Y pos of 4 corners*
0 Add a 4 corners polygon primitive as box body*
4,1,4,$2,$3,$4,$5,$6,$7,$8,$9,$2,$3,0*
0 Add four circle primitives for the rounded corners*
1,1,$1+$1,$2,$3*
1,1,$1+$1,$4,$5*
1,1,$1+$1,$6,$7*
1,1,$1+$1,$8,$9*
0 Add four rect primitives between the rounded corners*
20,1,$1+$1,$2,$3,$4,$5,0*
20,1,$1+$1,$4,$5,$6,$7,0*
20,1,$1+$1,$6,$7,$8,$9,0*
20,1,$1+$1,$8,$9,$2,$3,0*%
G04 Aperture macros list end*
%ADD10RoundRect,0.250000X0.275000X-0.200000X0.275000X0.200000X-0.275000X0.200000X-0.275000X-0.200000X0*%
%ADD11C,3.300000*%
%ADD12RoundRect,0.050000X-0.750000X-0.500000X0.750000X-0.500000X0.750000X0.500000X-0.750000X0.500000X0*%
%ADD13C,2.100000*%
%ADD14O,2.600000X4.100000*%
%ADD15C,1.624000*%
%ADD16RoundRect,0.190000X-0.140000X-0.170000X0.140000X-0.170000X0.140000X0.170000X-0.140000X0.170000X0*%
%ADD17RoundRect,0.185000X-0.135000X-0.185000X0.135000X-0.185000X0.135000X0.185000X-0.135000X0.185000X0*%
%ADD18RoundRect,0.190000X0.140000X0.170000X-0.140000X0.170000X-0.140000X-0.170000X0.140000X-0.170000X0*%
%ADD19RoundRect,0.185000X0.135000X0.185000X-0.135000X0.185000X-0.135000X-0.185000X0.135000X-0.185000X0*%
%ADD20RoundRect,0.190000X-0.170000X0.140000X-0.170000X-0.140000X0.170000X-0.140000X0.170000X0.140000X0*%
%ADD21RoundRect,0.190000X0.170000X-0.140000X0.170000X0.140000X-0.170000X0.140000X-0.170000X-0.140000X0*%
%ADD22RoundRect,0.050000X-0.850000X0.850000X-0.850000X-0.850000X0.850000X-0.850000X0.850000X0.850000X0*%
%ADD23O,1.800000X1.800000*%
%ADD24RoundRect,0.050000X0.850000X-0.850000X0.850000X0.850000X-0.850000X0.850000X-0.850000X-0.850000X0*%
%ADD25RoundRect,0.050000X-0.850000X-0.850000X0.850000X-0.850000X0.850000X0.850000X-0.850000X0.850000X0*%
%ADD26C,0.620000*%
%ADD27O,2.070000X1.020000*%
%ADD28O,1.970000X0.970000*%
G04 APERTURE END LIST*
D10*
X119360000Y-79085000D03*
X119360000Y-77435000D03*
D11*
X161170000Y-80650000D03*
X161170000Y-55650000D03*
D12*
X157470000Y-60550000D03*
X157470000Y-63750000D03*
X162370000Y-63750000D03*
X162370000Y-60550000D03*
D13*
X156670000Y-69900000D03*
X163170000Y-69900000D03*
X156670000Y-74400000D03*
X163170000Y-74400000D03*
X141920000Y-74650000D03*
X146920000Y-74650000D03*
X144420000Y-74650000D03*
D14*
X139340000Y-67150000D03*
X149500000Y-67150000D03*
D13*
X141920000Y-60150000D03*
X146920000Y-60150000D03*
D11*
X89170000Y-80650000D03*
X89170000Y-55650000D03*
D15*
X109660000Y-52850000D03*
X112200000Y-52850000D03*
X114740000Y-52850000D03*
X117280000Y-52850000D03*
D16*
X109890000Y-62450000D03*
X110850000Y-62450000D03*
D17*
X91810000Y-73050000D03*
X92830000Y-73050000D03*
D18*
X116100000Y-62750000D03*
X115140000Y-62750000D03*
D16*
X109890000Y-63450000D03*
X110850000Y-63450000D03*
D19*
X92830000Y-61150000D03*
X91810000Y-61150000D03*
D20*
X107080000Y-77510000D03*
X107080000Y-78470000D03*
D21*
X114000000Y-66080000D03*
X114000000Y-65120000D03*
D16*
X109890000Y-61450000D03*
X110850000Y-61450000D03*
D20*
X117320000Y-77070000D03*
X117320000Y-78030000D03*
D16*
X109890000Y-64450000D03*
X110850000Y-64450000D03*
X109890000Y-65450000D03*
X110850000Y-65450000D03*
X110610000Y-60400000D03*
X111570000Y-60400000D03*
D20*
X114000000Y-59870000D03*
X114000000Y-60830000D03*
D18*
X116080000Y-64050000D03*
X115120000Y-64050000D03*
D21*
X111880000Y-66080000D03*
X111880000Y-65120000D03*
D22*
X108795000Y-73120000D03*
D23*
X111335000Y-73120000D03*
X113875000Y-73120000D03*
X116415000Y-73120000D03*
X118955000Y-73120000D03*
D13*
X128975000Y-73145000D03*
X122475000Y-73145000D03*
X128975000Y-77645000D03*
X122475000Y-77645000D03*
D24*
X148300000Y-54260000D03*
D23*
X145760000Y-54260000D03*
D25*
X97220000Y-69550000D03*
D23*
X97220000Y-67010000D03*
X97220000Y-64470000D03*
X97220000Y-61930000D03*
D13*
X104720000Y-73145000D03*
X98220000Y-73145000D03*
X104720000Y-77645000D03*
X98220000Y-77645000D03*
D26*
X91600000Y-70020000D03*
X91600000Y-64240000D03*
D27*
X92100000Y-71450000D03*
D28*
X87920000Y-71450000D03*
X87920000Y-62810000D03*
D27*
X92100000Y-62810000D03*
M02*
