%TF.GenerationSoftware,KiCad,Pcbnew,7.0.1-0*%
%TF.CreationDate,2023-04-02T15:37:35-05:00*%
%TF.ProjectId,V0_Display,56305f44-6973-4706-9c61-792e6b696361,rev?*%
%TF.SameCoordinates,Original*%
%TF.FileFunction,Drillmap*%
%TF.FilePolarity,Positive*%
%FSLAX45Y45*%
G04 Gerber Fmt 4.5, Leading zero omitted, Abs format (unit mm)*
G04 Created by KiCad (PCBNEW 7.0.1-0) date 2023-04-02 15:37:35*
%MOMM*%
%LPD*%
G01*
G04 APERTURE LIST*
%ADD10C,0.050000*%
%ADD11C,0.200000*%
%ADD12C,0.065000*%
%ADD13C,0.320000*%
G04 APERTURE END LIST*
D10*
X8517000Y-8465000D02*
X8517000Y-4965000D01*
X8517000Y-4965000D02*
X16517000Y-4965000D01*
X16517000Y-8465000D02*
X8517000Y-8465000D01*
X16517000Y-4965000D02*
X16517000Y-8465000D01*
D11*
D12*
X9127500Y-6391500D02*
X9192500Y-6456500D01*
X9192500Y-6391500D02*
X9127500Y-6456500D01*
X9127500Y-6969500D02*
X9192500Y-7034500D01*
X9192500Y-6969500D02*
X9127500Y-7034500D01*
D13*
X9077000Y-5565000D02*
G75*
G03*
X9077000Y-5565000I-160000J0D01*
G01*
X9077000Y-8065000D02*
G75*
G03*
X9077000Y-8065000I-160000J0D01*
G01*
X16277000Y-5565000D02*
G75*
G03*
X16277000Y-5565000I-160000J0D01*
G01*
X16277000Y-8065000D02*
G75*
G03*
X16277000Y-8065000I-160000J0D01*
G01*
D11*
X8762119Y-8780024D02*
X8762119Y-8580024D01*
X8762119Y-8580024D02*
X8809738Y-8580024D01*
X8809738Y-8580024D02*
X8838310Y-8589548D01*
X8838310Y-8589548D02*
X8857357Y-8608595D01*
X8857357Y-8608595D02*
X8866881Y-8627643D01*
X8866881Y-8627643D02*
X8876405Y-8665738D01*
X8876405Y-8665738D02*
X8876405Y-8694310D01*
X8876405Y-8694310D02*
X8866881Y-8732405D01*
X8866881Y-8732405D02*
X8857357Y-8751452D01*
X8857357Y-8751452D02*
X8838310Y-8770500D01*
X8838310Y-8770500D02*
X8809738Y-8780024D01*
X8809738Y-8780024D02*
X8762119Y-8780024D01*
X8962119Y-8780024D02*
X8962119Y-8646690D01*
X8962119Y-8684786D02*
X8971643Y-8665738D01*
X8971643Y-8665738D02*
X8981167Y-8656214D01*
X8981167Y-8656214D02*
X9000214Y-8646690D01*
X9000214Y-8646690D02*
X9019262Y-8646690D01*
X9085929Y-8780024D02*
X9085929Y-8646690D01*
X9085929Y-8580024D02*
X9076405Y-8589548D01*
X9076405Y-8589548D02*
X9085929Y-8599071D01*
X9085929Y-8599071D02*
X9095452Y-8589548D01*
X9095452Y-8589548D02*
X9085929Y-8580024D01*
X9085929Y-8580024D02*
X9085929Y-8599071D01*
X9209738Y-8780024D02*
X9190690Y-8770500D01*
X9190690Y-8770500D02*
X9181167Y-8751452D01*
X9181167Y-8751452D02*
X9181167Y-8580024D01*
X9314500Y-8780024D02*
X9295452Y-8770500D01*
X9295452Y-8770500D02*
X9285929Y-8751452D01*
X9285929Y-8751452D02*
X9285929Y-8580024D01*
X9543071Y-8780024D02*
X9543071Y-8580024D01*
X9543071Y-8580024D02*
X9609738Y-8722881D01*
X9609738Y-8722881D02*
X9676405Y-8580024D01*
X9676405Y-8580024D02*
X9676405Y-8780024D01*
X9857357Y-8780024D02*
X9857357Y-8675262D01*
X9857357Y-8675262D02*
X9847833Y-8656214D01*
X9847833Y-8656214D02*
X9828786Y-8646690D01*
X9828786Y-8646690D02*
X9790690Y-8646690D01*
X9790690Y-8646690D02*
X9771643Y-8656214D01*
X9857357Y-8770500D02*
X9838310Y-8780024D01*
X9838310Y-8780024D02*
X9790690Y-8780024D01*
X9790690Y-8780024D02*
X9771643Y-8770500D01*
X9771643Y-8770500D02*
X9762119Y-8751452D01*
X9762119Y-8751452D02*
X9762119Y-8732405D01*
X9762119Y-8732405D02*
X9771643Y-8713357D01*
X9771643Y-8713357D02*
X9790690Y-8703833D01*
X9790690Y-8703833D02*
X9838310Y-8703833D01*
X9838310Y-8703833D02*
X9857357Y-8694310D01*
X9952595Y-8646690D02*
X9952595Y-8846690D01*
X9952595Y-8656214D02*
X9971643Y-8646690D01*
X9971643Y-8646690D02*
X10009738Y-8646690D01*
X10009738Y-8646690D02*
X10028786Y-8656214D01*
X10028786Y-8656214D02*
X10038310Y-8665738D01*
X10038310Y-8665738D02*
X10047833Y-8684786D01*
X10047833Y-8684786D02*
X10047833Y-8741929D01*
X10047833Y-8741929D02*
X10038310Y-8760976D01*
X10038310Y-8760976D02*
X10028786Y-8770500D01*
X10028786Y-8770500D02*
X10009738Y-8780024D01*
X10009738Y-8780024D02*
X9971643Y-8780024D01*
X9971643Y-8780024D02*
X9952595Y-8770500D01*
X10133548Y-8760976D02*
X10143071Y-8770500D01*
X10143071Y-8770500D02*
X10133548Y-8780024D01*
X10133548Y-8780024D02*
X10124024Y-8770500D01*
X10124024Y-8770500D02*
X10133548Y-8760976D01*
X10133548Y-8760976D02*
X10133548Y-8780024D01*
X10133548Y-8656214D02*
X10143071Y-8665738D01*
X10143071Y-8665738D02*
X10133548Y-8675262D01*
X10133548Y-8675262D02*
X10124024Y-8665738D01*
X10124024Y-8665738D02*
X10133548Y-8656214D01*
X10133548Y-8656214D02*
X10133548Y-8675262D01*
D12*
X8449500Y-9075000D02*
X8514500Y-9140000D01*
X8514500Y-9075000D02*
X8449500Y-9140000D01*
D11*
X8800214Y-9000024D02*
X8819262Y-9000024D01*
X8819262Y-9000024D02*
X8838310Y-9009548D01*
X8838310Y-9009548D02*
X8847833Y-9019071D01*
X8847833Y-9019071D02*
X8857357Y-9038119D01*
X8857357Y-9038119D02*
X8866881Y-9076214D01*
X8866881Y-9076214D02*
X8866881Y-9123833D01*
X8866881Y-9123833D02*
X8857357Y-9161929D01*
X8857357Y-9161929D02*
X8847833Y-9180976D01*
X8847833Y-9180976D02*
X8838310Y-9190500D01*
X8838310Y-9190500D02*
X8819262Y-9200024D01*
X8819262Y-9200024D02*
X8800214Y-9200024D01*
X8800214Y-9200024D02*
X8781167Y-9190500D01*
X8781167Y-9190500D02*
X8771643Y-9180976D01*
X8771643Y-9180976D02*
X8762119Y-9161929D01*
X8762119Y-9161929D02*
X8752595Y-9123833D01*
X8752595Y-9123833D02*
X8752595Y-9076214D01*
X8752595Y-9076214D02*
X8762119Y-9038119D01*
X8762119Y-9038119D02*
X8771643Y-9019071D01*
X8771643Y-9019071D02*
X8781167Y-9009548D01*
X8781167Y-9009548D02*
X8800214Y-9000024D01*
X8952595Y-9180976D02*
X8962119Y-9190500D01*
X8962119Y-9190500D02*
X8952595Y-9200024D01*
X8952595Y-9200024D02*
X8943071Y-9190500D01*
X8943071Y-9190500D02*
X8952595Y-9180976D01*
X8952595Y-9180976D02*
X8952595Y-9200024D01*
X9133548Y-9000024D02*
X9095452Y-9000024D01*
X9095452Y-9000024D02*
X9076405Y-9009548D01*
X9076405Y-9009548D02*
X9066881Y-9019071D01*
X9066881Y-9019071D02*
X9047833Y-9047643D01*
X9047833Y-9047643D02*
X9038310Y-9085738D01*
X9038310Y-9085738D02*
X9038310Y-9161929D01*
X9038310Y-9161929D02*
X9047833Y-9180976D01*
X9047833Y-9180976D02*
X9057357Y-9190500D01*
X9057357Y-9190500D02*
X9076405Y-9200024D01*
X9076405Y-9200024D02*
X9114500Y-9200024D01*
X9114500Y-9200024D02*
X9133548Y-9190500D01*
X9133548Y-9190500D02*
X9143071Y-9180976D01*
X9143071Y-9180976D02*
X9152595Y-9161929D01*
X9152595Y-9161929D02*
X9152595Y-9114310D01*
X9152595Y-9114310D02*
X9143071Y-9095262D01*
X9143071Y-9095262D02*
X9133548Y-9085738D01*
X9133548Y-9085738D02*
X9114500Y-9076214D01*
X9114500Y-9076214D02*
X9076405Y-9076214D01*
X9076405Y-9076214D02*
X9057357Y-9085738D01*
X9057357Y-9085738D02*
X9047833Y-9095262D01*
X9047833Y-9095262D02*
X9038310Y-9114310D01*
X9333548Y-9000024D02*
X9238310Y-9000024D01*
X9238310Y-9000024D02*
X9228786Y-9095262D01*
X9228786Y-9095262D02*
X9238310Y-9085738D01*
X9238310Y-9085738D02*
X9257357Y-9076214D01*
X9257357Y-9076214D02*
X9304976Y-9076214D01*
X9304976Y-9076214D02*
X9324024Y-9085738D01*
X9324024Y-9085738D02*
X9333548Y-9095262D01*
X9333548Y-9095262D02*
X9343071Y-9114310D01*
X9343071Y-9114310D02*
X9343071Y-9161929D01*
X9343071Y-9161929D02*
X9333548Y-9180976D01*
X9333548Y-9180976D02*
X9324024Y-9190500D01*
X9324024Y-9190500D02*
X9304976Y-9200024D01*
X9304976Y-9200024D02*
X9257357Y-9200024D01*
X9257357Y-9200024D02*
X9238310Y-9190500D01*
X9238310Y-9190500D02*
X9228786Y-9180976D01*
X9466881Y-9000024D02*
X9485929Y-9000024D01*
X9485929Y-9000024D02*
X9504976Y-9009548D01*
X9504976Y-9009548D02*
X9514500Y-9019071D01*
X9514500Y-9019071D02*
X9524024Y-9038119D01*
X9524024Y-9038119D02*
X9533548Y-9076214D01*
X9533548Y-9076214D02*
X9533548Y-9123833D01*
X9533548Y-9123833D02*
X9524024Y-9161929D01*
X9524024Y-9161929D02*
X9514500Y-9180976D01*
X9514500Y-9180976D02*
X9504976Y-9190500D01*
X9504976Y-9190500D02*
X9485929Y-9200024D01*
X9485929Y-9200024D02*
X9466881Y-9200024D01*
X9466881Y-9200024D02*
X9447833Y-9190500D01*
X9447833Y-9190500D02*
X9438310Y-9180976D01*
X9438310Y-9180976D02*
X9428786Y-9161929D01*
X9428786Y-9161929D02*
X9419262Y-9123833D01*
X9419262Y-9123833D02*
X9419262Y-9076214D01*
X9419262Y-9076214D02*
X9428786Y-9038119D01*
X9428786Y-9038119D02*
X9438310Y-9019071D01*
X9438310Y-9019071D02*
X9447833Y-9009548D01*
X9447833Y-9009548D02*
X9466881Y-9000024D01*
X9619262Y-9200024D02*
X9619262Y-9066690D01*
X9619262Y-9085738D02*
X9628786Y-9076214D01*
X9628786Y-9076214D02*
X9647833Y-9066690D01*
X9647833Y-9066690D02*
X9676405Y-9066690D01*
X9676405Y-9066690D02*
X9695452Y-9076214D01*
X9695452Y-9076214D02*
X9704976Y-9095262D01*
X9704976Y-9095262D02*
X9704976Y-9200024D01*
X9704976Y-9095262D02*
X9714500Y-9076214D01*
X9714500Y-9076214D02*
X9733548Y-9066690D01*
X9733548Y-9066690D02*
X9762119Y-9066690D01*
X9762119Y-9066690D02*
X9781167Y-9076214D01*
X9781167Y-9076214D02*
X9790691Y-9095262D01*
X9790691Y-9095262D02*
X9790691Y-9200024D01*
X9885929Y-9200024D02*
X9885929Y-9066690D01*
X9885929Y-9085738D02*
X9895452Y-9076214D01*
X9895452Y-9076214D02*
X9914500Y-9066690D01*
X9914500Y-9066690D02*
X9943072Y-9066690D01*
X9943072Y-9066690D02*
X9962119Y-9076214D01*
X9962119Y-9076214D02*
X9971643Y-9095262D01*
X9971643Y-9095262D02*
X9971643Y-9200024D01*
X9971643Y-9095262D02*
X9981167Y-9076214D01*
X9981167Y-9076214D02*
X10000214Y-9066690D01*
X10000214Y-9066690D02*
X10028786Y-9066690D01*
X10028786Y-9066690D02*
X10047833Y-9076214D01*
X10047833Y-9076214D02*
X10057357Y-9095262D01*
X10057357Y-9095262D02*
X10057357Y-9200024D01*
X10447833Y-8990500D02*
X10276405Y-9247643D01*
X10704976Y-9000024D02*
X10724024Y-9000024D01*
X10724024Y-9000024D02*
X10743072Y-9009548D01*
X10743072Y-9009548D02*
X10752595Y-9019071D01*
X10752595Y-9019071D02*
X10762119Y-9038119D01*
X10762119Y-9038119D02*
X10771643Y-9076214D01*
X10771643Y-9076214D02*
X10771643Y-9123833D01*
X10771643Y-9123833D02*
X10762119Y-9161929D01*
X10762119Y-9161929D02*
X10752595Y-9180976D01*
X10752595Y-9180976D02*
X10743072Y-9190500D01*
X10743072Y-9190500D02*
X10724024Y-9200024D01*
X10724024Y-9200024D02*
X10704976Y-9200024D01*
X10704976Y-9200024D02*
X10685929Y-9190500D01*
X10685929Y-9190500D02*
X10676405Y-9180976D01*
X10676405Y-9180976D02*
X10666881Y-9161929D01*
X10666881Y-9161929D02*
X10657357Y-9123833D01*
X10657357Y-9123833D02*
X10657357Y-9076214D01*
X10657357Y-9076214D02*
X10666881Y-9038119D01*
X10666881Y-9038119D02*
X10676405Y-9019071D01*
X10676405Y-9019071D02*
X10685929Y-9009548D01*
X10685929Y-9009548D02*
X10704976Y-9000024D01*
X10857357Y-9180976D02*
X10866881Y-9190500D01*
X10866881Y-9190500D02*
X10857357Y-9200024D01*
X10857357Y-9200024D02*
X10847834Y-9190500D01*
X10847834Y-9190500D02*
X10857357Y-9180976D01*
X10857357Y-9180976D02*
X10857357Y-9200024D01*
X10990691Y-9000024D02*
X11009738Y-9000024D01*
X11009738Y-9000024D02*
X11028786Y-9009548D01*
X11028786Y-9009548D02*
X11038310Y-9019071D01*
X11038310Y-9019071D02*
X11047834Y-9038119D01*
X11047834Y-9038119D02*
X11057357Y-9076214D01*
X11057357Y-9076214D02*
X11057357Y-9123833D01*
X11057357Y-9123833D02*
X11047834Y-9161929D01*
X11047834Y-9161929D02*
X11038310Y-9180976D01*
X11038310Y-9180976D02*
X11028786Y-9190500D01*
X11028786Y-9190500D02*
X11009738Y-9200024D01*
X11009738Y-9200024D02*
X10990691Y-9200024D01*
X10990691Y-9200024D02*
X10971643Y-9190500D01*
X10971643Y-9190500D02*
X10962119Y-9180976D01*
X10962119Y-9180976D02*
X10952595Y-9161929D01*
X10952595Y-9161929D02*
X10943072Y-9123833D01*
X10943072Y-9123833D02*
X10943072Y-9076214D01*
X10943072Y-9076214D02*
X10952595Y-9038119D01*
X10952595Y-9038119D02*
X10962119Y-9019071D01*
X10962119Y-9019071D02*
X10971643Y-9009548D01*
X10971643Y-9009548D02*
X10990691Y-9000024D01*
X11133548Y-9019071D02*
X11143072Y-9009548D01*
X11143072Y-9009548D02*
X11162119Y-9000024D01*
X11162119Y-9000024D02*
X11209738Y-9000024D01*
X11209738Y-9000024D02*
X11228786Y-9009548D01*
X11228786Y-9009548D02*
X11238310Y-9019071D01*
X11238310Y-9019071D02*
X11247833Y-9038119D01*
X11247833Y-9038119D02*
X11247833Y-9057167D01*
X11247833Y-9057167D02*
X11238310Y-9085738D01*
X11238310Y-9085738D02*
X11124024Y-9200024D01*
X11124024Y-9200024D02*
X11247833Y-9200024D01*
X11428786Y-9000024D02*
X11333548Y-9000024D01*
X11333548Y-9000024D02*
X11324024Y-9095262D01*
X11324024Y-9095262D02*
X11333548Y-9085738D01*
X11333548Y-9085738D02*
X11352595Y-9076214D01*
X11352595Y-9076214D02*
X11400214Y-9076214D01*
X11400214Y-9076214D02*
X11419262Y-9085738D01*
X11419262Y-9085738D02*
X11428786Y-9095262D01*
X11428786Y-9095262D02*
X11438310Y-9114310D01*
X11438310Y-9114310D02*
X11438310Y-9161929D01*
X11438310Y-9161929D02*
X11428786Y-9180976D01*
X11428786Y-9180976D02*
X11419262Y-9190500D01*
X11419262Y-9190500D02*
X11400214Y-9200024D01*
X11400214Y-9200024D02*
X11352595Y-9200024D01*
X11352595Y-9200024D02*
X11333548Y-9190500D01*
X11333548Y-9190500D02*
X11324024Y-9180976D01*
X11609738Y-9000024D02*
X11571643Y-9000024D01*
X11571643Y-9000024D02*
X11552595Y-9009548D01*
X11552595Y-9009548D02*
X11543072Y-9019071D01*
X11543072Y-9019071D02*
X11524024Y-9047643D01*
X11524024Y-9047643D02*
X11514500Y-9085738D01*
X11514500Y-9085738D02*
X11514500Y-9161929D01*
X11514500Y-9161929D02*
X11524024Y-9180976D01*
X11524024Y-9180976D02*
X11533548Y-9190500D01*
X11533548Y-9190500D02*
X11552595Y-9200024D01*
X11552595Y-9200024D02*
X11590691Y-9200024D01*
X11590691Y-9200024D02*
X11609738Y-9190500D01*
X11609738Y-9190500D02*
X11619262Y-9180976D01*
X11619262Y-9180976D02*
X11628786Y-9161929D01*
X11628786Y-9161929D02*
X11628786Y-9114310D01*
X11628786Y-9114310D02*
X11619262Y-9095262D01*
X11619262Y-9095262D02*
X11609738Y-9085738D01*
X11609738Y-9085738D02*
X11590691Y-9076214D01*
X11590691Y-9076214D02*
X11552595Y-9076214D01*
X11552595Y-9076214D02*
X11533548Y-9085738D01*
X11533548Y-9085738D02*
X11524024Y-9095262D01*
X11524024Y-9095262D02*
X11514500Y-9114310D01*
X11704976Y-9000024D02*
X11704976Y-9038119D01*
X11781167Y-9000024D02*
X11781167Y-9038119D01*
X12076405Y-9276214D02*
X12066881Y-9266690D01*
X12066881Y-9266690D02*
X12047834Y-9238119D01*
X12047834Y-9238119D02*
X12038310Y-9219071D01*
X12038310Y-9219071D02*
X12028786Y-9190500D01*
X12028786Y-9190500D02*
X12019262Y-9142881D01*
X12019262Y-9142881D02*
X12019262Y-9104786D01*
X12019262Y-9104786D02*
X12028786Y-9057167D01*
X12028786Y-9057167D02*
X12038310Y-9028595D01*
X12038310Y-9028595D02*
X12047834Y-9009548D01*
X12047834Y-9009548D02*
X12066881Y-8980976D01*
X12066881Y-8980976D02*
X12076405Y-8971452D01*
X12143072Y-9019071D02*
X12152595Y-9009548D01*
X12152595Y-9009548D02*
X12171643Y-9000024D01*
X12171643Y-9000024D02*
X12219262Y-9000024D01*
X12219262Y-9000024D02*
X12238310Y-9009548D01*
X12238310Y-9009548D02*
X12247834Y-9019071D01*
X12247834Y-9019071D02*
X12257357Y-9038119D01*
X12257357Y-9038119D02*
X12257357Y-9057167D01*
X12257357Y-9057167D02*
X12247834Y-9085738D01*
X12247834Y-9085738D02*
X12133548Y-9200024D01*
X12133548Y-9200024D02*
X12257357Y-9200024D01*
X12495453Y-9200024D02*
X12495453Y-9000024D01*
X12581167Y-9200024D02*
X12581167Y-9095262D01*
X12581167Y-9095262D02*
X12571643Y-9076214D01*
X12571643Y-9076214D02*
X12552596Y-9066690D01*
X12552596Y-9066690D02*
X12524024Y-9066690D01*
X12524024Y-9066690D02*
X12504976Y-9076214D01*
X12504976Y-9076214D02*
X12495453Y-9085738D01*
X12704976Y-9200024D02*
X12685929Y-9190500D01*
X12685929Y-9190500D02*
X12676405Y-9180976D01*
X12676405Y-9180976D02*
X12666881Y-9161929D01*
X12666881Y-9161929D02*
X12666881Y-9104786D01*
X12666881Y-9104786D02*
X12676405Y-9085738D01*
X12676405Y-9085738D02*
X12685929Y-9076214D01*
X12685929Y-9076214D02*
X12704976Y-9066690D01*
X12704976Y-9066690D02*
X12733548Y-9066690D01*
X12733548Y-9066690D02*
X12752596Y-9076214D01*
X12752596Y-9076214D02*
X12762119Y-9085738D01*
X12762119Y-9085738D02*
X12771643Y-9104786D01*
X12771643Y-9104786D02*
X12771643Y-9161929D01*
X12771643Y-9161929D02*
X12762119Y-9180976D01*
X12762119Y-9180976D02*
X12752596Y-9190500D01*
X12752596Y-9190500D02*
X12733548Y-9200024D01*
X12733548Y-9200024D02*
X12704976Y-9200024D01*
X12885929Y-9200024D02*
X12866881Y-9190500D01*
X12866881Y-9190500D02*
X12857357Y-9171452D01*
X12857357Y-9171452D02*
X12857357Y-9000024D01*
X13038310Y-9190500D02*
X13019262Y-9200024D01*
X13019262Y-9200024D02*
X12981167Y-9200024D01*
X12981167Y-9200024D02*
X12962119Y-9190500D01*
X12962119Y-9190500D02*
X12952596Y-9171452D01*
X12952596Y-9171452D02*
X12952596Y-9095262D01*
X12952596Y-9095262D02*
X12962119Y-9076214D01*
X12962119Y-9076214D02*
X12981167Y-9066690D01*
X12981167Y-9066690D02*
X13019262Y-9066690D01*
X13019262Y-9066690D02*
X13038310Y-9076214D01*
X13038310Y-9076214D02*
X13047834Y-9095262D01*
X13047834Y-9095262D02*
X13047834Y-9114310D01*
X13047834Y-9114310D02*
X12952596Y-9133357D01*
X13124024Y-9190500D02*
X13143072Y-9200024D01*
X13143072Y-9200024D02*
X13181167Y-9200024D01*
X13181167Y-9200024D02*
X13200215Y-9190500D01*
X13200215Y-9190500D02*
X13209738Y-9171452D01*
X13209738Y-9171452D02*
X13209738Y-9161929D01*
X13209738Y-9161929D02*
X13200215Y-9142881D01*
X13200215Y-9142881D02*
X13181167Y-9133357D01*
X13181167Y-9133357D02*
X13152596Y-9133357D01*
X13152596Y-9133357D02*
X13133548Y-9123833D01*
X13133548Y-9123833D02*
X13124024Y-9104786D01*
X13124024Y-9104786D02*
X13124024Y-9095262D01*
X13124024Y-9095262D02*
X13133548Y-9076214D01*
X13133548Y-9076214D02*
X13152596Y-9066690D01*
X13152596Y-9066690D02*
X13181167Y-9066690D01*
X13181167Y-9066690D02*
X13200215Y-9076214D01*
X13276405Y-9276214D02*
X13285929Y-9266690D01*
X13285929Y-9266690D02*
X13304977Y-9238119D01*
X13304977Y-9238119D02*
X13314500Y-9219071D01*
X13314500Y-9219071D02*
X13324024Y-9190500D01*
X13324024Y-9190500D02*
X13333548Y-9142881D01*
X13333548Y-9142881D02*
X13333548Y-9104786D01*
X13333548Y-9104786D02*
X13324024Y-9057167D01*
X13324024Y-9057167D02*
X13314500Y-9028595D01*
X13314500Y-9028595D02*
X13304977Y-9009548D01*
X13304977Y-9009548D02*
X13285929Y-8980976D01*
X13285929Y-8980976D02*
X13276405Y-8971452D01*
X13638310Y-9276214D02*
X13628786Y-9266690D01*
X13628786Y-9266690D02*
X13609738Y-9238119D01*
X13609738Y-9238119D02*
X13600215Y-9219071D01*
X13600215Y-9219071D02*
X13590691Y-9190500D01*
X13590691Y-9190500D02*
X13581167Y-9142881D01*
X13581167Y-9142881D02*
X13581167Y-9104786D01*
X13581167Y-9104786D02*
X13590691Y-9057167D01*
X13590691Y-9057167D02*
X13600215Y-9028595D01*
X13600215Y-9028595D02*
X13609738Y-9009548D01*
X13609738Y-9009548D02*
X13628786Y-8980976D01*
X13628786Y-8980976D02*
X13638310Y-8971452D01*
X13714500Y-9066690D02*
X13714500Y-9200024D01*
X13714500Y-9085738D02*
X13724024Y-9076214D01*
X13724024Y-9076214D02*
X13743072Y-9066690D01*
X13743072Y-9066690D02*
X13771643Y-9066690D01*
X13771643Y-9066690D02*
X13790691Y-9076214D01*
X13790691Y-9076214D02*
X13800215Y-9095262D01*
X13800215Y-9095262D02*
X13800215Y-9200024D01*
X13924024Y-9200024D02*
X13904977Y-9190500D01*
X13904977Y-9190500D02*
X13895453Y-9180976D01*
X13895453Y-9180976D02*
X13885929Y-9161929D01*
X13885929Y-9161929D02*
X13885929Y-9104786D01*
X13885929Y-9104786D02*
X13895453Y-9085738D01*
X13895453Y-9085738D02*
X13904977Y-9076214D01*
X13904977Y-9076214D02*
X13924024Y-9066690D01*
X13924024Y-9066690D02*
X13952596Y-9066690D01*
X13952596Y-9066690D02*
X13971643Y-9076214D01*
X13971643Y-9076214D02*
X13981167Y-9085738D01*
X13981167Y-9085738D02*
X13990691Y-9104786D01*
X13990691Y-9104786D02*
X13990691Y-9161929D01*
X13990691Y-9161929D02*
X13981167Y-9180976D01*
X13981167Y-9180976D02*
X13971643Y-9190500D01*
X13971643Y-9190500D02*
X13952596Y-9200024D01*
X13952596Y-9200024D02*
X13924024Y-9200024D01*
X14047834Y-9066690D02*
X14124024Y-9066690D01*
X14076405Y-9000024D02*
X14076405Y-9171452D01*
X14076405Y-9171452D02*
X14085929Y-9190500D01*
X14085929Y-9190500D02*
X14104977Y-9200024D01*
X14104977Y-9200024D02*
X14124024Y-9200024D01*
X14343072Y-9066690D02*
X14343072Y-9266690D01*
X14343072Y-9076214D02*
X14362119Y-9066690D01*
X14362119Y-9066690D02*
X14400215Y-9066690D01*
X14400215Y-9066690D02*
X14419262Y-9076214D01*
X14419262Y-9076214D02*
X14428786Y-9085738D01*
X14428786Y-9085738D02*
X14438310Y-9104786D01*
X14438310Y-9104786D02*
X14438310Y-9161929D01*
X14438310Y-9161929D02*
X14428786Y-9180976D01*
X14428786Y-9180976D02*
X14419262Y-9190500D01*
X14419262Y-9190500D02*
X14400215Y-9200024D01*
X14400215Y-9200024D02*
X14362119Y-9200024D01*
X14362119Y-9200024D02*
X14343072Y-9190500D01*
X14552596Y-9200024D02*
X14533548Y-9190500D01*
X14533548Y-9190500D02*
X14524024Y-9171452D01*
X14524024Y-9171452D02*
X14524024Y-9000024D01*
X14714500Y-9200024D02*
X14714500Y-9095262D01*
X14714500Y-9095262D02*
X14704977Y-9076214D01*
X14704977Y-9076214D02*
X14685929Y-9066690D01*
X14685929Y-9066690D02*
X14647834Y-9066690D01*
X14647834Y-9066690D02*
X14628786Y-9076214D01*
X14714500Y-9190500D02*
X14695453Y-9200024D01*
X14695453Y-9200024D02*
X14647834Y-9200024D01*
X14647834Y-9200024D02*
X14628786Y-9190500D01*
X14628786Y-9190500D02*
X14619262Y-9171452D01*
X14619262Y-9171452D02*
X14619262Y-9152405D01*
X14619262Y-9152405D02*
X14628786Y-9133357D01*
X14628786Y-9133357D02*
X14647834Y-9123833D01*
X14647834Y-9123833D02*
X14695453Y-9123833D01*
X14695453Y-9123833D02*
X14714500Y-9114310D01*
X14781167Y-9066690D02*
X14857358Y-9066690D01*
X14809739Y-9000024D02*
X14809739Y-9171452D01*
X14809739Y-9171452D02*
X14819262Y-9190500D01*
X14819262Y-9190500D02*
X14838310Y-9200024D01*
X14838310Y-9200024D02*
X14857358Y-9200024D01*
X15000215Y-9190500D02*
X14981167Y-9200024D01*
X14981167Y-9200024D02*
X14943072Y-9200024D01*
X14943072Y-9200024D02*
X14924024Y-9190500D01*
X14924024Y-9190500D02*
X14914500Y-9171452D01*
X14914500Y-9171452D02*
X14914500Y-9095262D01*
X14914500Y-9095262D02*
X14924024Y-9076214D01*
X14924024Y-9076214D02*
X14943072Y-9066690D01*
X14943072Y-9066690D02*
X14981167Y-9066690D01*
X14981167Y-9066690D02*
X15000215Y-9076214D01*
X15000215Y-9076214D02*
X15009739Y-9095262D01*
X15009739Y-9095262D02*
X15009739Y-9114310D01*
X15009739Y-9114310D02*
X14914500Y-9133357D01*
X15181167Y-9200024D02*
X15181167Y-9000024D01*
X15181167Y-9190500D02*
X15162120Y-9200024D01*
X15162120Y-9200024D02*
X15124024Y-9200024D01*
X15124024Y-9200024D02*
X15104977Y-9190500D01*
X15104977Y-9190500D02*
X15095453Y-9180976D01*
X15095453Y-9180976D02*
X15085929Y-9161929D01*
X15085929Y-9161929D02*
X15085929Y-9104786D01*
X15085929Y-9104786D02*
X15095453Y-9085738D01*
X15095453Y-9085738D02*
X15104977Y-9076214D01*
X15104977Y-9076214D02*
X15124024Y-9066690D01*
X15124024Y-9066690D02*
X15162120Y-9066690D01*
X15162120Y-9066690D02*
X15181167Y-9076214D01*
X15257358Y-9276214D02*
X15266881Y-9266690D01*
X15266881Y-9266690D02*
X15285929Y-9238119D01*
X15285929Y-9238119D02*
X15295453Y-9219071D01*
X15295453Y-9219071D02*
X15304977Y-9190500D01*
X15304977Y-9190500D02*
X15314500Y-9142881D01*
X15314500Y-9142881D02*
X15314500Y-9104786D01*
X15314500Y-9104786D02*
X15304977Y-9057167D01*
X15304977Y-9057167D02*
X15295453Y-9028595D01*
X15295453Y-9028595D02*
X15285929Y-9009548D01*
X15285929Y-9009548D02*
X15266881Y-8980976D01*
X15266881Y-8980976D02*
X15257358Y-8971452D01*
X8514500Y-9371500D02*
G75*
G03*
X8514500Y-9371500I-100000J0D01*
G01*
X8743071Y-9264024D02*
X8866881Y-9264024D01*
X8866881Y-9264024D02*
X8800214Y-9340214D01*
X8800214Y-9340214D02*
X8828786Y-9340214D01*
X8828786Y-9340214D02*
X8847833Y-9349738D01*
X8847833Y-9349738D02*
X8857357Y-9359262D01*
X8857357Y-9359262D02*
X8866881Y-9378310D01*
X8866881Y-9378310D02*
X8866881Y-9425929D01*
X8866881Y-9425929D02*
X8857357Y-9444976D01*
X8857357Y-9444976D02*
X8847833Y-9454500D01*
X8847833Y-9454500D02*
X8828786Y-9464024D01*
X8828786Y-9464024D02*
X8771643Y-9464024D01*
X8771643Y-9464024D02*
X8752595Y-9454500D01*
X8752595Y-9454500D02*
X8743071Y-9444976D01*
X8952595Y-9444976D02*
X8962119Y-9454500D01*
X8962119Y-9454500D02*
X8952595Y-9464024D01*
X8952595Y-9464024D02*
X8943071Y-9454500D01*
X8943071Y-9454500D02*
X8952595Y-9444976D01*
X8952595Y-9444976D02*
X8952595Y-9464024D01*
X9038310Y-9283071D02*
X9047833Y-9273548D01*
X9047833Y-9273548D02*
X9066881Y-9264024D01*
X9066881Y-9264024D02*
X9114500Y-9264024D01*
X9114500Y-9264024D02*
X9133548Y-9273548D01*
X9133548Y-9273548D02*
X9143071Y-9283071D01*
X9143071Y-9283071D02*
X9152595Y-9302119D01*
X9152595Y-9302119D02*
X9152595Y-9321167D01*
X9152595Y-9321167D02*
X9143071Y-9349738D01*
X9143071Y-9349738D02*
X9028786Y-9464024D01*
X9028786Y-9464024D02*
X9152595Y-9464024D01*
X9276405Y-9264024D02*
X9295452Y-9264024D01*
X9295452Y-9264024D02*
X9314500Y-9273548D01*
X9314500Y-9273548D02*
X9324024Y-9283071D01*
X9324024Y-9283071D02*
X9333548Y-9302119D01*
X9333548Y-9302119D02*
X9343071Y-9340214D01*
X9343071Y-9340214D02*
X9343071Y-9387833D01*
X9343071Y-9387833D02*
X9333548Y-9425929D01*
X9333548Y-9425929D02*
X9324024Y-9444976D01*
X9324024Y-9444976D02*
X9314500Y-9454500D01*
X9314500Y-9454500D02*
X9295452Y-9464024D01*
X9295452Y-9464024D02*
X9276405Y-9464024D01*
X9276405Y-9464024D02*
X9257357Y-9454500D01*
X9257357Y-9454500D02*
X9247833Y-9444976D01*
X9247833Y-9444976D02*
X9238310Y-9425929D01*
X9238310Y-9425929D02*
X9228786Y-9387833D01*
X9228786Y-9387833D02*
X9228786Y-9340214D01*
X9228786Y-9340214D02*
X9238310Y-9302119D01*
X9238310Y-9302119D02*
X9247833Y-9283071D01*
X9247833Y-9283071D02*
X9257357Y-9273548D01*
X9257357Y-9273548D02*
X9276405Y-9264024D01*
X9466881Y-9264024D02*
X9485929Y-9264024D01*
X9485929Y-9264024D02*
X9504976Y-9273548D01*
X9504976Y-9273548D02*
X9514500Y-9283071D01*
X9514500Y-9283071D02*
X9524024Y-9302119D01*
X9524024Y-9302119D02*
X9533548Y-9340214D01*
X9533548Y-9340214D02*
X9533548Y-9387833D01*
X9533548Y-9387833D02*
X9524024Y-9425929D01*
X9524024Y-9425929D02*
X9514500Y-9444976D01*
X9514500Y-9444976D02*
X9504976Y-9454500D01*
X9504976Y-9454500D02*
X9485929Y-9464024D01*
X9485929Y-9464024D02*
X9466881Y-9464024D01*
X9466881Y-9464024D02*
X9447833Y-9454500D01*
X9447833Y-9454500D02*
X9438310Y-9444976D01*
X9438310Y-9444976D02*
X9428786Y-9425929D01*
X9428786Y-9425929D02*
X9419262Y-9387833D01*
X9419262Y-9387833D02*
X9419262Y-9340214D01*
X9419262Y-9340214D02*
X9428786Y-9302119D01*
X9428786Y-9302119D02*
X9438310Y-9283071D01*
X9438310Y-9283071D02*
X9447833Y-9273548D01*
X9447833Y-9273548D02*
X9466881Y-9264024D01*
X9619262Y-9464024D02*
X9619262Y-9330690D01*
X9619262Y-9349738D02*
X9628786Y-9340214D01*
X9628786Y-9340214D02*
X9647833Y-9330690D01*
X9647833Y-9330690D02*
X9676405Y-9330690D01*
X9676405Y-9330690D02*
X9695452Y-9340214D01*
X9695452Y-9340214D02*
X9704976Y-9359262D01*
X9704976Y-9359262D02*
X9704976Y-9464024D01*
X9704976Y-9359262D02*
X9714500Y-9340214D01*
X9714500Y-9340214D02*
X9733548Y-9330690D01*
X9733548Y-9330690D02*
X9762119Y-9330690D01*
X9762119Y-9330690D02*
X9781167Y-9340214D01*
X9781167Y-9340214D02*
X9790691Y-9359262D01*
X9790691Y-9359262D02*
X9790691Y-9464024D01*
X9885929Y-9464024D02*
X9885929Y-9330690D01*
X9885929Y-9349738D02*
X9895452Y-9340214D01*
X9895452Y-9340214D02*
X9914500Y-9330690D01*
X9914500Y-9330690D02*
X9943072Y-9330690D01*
X9943072Y-9330690D02*
X9962119Y-9340214D01*
X9962119Y-9340214D02*
X9971643Y-9359262D01*
X9971643Y-9359262D02*
X9971643Y-9464024D01*
X9971643Y-9359262D02*
X9981167Y-9340214D01*
X9981167Y-9340214D02*
X10000214Y-9330690D01*
X10000214Y-9330690D02*
X10028786Y-9330690D01*
X10028786Y-9330690D02*
X10047833Y-9340214D01*
X10047833Y-9340214D02*
X10057357Y-9359262D01*
X10057357Y-9359262D02*
X10057357Y-9464024D01*
X10447833Y-9254500D02*
X10276405Y-9511643D01*
X10704976Y-9264024D02*
X10724024Y-9264024D01*
X10724024Y-9264024D02*
X10743072Y-9273548D01*
X10743072Y-9273548D02*
X10752595Y-9283071D01*
X10752595Y-9283071D02*
X10762119Y-9302119D01*
X10762119Y-9302119D02*
X10771643Y-9340214D01*
X10771643Y-9340214D02*
X10771643Y-9387833D01*
X10771643Y-9387833D02*
X10762119Y-9425929D01*
X10762119Y-9425929D02*
X10752595Y-9444976D01*
X10752595Y-9444976D02*
X10743072Y-9454500D01*
X10743072Y-9454500D02*
X10724024Y-9464024D01*
X10724024Y-9464024D02*
X10704976Y-9464024D01*
X10704976Y-9464024D02*
X10685929Y-9454500D01*
X10685929Y-9454500D02*
X10676405Y-9444976D01*
X10676405Y-9444976D02*
X10666881Y-9425929D01*
X10666881Y-9425929D02*
X10657357Y-9387833D01*
X10657357Y-9387833D02*
X10657357Y-9340214D01*
X10657357Y-9340214D02*
X10666881Y-9302119D01*
X10666881Y-9302119D02*
X10676405Y-9283071D01*
X10676405Y-9283071D02*
X10685929Y-9273548D01*
X10685929Y-9273548D02*
X10704976Y-9264024D01*
X10857357Y-9444976D02*
X10866881Y-9454500D01*
X10866881Y-9454500D02*
X10857357Y-9464024D01*
X10857357Y-9464024D02*
X10847834Y-9454500D01*
X10847834Y-9454500D02*
X10857357Y-9444976D01*
X10857357Y-9444976D02*
X10857357Y-9464024D01*
X11057357Y-9464024D02*
X10943072Y-9464024D01*
X11000214Y-9464024D02*
X11000214Y-9264024D01*
X11000214Y-9264024D02*
X10981167Y-9292595D01*
X10981167Y-9292595D02*
X10962119Y-9311643D01*
X10962119Y-9311643D02*
X10943072Y-9321167D01*
X11133548Y-9283071D02*
X11143072Y-9273548D01*
X11143072Y-9273548D02*
X11162119Y-9264024D01*
X11162119Y-9264024D02*
X11209738Y-9264024D01*
X11209738Y-9264024D02*
X11228786Y-9273548D01*
X11228786Y-9273548D02*
X11238310Y-9283071D01*
X11238310Y-9283071D02*
X11247833Y-9302119D01*
X11247833Y-9302119D02*
X11247833Y-9321167D01*
X11247833Y-9321167D02*
X11238310Y-9349738D01*
X11238310Y-9349738D02*
X11124024Y-9464024D01*
X11124024Y-9464024D02*
X11247833Y-9464024D01*
X11419262Y-9264024D02*
X11381167Y-9264024D01*
X11381167Y-9264024D02*
X11362119Y-9273548D01*
X11362119Y-9273548D02*
X11352595Y-9283071D01*
X11352595Y-9283071D02*
X11333548Y-9311643D01*
X11333548Y-9311643D02*
X11324024Y-9349738D01*
X11324024Y-9349738D02*
X11324024Y-9425929D01*
X11324024Y-9425929D02*
X11333548Y-9444976D01*
X11333548Y-9444976D02*
X11343072Y-9454500D01*
X11343072Y-9454500D02*
X11362119Y-9464024D01*
X11362119Y-9464024D02*
X11400214Y-9464024D01*
X11400214Y-9464024D02*
X11419262Y-9454500D01*
X11419262Y-9454500D02*
X11428786Y-9444976D01*
X11428786Y-9444976D02*
X11438310Y-9425929D01*
X11438310Y-9425929D02*
X11438310Y-9378310D01*
X11438310Y-9378310D02*
X11428786Y-9359262D01*
X11428786Y-9359262D02*
X11419262Y-9349738D01*
X11419262Y-9349738D02*
X11400214Y-9340214D01*
X11400214Y-9340214D02*
X11362119Y-9340214D01*
X11362119Y-9340214D02*
X11343072Y-9349738D01*
X11343072Y-9349738D02*
X11333548Y-9359262D01*
X11333548Y-9359262D02*
X11324024Y-9378310D01*
X11562119Y-9264024D02*
X11581167Y-9264024D01*
X11581167Y-9264024D02*
X11600214Y-9273548D01*
X11600214Y-9273548D02*
X11609738Y-9283071D01*
X11609738Y-9283071D02*
X11619262Y-9302119D01*
X11619262Y-9302119D02*
X11628786Y-9340214D01*
X11628786Y-9340214D02*
X11628786Y-9387833D01*
X11628786Y-9387833D02*
X11619262Y-9425929D01*
X11619262Y-9425929D02*
X11609738Y-9444976D01*
X11609738Y-9444976D02*
X11600214Y-9454500D01*
X11600214Y-9454500D02*
X11581167Y-9464024D01*
X11581167Y-9464024D02*
X11562119Y-9464024D01*
X11562119Y-9464024D02*
X11543072Y-9454500D01*
X11543072Y-9454500D02*
X11533548Y-9444976D01*
X11533548Y-9444976D02*
X11524024Y-9425929D01*
X11524024Y-9425929D02*
X11514500Y-9387833D01*
X11514500Y-9387833D02*
X11514500Y-9340214D01*
X11514500Y-9340214D02*
X11524024Y-9302119D01*
X11524024Y-9302119D02*
X11533548Y-9283071D01*
X11533548Y-9283071D02*
X11543072Y-9273548D01*
X11543072Y-9273548D02*
X11562119Y-9264024D01*
X11704976Y-9264024D02*
X11704976Y-9302119D01*
X11781167Y-9264024D02*
X11781167Y-9302119D01*
X12076405Y-9540214D02*
X12066881Y-9530690D01*
X12066881Y-9530690D02*
X12047834Y-9502119D01*
X12047834Y-9502119D02*
X12038310Y-9483071D01*
X12038310Y-9483071D02*
X12028786Y-9454500D01*
X12028786Y-9454500D02*
X12019262Y-9406881D01*
X12019262Y-9406881D02*
X12019262Y-9368786D01*
X12019262Y-9368786D02*
X12028786Y-9321167D01*
X12028786Y-9321167D02*
X12038310Y-9292595D01*
X12038310Y-9292595D02*
X12047834Y-9273548D01*
X12047834Y-9273548D02*
X12066881Y-9244976D01*
X12066881Y-9244976D02*
X12076405Y-9235452D01*
X12238310Y-9330690D02*
X12238310Y-9464024D01*
X12190691Y-9254500D02*
X12143072Y-9397357D01*
X12143072Y-9397357D02*
X12266881Y-9397357D01*
X12495453Y-9464024D02*
X12495453Y-9264024D01*
X12581167Y-9464024D02*
X12581167Y-9359262D01*
X12581167Y-9359262D02*
X12571643Y-9340214D01*
X12571643Y-9340214D02*
X12552596Y-9330690D01*
X12552596Y-9330690D02*
X12524024Y-9330690D01*
X12524024Y-9330690D02*
X12504976Y-9340214D01*
X12504976Y-9340214D02*
X12495453Y-9349738D01*
X12704976Y-9464024D02*
X12685929Y-9454500D01*
X12685929Y-9454500D02*
X12676405Y-9444976D01*
X12676405Y-9444976D02*
X12666881Y-9425929D01*
X12666881Y-9425929D02*
X12666881Y-9368786D01*
X12666881Y-9368786D02*
X12676405Y-9349738D01*
X12676405Y-9349738D02*
X12685929Y-9340214D01*
X12685929Y-9340214D02*
X12704976Y-9330690D01*
X12704976Y-9330690D02*
X12733548Y-9330690D01*
X12733548Y-9330690D02*
X12752596Y-9340214D01*
X12752596Y-9340214D02*
X12762119Y-9349738D01*
X12762119Y-9349738D02*
X12771643Y-9368786D01*
X12771643Y-9368786D02*
X12771643Y-9425929D01*
X12771643Y-9425929D02*
X12762119Y-9444976D01*
X12762119Y-9444976D02*
X12752596Y-9454500D01*
X12752596Y-9454500D02*
X12733548Y-9464024D01*
X12733548Y-9464024D02*
X12704976Y-9464024D01*
X12885929Y-9464024D02*
X12866881Y-9454500D01*
X12866881Y-9454500D02*
X12857357Y-9435452D01*
X12857357Y-9435452D02*
X12857357Y-9264024D01*
X13038310Y-9454500D02*
X13019262Y-9464024D01*
X13019262Y-9464024D02*
X12981167Y-9464024D01*
X12981167Y-9464024D02*
X12962119Y-9454500D01*
X12962119Y-9454500D02*
X12952596Y-9435452D01*
X12952596Y-9435452D02*
X12952596Y-9359262D01*
X12952596Y-9359262D02*
X12962119Y-9340214D01*
X12962119Y-9340214D02*
X12981167Y-9330690D01*
X12981167Y-9330690D02*
X13019262Y-9330690D01*
X13019262Y-9330690D02*
X13038310Y-9340214D01*
X13038310Y-9340214D02*
X13047834Y-9359262D01*
X13047834Y-9359262D02*
X13047834Y-9378310D01*
X13047834Y-9378310D02*
X12952596Y-9397357D01*
X13124024Y-9454500D02*
X13143072Y-9464024D01*
X13143072Y-9464024D02*
X13181167Y-9464024D01*
X13181167Y-9464024D02*
X13200215Y-9454500D01*
X13200215Y-9454500D02*
X13209738Y-9435452D01*
X13209738Y-9435452D02*
X13209738Y-9425929D01*
X13209738Y-9425929D02*
X13200215Y-9406881D01*
X13200215Y-9406881D02*
X13181167Y-9397357D01*
X13181167Y-9397357D02*
X13152596Y-9397357D01*
X13152596Y-9397357D02*
X13133548Y-9387833D01*
X13133548Y-9387833D02*
X13124024Y-9368786D01*
X13124024Y-9368786D02*
X13124024Y-9359262D01*
X13124024Y-9359262D02*
X13133548Y-9340214D01*
X13133548Y-9340214D02*
X13152596Y-9330690D01*
X13152596Y-9330690D02*
X13181167Y-9330690D01*
X13181167Y-9330690D02*
X13200215Y-9340214D01*
X13276405Y-9540214D02*
X13285929Y-9530690D01*
X13285929Y-9530690D02*
X13304977Y-9502119D01*
X13304977Y-9502119D02*
X13314500Y-9483071D01*
X13314500Y-9483071D02*
X13324024Y-9454500D01*
X13324024Y-9454500D02*
X13333548Y-9406881D01*
X13333548Y-9406881D02*
X13333548Y-9368786D01*
X13333548Y-9368786D02*
X13324024Y-9321167D01*
X13324024Y-9321167D02*
X13314500Y-9292595D01*
X13314500Y-9292595D02*
X13304977Y-9273548D01*
X13304977Y-9273548D02*
X13285929Y-9244976D01*
X13285929Y-9244976D02*
X13276405Y-9235452D01*
X13638310Y-9540214D02*
X13628786Y-9530690D01*
X13628786Y-9530690D02*
X13609738Y-9502119D01*
X13609738Y-9502119D02*
X13600215Y-9483071D01*
X13600215Y-9483071D02*
X13590691Y-9454500D01*
X13590691Y-9454500D02*
X13581167Y-9406881D01*
X13581167Y-9406881D02*
X13581167Y-9368786D01*
X13581167Y-9368786D02*
X13590691Y-9321167D01*
X13590691Y-9321167D02*
X13600215Y-9292595D01*
X13600215Y-9292595D02*
X13609738Y-9273548D01*
X13609738Y-9273548D02*
X13628786Y-9244976D01*
X13628786Y-9244976D02*
X13638310Y-9235452D01*
X13714500Y-9330690D02*
X13714500Y-9464024D01*
X13714500Y-9349738D02*
X13724024Y-9340214D01*
X13724024Y-9340214D02*
X13743072Y-9330690D01*
X13743072Y-9330690D02*
X13771643Y-9330690D01*
X13771643Y-9330690D02*
X13790691Y-9340214D01*
X13790691Y-9340214D02*
X13800215Y-9359262D01*
X13800215Y-9359262D02*
X13800215Y-9464024D01*
X13924024Y-9464024D02*
X13904977Y-9454500D01*
X13904977Y-9454500D02*
X13895453Y-9444976D01*
X13895453Y-9444976D02*
X13885929Y-9425929D01*
X13885929Y-9425929D02*
X13885929Y-9368786D01*
X13885929Y-9368786D02*
X13895453Y-9349738D01*
X13895453Y-9349738D02*
X13904977Y-9340214D01*
X13904977Y-9340214D02*
X13924024Y-9330690D01*
X13924024Y-9330690D02*
X13952596Y-9330690D01*
X13952596Y-9330690D02*
X13971643Y-9340214D01*
X13971643Y-9340214D02*
X13981167Y-9349738D01*
X13981167Y-9349738D02*
X13990691Y-9368786D01*
X13990691Y-9368786D02*
X13990691Y-9425929D01*
X13990691Y-9425929D02*
X13981167Y-9444976D01*
X13981167Y-9444976D02*
X13971643Y-9454500D01*
X13971643Y-9454500D02*
X13952596Y-9464024D01*
X13952596Y-9464024D02*
X13924024Y-9464024D01*
X14047834Y-9330690D02*
X14124024Y-9330690D01*
X14076405Y-9264024D02*
X14076405Y-9435452D01*
X14076405Y-9435452D02*
X14085929Y-9454500D01*
X14085929Y-9454500D02*
X14104977Y-9464024D01*
X14104977Y-9464024D02*
X14124024Y-9464024D01*
X14343072Y-9330690D02*
X14343072Y-9530690D01*
X14343072Y-9340214D02*
X14362119Y-9330690D01*
X14362119Y-9330690D02*
X14400215Y-9330690D01*
X14400215Y-9330690D02*
X14419262Y-9340214D01*
X14419262Y-9340214D02*
X14428786Y-9349738D01*
X14428786Y-9349738D02*
X14438310Y-9368786D01*
X14438310Y-9368786D02*
X14438310Y-9425929D01*
X14438310Y-9425929D02*
X14428786Y-9444976D01*
X14428786Y-9444976D02*
X14419262Y-9454500D01*
X14419262Y-9454500D02*
X14400215Y-9464024D01*
X14400215Y-9464024D02*
X14362119Y-9464024D01*
X14362119Y-9464024D02*
X14343072Y-9454500D01*
X14552596Y-9464024D02*
X14533548Y-9454500D01*
X14533548Y-9454500D02*
X14524024Y-9435452D01*
X14524024Y-9435452D02*
X14524024Y-9264024D01*
X14714500Y-9464024D02*
X14714500Y-9359262D01*
X14714500Y-9359262D02*
X14704977Y-9340214D01*
X14704977Y-9340214D02*
X14685929Y-9330690D01*
X14685929Y-9330690D02*
X14647834Y-9330690D01*
X14647834Y-9330690D02*
X14628786Y-9340214D01*
X14714500Y-9454500D02*
X14695453Y-9464024D01*
X14695453Y-9464024D02*
X14647834Y-9464024D01*
X14647834Y-9464024D02*
X14628786Y-9454500D01*
X14628786Y-9454500D02*
X14619262Y-9435452D01*
X14619262Y-9435452D02*
X14619262Y-9416405D01*
X14619262Y-9416405D02*
X14628786Y-9397357D01*
X14628786Y-9397357D02*
X14647834Y-9387833D01*
X14647834Y-9387833D02*
X14695453Y-9387833D01*
X14695453Y-9387833D02*
X14714500Y-9378310D01*
X14781167Y-9330690D02*
X14857358Y-9330690D01*
X14809739Y-9264024D02*
X14809739Y-9435452D01*
X14809739Y-9435452D02*
X14819262Y-9454500D01*
X14819262Y-9454500D02*
X14838310Y-9464024D01*
X14838310Y-9464024D02*
X14857358Y-9464024D01*
X15000215Y-9454500D02*
X14981167Y-9464024D01*
X14981167Y-9464024D02*
X14943072Y-9464024D01*
X14943072Y-9464024D02*
X14924024Y-9454500D01*
X14924024Y-9454500D02*
X14914500Y-9435452D01*
X14914500Y-9435452D02*
X14914500Y-9359262D01*
X14914500Y-9359262D02*
X14924024Y-9340214D01*
X14924024Y-9340214D02*
X14943072Y-9330690D01*
X14943072Y-9330690D02*
X14981167Y-9330690D01*
X14981167Y-9330690D02*
X15000215Y-9340214D01*
X15000215Y-9340214D02*
X15009739Y-9359262D01*
X15009739Y-9359262D02*
X15009739Y-9378310D01*
X15009739Y-9378310D02*
X14914500Y-9397357D01*
X15181167Y-9464024D02*
X15181167Y-9264024D01*
X15181167Y-9454500D02*
X15162120Y-9464024D01*
X15162120Y-9464024D02*
X15124024Y-9464024D01*
X15124024Y-9464024D02*
X15104977Y-9454500D01*
X15104977Y-9454500D02*
X15095453Y-9444976D01*
X15095453Y-9444976D02*
X15085929Y-9425929D01*
X15085929Y-9425929D02*
X15085929Y-9368786D01*
X15085929Y-9368786D02*
X15095453Y-9349738D01*
X15095453Y-9349738D02*
X15104977Y-9340214D01*
X15104977Y-9340214D02*
X15124024Y-9330690D01*
X15124024Y-9330690D02*
X15162120Y-9330690D01*
X15162120Y-9330690D02*
X15181167Y-9340214D01*
X15257358Y-9540214D02*
X15266881Y-9530690D01*
X15266881Y-9530690D02*
X15285929Y-9502119D01*
X15285929Y-9502119D02*
X15295453Y-9483071D01*
X15295453Y-9483071D02*
X15304977Y-9454500D01*
X15304977Y-9454500D02*
X15314500Y-9406881D01*
X15314500Y-9406881D02*
X15314500Y-9368786D01*
X15314500Y-9368786D02*
X15304977Y-9321167D01*
X15304977Y-9321167D02*
X15295453Y-9292595D01*
X15295453Y-9292595D02*
X15285929Y-9273548D01*
X15285929Y-9273548D02*
X15266881Y-9244976D01*
X15266881Y-9244976D02*
X15257358Y-9235452D01*
M02*
