G04 #@! TF.GenerationSoftware,KiCad,Pcbnew,7.0.1-0*
G04 #@! TF.CreationDate,2023-04-02T15:36:46-05:00*
G04 #@! TF.ProjectId,V0_Display,56305f44-6973-4706-9c61-792e6b696361,rev?*
G04 #@! TF.SameCoordinates,Original*
G04 #@! TF.FileFunction,Copper,L3,Inr*
G04 #@! TF.FilePolarity,Positive*
%FSLAX46Y46*%
G04 Gerber Fmt 4.6, Leading zero omitted, Abs format (unit mm)*
G04 Created by KiCad (PCBNEW 7.0.1-0) date 2023-04-02 15:36:46*
%MOMM*%
%LPD*%
G01*
G04 APERTURE LIST*
G04 #@! TA.AperFunction,ComponentPad*
%ADD10C,0.600000*%
G04 #@! TD*
G04 #@! TA.AperFunction,ComponentPad*
%ADD11C,2.000000*%
G04 #@! TD*
G04 #@! TA.AperFunction,ComponentPad*
%ADD12O,2.500000X4.000000*%
G04 #@! TD*
G04 #@! TA.AperFunction,ComponentPad*
%ADD13C,1.524000*%
G04 #@! TD*
G04 #@! TA.AperFunction,ComponentPad*
%ADD14R,1.700000X1.700000*%
G04 #@! TD*
G04 #@! TA.AperFunction,ComponentPad*
%ADD15O,1.700000X1.700000*%
G04 #@! TD*
G04 #@! TA.AperFunction,ComponentPad*
%ADD16O,2.100000X1.050000*%
G04 #@! TD*
G04 #@! TA.AperFunction,ComponentPad*
%ADD17O,2.000000X1.000000*%
G04 #@! TD*
G04 #@! TA.AperFunction,ViaPad*
%ADD18C,0.800000*%
G04 #@! TD*
G04 #@! TA.AperFunction,ViaPad*
%ADD19C,0.400000*%
G04 #@! TD*
G04 #@! TA.AperFunction,ViaPad*
%ADD20C,0.550000*%
G04 #@! TD*
G04 APERTURE END LIST*
D10*
X111725000Y-61725000D03*
X113000000Y-61725000D03*
X114275000Y-61725000D03*
X111725000Y-63000000D03*
X113000000Y-63000000D03*
X114275000Y-63000000D03*
X111725000Y-64275000D03*
X113000000Y-64275000D03*
X114275000Y-64275000D03*
D11*
X156670000Y-69900000D03*
X163170000Y-69900000D03*
X156670000Y-74400000D03*
X163170000Y-74400000D03*
X141920000Y-74650000D03*
X146920000Y-74650000D03*
X144420000Y-74650000D03*
D12*
X139340000Y-67150000D03*
X149500000Y-67150000D03*
D11*
X141920000Y-60150000D03*
X146920000Y-60150000D03*
D13*
X109660000Y-52850000D03*
X112200000Y-52850000D03*
X114740000Y-52850000D03*
X117280000Y-52850000D03*
D14*
X108795000Y-73120000D03*
D15*
X111335000Y-73120000D03*
X113875000Y-73120000D03*
X116415000Y-73120000D03*
X118955000Y-73120000D03*
D11*
X128975000Y-73145000D03*
X122475000Y-73145000D03*
X128975000Y-77645000D03*
X122475000Y-77645000D03*
D14*
X148300000Y-54260000D03*
D15*
X145760000Y-54260000D03*
D14*
X97220000Y-69550000D03*
D15*
X97220000Y-67010000D03*
X97220000Y-64470000D03*
X97220000Y-61930000D03*
D11*
X104720000Y-73145000D03*
X98220000Y-73145000D03*
X104720000Y-77645000D03*
X98220000Y-77645000D03*
D16*
X92100000Y-71450000D03*
D17*
X87920000Y-71450000D03*
X87920000Y-62810000D03*
D16*
X92100000Y-62810000D03*
D18*
X99320000Y-62850000D03*
D19*
X124865000Y-60775000D03*
D18*
X104220000Y-64250000D03*
D19*
X123610000Y-64750000D03*
X104130000Y-58377500D03*
D20*
X155630000Y-60620000D03*
X128240000Y-67850000D03*
D18*
X94820000Y-64050000D03*
D19*
X111215000Y-57905000D03*
X112767676Y-57117676D03*
X116330000Y-70560000D03*
X117710000Y-66500000D03*
X120050000Y-66500000D03*
D20*
X127389999Y-65950000D03*
X154991233Y-59168767D03*
D19*
X134081800Y-58738200D03*
X116930000Y-69140000D03*
X114178886Y-58358886D03*
X110420000Y-67450000D03*
X108200000Y-65770000D03*
X110220000Y-58150000D03*
X118270000Y-62850000D03*
X114010000Y-67220000D03*
D20*
X108030000Y-63400000D03*
D19*
X116050000Y-56450000D03*
X94020000Y-65450000D03*
X93920000Y-68150000D03*
X108245000Y-64899500D03*
X118491043Y-64168957D03*
X107020000Y-62874500D03*
G04 #@! TA.AperFunction,Conductor*
G36*
X118607000Y-51236881D02*
G01*
X118653119Y-51283000D01*
X118670000Y-51346000D01*
X118670000Y-52256257D01*
X118652003Y-52321152D01*
X118603153Y-52367508D01*
X118537406Y-52382084D01*
X118473542Y-52360716D01*
X118429805Y-52309507D01*
X118384487Y-52212322D01*
X118256974Y-52030215D01*
X118099784Y-51873025D01*
X117917678Y-51745512D01*
X117847117Y-51712609D01*
X117716196Y-51651560D01*
X117702709Y-51647946D01*
X117501467Y-51594022D01*
X117280000Y-51574647D01*
X117058532Y-51594022D01*
X116843807Y-51651559D01*
X116843806Y-51651559D01*
X116843804Y-51651560D01*
X116783442Y-51679707D01*
X116642322Y-51745512D01*
X116460215Y-51873025D01*
X116303025Y-52030215D01*
X116175512Y-52212322D01*
X116137895Y-52292991D01*
X116124765Y-52321152D01*
X116124195Y-52322374D01*
X116077700Y-52375391D01*
X116010000Y-52395124D01*
X115942300Y-52375391D01*
X115895805Y-52322374D01*
X115895235Y-52321152D01*
X115844488Y-52212324D01*
X115716977Y-52030219D01*
X115716976Y-52030218D01*
X115716974Y-52030215D01*
X115559784Y-51873025D01*
X115377678Y-51745512D01*
X115307117Y-51712609D01*
X115176196Y-51651560D01*
X115162709Y-51647946D01*
X114961467Y-51594022D01*
X114740000Y-51574647D01*
X114518532Y-51594022D01*
X114303807Y-51651559D01*
X114303806Y-51651559D01*
X114303804Y-51651560D01*
X114243442Y-51679707D01*
X114102322Y-51745512D01*
X113920215Y-51873025D01*
X113763025Y-52030215D01*
X113635512Y-52212322D01*
X113569707Y-52353442D01*
X113556352Y-52382084D01*
X113541559Y-52413807D01*
X113484022Y-52628532D01*
X113464647Y-52850000D01*
X113484022Y-53071467D01*
X113537946Y-53272709D01*
X113541560Y-53286196D01*
X113590195Y-53390494D01*
X113635512Y-53487678D01*
X113763025Y-53669784D01*
X113920215Y-53826974D01*
X114102321Y-53954487D01*
X114102322Y-53954487D01*
X114102323Y-53954488D01*
X114303804Y-54048440D01*
X114454739Y-54088883D01*
X114518532Y-54105977D01*
X114518533Y-54105977D01*
X114518537Y-54105978D01*
X114740000Y-54125353D01*
X114961463Y-54105978D01*
X115176196Y-54048440D01*
X115377677Y-53954488D01*
X115559781Y-53826977D01*
X115716977Y-53669781D01*
X115844488Y-53487677D01*
X115895806Y-53377624D01*
X115942300Y-53324609D01*
X116010000Y-53304876D01*
X116077700Y-53324609D01*
X116124193Y-53377624D01*
X116130195Y-53390494D01*
X116175512Y-53487678D01*
X116303025Y-53669784D01*
X116460215Y-53826974D01*
X116642321Y-53954487D01*
X116642322Y-53954487D01*
X116642323Y-53954488D01*
X116843804Y-54048440D01*
X116994739Y-54088883D01*
X117058532Y-54105977D01*
X117058533Y-54105977D01*
X117058537Y-54105978D01*
X117280000Y-54125353D01*
X117501463Y-54105978D01*
X117716196Y-54048440D01*
X117917677Y-53954488D01*
X118099781Y-53826977D01*
X118256977Y-53669781D01*
X118384488Y-53487677D01*
X118429805Y-53390493D01*
X118473541Y-53339284D01*
X118537405Y-53317916D01*
X118603153Y-53332492D01*
X118652003Y-53378848D01*
X118670000Y-53443743D01*
X118670000Y-63334457D01*
X118653119Y-63397457D01*
X118607000Y-63443576D01*
X118544000Y-63460457D01*
X118405015Y-63460457D01*
X118237960Y-63501632D01*
X118237959Y-63501632D01*
X118237957Y-63501633D01*
X118085614Y-63581589D01*
X118085612Y-63581590D01*
X118085613Y-63581590D01*
X117956828Y-63695684D01*
X117924248Y-63742883D01*
X117859087Y-63837284D01*
X117798077Y-63998156D01*
X117777339Y-64168957D01*
X117798077Y-64339757D01*
X117859087Y-64500629D01*
X117859088Y-64500631D01*
X117859089Y-64500632D01*
X117956828Y-64642230D01*
X118085613Y-64756324D01*
X118237960Y-64836282D01*
X118405015Y-64877457D01*
X118405017Y-64877457D01*
X118544000Y-64877457D01*
X118607000Y-64894338D01*
X118653119Y-64940457D01*
X118670000Y-65003457D01*
X118670000Y-66445405D01*
X118655959Y-66499999D01*
X118670000Y-66554595D01*
X118670000Y-67624000D01*
X118653119Y-67687000D01*
X118607000Y-67733119D01*
X118544000Y-67750000D01*
X107126000Y-67750000D01*
X107063000Y-67733119D01*
X107016881Y-67687000D01*
X107000000Y-67624000D01*
X107000000Y-66500000D01*
X116996296Y-66500000D01*
X117017034Y-66670800D01*
X117078044Y-66831672D01*
X117078045Y-66831674D01*
X117078046Y-66831675D01*
X117175785Y-66973273D01*
X117304570Y-67087367D01*
X117456917Y-67167325D01*
X117623972Y-67208500D01*
X117796026Y-67208500D01*
X117796028Y-67208500D01*
X117963083Y-67167325D01*
X118115430Y-67087367D01*
X118244215Y-66973273D01*
X118341954Y-66831675D01*
X118402965Y-66670801D01*
X118418919Y-66539407D01*
X118434319Y-66500000D01*
X118418919Y-66460592D01*
X118402965Y-66329199D01*
X118341955Y-66168327D01*
X118341954Y-66168325D01*
X118244215Y-66026727D01*
X118115430Y-65912633D01*
X117963083Y-65832675D01*
X117796028Y-65791500D01*
X117623972Y-65791500D01*
X117456917Y-65832675D01*
X117456916Y-65832675D01*
X117456914Y-65832676D01*
X117304571Y-65912632D01*
X117175786Y-66026726D01*
X117078044Y-66168327D01*
X117017034Y-66329199D01*
X116996296Y-66500000D01*
X107000000Y-66500000D01*
X107000000Y-64899500D01*
X107531296Y-64899500D01*
X107552034Y-65070300D01*
X107613044Y-65231172D01*
X107613045Y-65231174D01*
X107613046Y-65231175D01*
X107710785Y-65372773D01*
X107839570Y-65486867D01*
X107991917Y-65566825D01*
X108158972Y-65608000D01*
X108331026Y-65608000D01*
X108331028Y-65608000D01*
X108498083Y-65566825D01*
X108650430Y-65486867D01*
X108779215Y-65372773D01*
X108876954Y-65231175D01*
X108937965Y-65070301D01*
X108958704Y-64899500D01*
X108937965Y-64728699D01*
X108876954Y-64567825D01*
X108779215Y-64426227D01*
X108650430Y-64312133D01*
X108579679Y-64275000D01*
X110911384Y-64275000D01*
X110931783Y-64456049D01*
X110991956Y-64628014D01*
X111088889Y-64782282D01*
X111217717Y-64911110D01*
X111364686Y-65003457D01*
X111371985Y-65008043D01*
X111543953Y-65068217D01*
X111725000Y-65088616D01*
X111906047Y-65068217D01*
X112078015Y-65008043D01*
X112232281Y-64911111D01*
X112249054Y-64894338D01*
X112273405Y-64869988D01*
X112329889Y-64837376D01*
X112395111Y-64837376D01*
X112451595Y-64869988D01*
X112492717Y-64911110D01*
X112639686Y-65003457D01*
X112646985Y-65008043D01*
X112818953Y-65068217D01*
X113000000Y-65088616D01*
X113181047Y-65068217D01*
X113353015Y-65008043D01*
X113507281Y-64911111D01*
X113524054Y-64894338D01*
X113548405Y-64869988D01*
X113604889Y-64837376D01*
X113670111Y-64837376D01*
X113726595Y-64869988D01*
X113767717Y-64911110D01*
X113914686Y-65003457D01*
X113921985Y-65008043D01*
X114093953Y-65068217D01*
X114275000Y-65088616D01*
X114456047Y-65068217D01*
X114628015Y-65008043D01*
X114782281Y-64911111D01*
X114911111Y-64782281D01*
X115008043Y-64628015D01*
X115068217Y-64456047D01*
X115088616Y-64275000D01*
X115068217Y-64093953D01*
X115008043Y-63921985D01*
X114954822Y-63837284D01*
X114911110Y-63767717D01*
X114869988Y-63726595D01*
X114837376Y-63670111D01*
X114837376Y-63604889D01*
X114869988Y-63548405D01*
X114911110Y-63507282D01*
X114914660Y-63501633D01*
X115008043Y-63353015D01*
X115068217Y-63181047D01*
X115088616Y-63000000D01*
X115068217Y-62818953D01*
X115008043Y-62646985D01*
X114911111Y-62492719D01*
X114911110Y-62492717D01*
X114869988Y-62451595D01*
X114837376Y-62395111D01*
X114837376Y-62329889D01*
X114869988Y-62273405D01*
X114911110Y-62232282D01*
X114912500Y-62230070D01*
X115008043Y-62078015D01*
X115068217Y-61906047D01*
X115088616Y-61725000D01*
X115068217Y-61543953D01*
X115008043Y-61371985D01*
X114911111Y-61217719D01*
X114911110Y-61217717D01*
X114782282Y-61088889D01*
X114628014Y-60991956D01*
X114456049Y-60931783D01*
X114275000Y-60911384D01*
X114093950Y-60931783D01*
X113921985Y-60991956D01*
X113767717Y-61088889D01*
X113726595Y-61130012D01*
X113670111Y-61162624D01*
X113604889Y-61162624D01*
X113548405Y-61130012D01*
X113507282Y-61088889D01*
X113353014Y-60991956D01*
X113181049Y-60931783D01*
X113000000Y-60911384D01*
X112818950Y-60931783D01*
X112646985Y-60991956D01*
X112492717Y-61088889D01*
X112451595Y-61130012D01*
X112395111Y-61162624D01*
X112329889Y-61162624D01*
X112273405Y-61130012D01*
X112232282Y-61088889D01*
X112078014Y-60991956D01*
X111906049Y-60931783D01*
X111725000Y-60911384D01*
X111543950Y-60931783D01*
X111371985Y-60991956D01*
X111217717Y-61088889D01*
X111088889Y-61217717D01*
X110991956Y-61371985D01*
X110931783Y-61543950D01*
X110911384Y-61724999D01*
X110931783Y-61906049D01*
X110991956Y-62078014D01*
X111088889Y-62232282D01*
X111130012Y-62273405D01*
X111162624Y-62329889D01*
X111162624Y-62395111D01*
X111130012Y-62451595D01*
X111088889Y-62492717D01*
X110991956Y-62646985D01*
X110931783Y-62818950D01*
X110911384Y-63000000D01*
X110931783Y-63181049D01*
X110991956Y-63353014D01*
X111088889Y-63507282D01*
X111130012Y-63548405D01*
X111162624Y-63604889D01*
X111162624Y-63670111D01*
X111130012Y-63726595D01*
X111088889Y-63767717D01*
X110991956Y-63921985D01*
X110931783Y-64093950D01*
X110911384Y-64275000D01*
X108579679Y-64275000D01*
X108498083Y-64232175D01*
X108331028Y-64191000D01*
X108158972Y-64191000D01*
X107991917Y-64232175D01*
X107991916Y-64232175D01*
X107991914Y-64232176D01*
X107839571Y-64312132D01*
X107710786Y-64426226D01*
X107613044Y-64567827D01*
X107552034Y-64728699D01*
X107531296Y-64899500D01*
X107000000Y-64899500D01*
X107000000Y-63707848D01*
X107012165Y-63653833D01*
X107046312Y-63610248D01*
X107095846Y-63585509D01*
X107106025Y-63583000D01*
X107106028Y-63583000D01*
X107273083Y-63541825D01*
X107425430Y-63461867D01*
X107554215Y-63347773D01*
X107651954Y-63206175D01*
X107712965Y-63045301D01*
X107733704Y-62874500D01*
X107712965Y-62703699D01*
X107651954Y-62542825D01*
X107554215Y-62401227D01*
X107425430Y-62287133D01*
X107273083Y-62207175D01*
X107106028Y-62166000D01*
X107106026Y-62166000D01*
X107095846Y-62163491D01*
X107046312Y-62138752D01*
X107012165Y-62095167D01*
X107000000Y-62041152D01*
X107000000Y-57905000D01*
X110501296Y-57905000D01*
X110522034Y-58075800D01*
X110583044Y-58236672D01*
X110583045Y-58236674D01*
X110583046Y-58236675D01*
X110680785Y-58378273D01*
X110809570Y-58492367D01*
X110961917Y-58572325D01*
X111128972Y-58613500D01*
X111301026Y-58613500D01*
X111301028Y-58613500D01*
X111468083Y-58572325D01*
X111620430Y-58492367D01*
X111749215Y-58378273D01*
X111846954Y-58236675D01*
X111907965Y-58075801D01*
X111928704Y-57905000D01*
X111907965Y-57734199D01*
X111846954Y-57573325D01*
X111749215Y-57431727D01*
X111620430Y-57317633D01*
X111468083Y-57237675D01*
X111301028Y-57196500D01*
X111128972Y-57196500D01*
X110961917Y-57237675D01*
X110961916Y-57237675D01*
X110961914Y-57237676D01*
X110809571Y-57317632D01*
X110680786Y-57431726D01*
X110583044Y-57573327D01*
X110522034Y-57734199D01*
X110501296Y-57905000D01*
X107000000Y-57905000D01*
X107000000Y-57117675D01*
X112053972Y-57117675D01*
X112074710Y-57288476D01*
X112135720Y-57449348D01*
X112135721Y-57449350D01*
X112135722Y-57449351D01*
X112233461Y-57590949D01*
X112362246Y-57705043D01*
X112514593Y-57785001D01*
X112681648Y-57826176D01*
X112853702Y-57826176D01*
X112853704Y-57826176D01*
X113020759Y-57785001D01*
X113173106Y-57705043D01*
X113301891Y-57590949D01*
X113399630Y-57449351D01*
X113460641Y-57288477D01*
X113481380Y-57117676D01*
X113460641Y-56946875D01*
X113399630Y-56786001D01*
X113301891Y-56644403D01*
X113173106Y-56530309D01*
X113020759Y-56450351D01*
X113019335Y-56450000D01*
X115336296Y-56450000D01*
X115357034Y-56620800D01*
X115418044Y-56781672D01*
X115418045Y-56781674D01*
X115418046Y-56781675D01*
X115515785Y-56923273D01*
X115644570Y-57037367D01*
X115796917Y-57117325D01*
X115963972Y-57158500D01*
X116136026Y-57158500D01*
X116136028Y-57158500D01*
X116303083Y-57117325D01*
X116455430Y-57037367D01*
X116584215Y-56923273D01*
X116681954Y-56781675D01*
X116742965Y-56620801D01*
X116763704Y-56450000D01*
X116742965Y-56279199D01*
X116681954Y-56118325D01*
X116584215Y-55976727D01*
X116455430Y-55862633D01*
X116303083Y-55782675D01*
X116136028Y-55741500D01*
X115963972Y-55741500D01*
X115796917Y-55782675D01*
X115796916Y-55782675D01*
X115796914Y-55782676D01*
X115644571Y-55862632D01*
X115515786Y-55976726D01*
X115418044Y-56118327D01*
X115357034Y-56279199D01*
X115336296Y-56450000D01*
X113019335Y-56450000D01*
X112853704Y-56409176D01*
X112681648Y-56409176D01*
X112514593Y-56450351D01*
X112514592Y-56450351D01*
X112514590Y-56450352D01*
X112362247Y-56530308D01*
X112233462Y-56644402D01*
X112135720Y-56786003D01*
X112074710Y-56946875D01*
X112053972Y-57117675D01*
X107000000Y-57117675D01*
X107000000Y-52850000D01*
X108384647Y-52850000D01*
X108404022Y-53071467D01*
X108457946Y-53272709D01*
X108461560Y-53286196D01*
X108510195Y-53390494D01*
X108555512Y-53487678D01*
X108683025Y-53669784D01*
X108840215Y-53826974D01*
X109022321Y-53954487D01*
X109022322Y-53954487D01*
X109022323Y-53954488D01*
X109223804Y-54048440D01*
X109374739Y-54088883D01*
X109438532Y-54105977D01*
X109438533Y-54105977D01*
X109438537Y-54105978D01*
X109660000Y-54125353D01*
X109881463Y-54105978D01*
X110096196Y-54048440D01*
X110297677Y-53954488D01*
X110479781Y-53826977D01*
X110636977Y-53669781D01*
X110764488Y-53487677D01*
X110858440Y-53286196D01*
X110915978Y-53071463D01*
X110935353Y-52850000D01*
X110915978Y-52628537D01*
X110858440Y-52413804D01*
X110764488Y-52212324D01*
X110636977Y-52030219D01*
X110636976Y-52030218D01*
X110636974Y-52030215D01*
X110479784Y-51873025D01*
X110297678Y-51745512D01*
X110227117Y-51712609D01*
X110096196Y-51651560D01*
X110082709Y-51647946D01*
X109881467Y-51594022D01*
X109660000Y-51574647D01*
X109438532Y-51594022D01*
X109223807Y-51651559D01*
X109223806Y-51651559D01*
X109223804Y-51651560D01*
X109163442Y-51679707D01*
X109022322Y-51745512D01*
X108840215Y-51873025D01*
X108683025Y-52030215D01*
X108555512Y-52212322D01*
X108489707Y-52353442D01*
X108476352Y-52382084D01*
X108461559Y-52413807D01*
X108404022Y-52628532D01*
X108384647Y-52850000D01*
X107000000Y-52850000D01*
X107000000Y-51346000D01*
X107016881Y-51283000D01*
X107063000Y-51236881D01*
X107126000Y-51220000D01*
X118544000Y-51220000D01*
X118607000Y-51236881D01*
G37*
G04 #@! TD.AperFunction*
M02*
