G04 #@! TF.GenerationSoftware,KiCad,Pcbnew,7.0.1-0*
G04 #@! TF.CreationDate,2023-04-02T15:36:46-05:00*
G04 #@! TF.ProjectId,V0_Display,56305f44-6973-4706-9c61-792e6b696361,rev?*
G04 #@! TF.SameCoordinates,Original*
G04 #@! TF.FileFunction,Copper,L4,Bot*
G04 #@! TF.FilePolarity,Positive*
%FSLAX46Y46*%
G04 Gerber Fmt 4.6, Leading zero omitted, Abs format (unit mm)*
G04 Created by KiCad (PCBNEW 7.0.1-0) date 2023-04-02 15:36:46*
%MOMM*%
%LPD*%
G01*
G04 APERTURE LIST*
G04 Aperture macros list*
%AMRoundRect*
0 Rectangle with rounded corners*
0 $1 Rounding radius*
0 $2 $3 $4 $5 $6 $7 $8 $9 X,Y pos of 4 corners*
0 Add a 4 corners polygon primitive as box body*
4,1,4,$2,$3,$4,$5,$6,$7,$8,$9,$2,$3,0*
0 Add four circle primitives for the rounded corners*
1,1,$1+$1,$2,$3*
1,1,$1+$1,$4,$5*
1,1,$1+$1,$6,$7*
1,1,$1+$1,$8,$9*
0 Add four rect primitives between the rounded corners*
20,1,$1+$1,$2,$3,$4,$5,0*
20,1,$1+$1,$4,$5,$6,$7,0*
20,1,$1+$1,$6,$7,$8,$9,0*
20,1,$1+$1,$8,$9,$2,$3,0*%
G04 Aperture macros list end*
G04 #@! TA.AperFunction,SMDPad,CuDef*
%ADD10R,0.300000X0.600000*%
G04 #@! TD*
G04 #@! TA.AperFunction,SMDPad,CuDef*
%ADD11R,1.700000X0.300000*%
G04 #@! TD*
G04 #@! TA.AperFunction,SMDPad,CuDef*
%ADD12RoundRect,0.050000X-0.050000X0.387500X-0.050000X-0.387500X0.050000X-0.387500X0.050000X0.387500X0*%
G04 #@! TD*
G04 #@! TA.AperFunction,SMDPad,CuDef*
%ADD13RoundRect,0.050000X-0.387500X0.050000X-0.387500X-0.050000X0.387500X-0.050000X0.387500X0.050000X0*%
G04 #@! TD*
G04 #@! TA.AperFunction,ComponentPad*
%ADD14C,0.600000*%
G04 #@! TD*
G04 #@! TA.AperFunction,SMDPad,CuDef*
%ADD15RoundRect,0.144000X-1.456000X1.456000X-1.456000X-1.456000X1.456000X-1.456000X1.456000X1.456000X0*%
G04 #@! TD*
G04 #@! TA.AperFunction,ComponentPad*
%ADD16C,2.000000*%
G04 #@! TD*
G04 #@! TA.AperFunction,ComponentPad*
%ADD17O,2.500000X4.000000*%
G04 #@! TD*
G04 #@! TA.AperFunction,ComponentPad*
%ADD18C,1.524000*%
G04 #@! TD*
G04 #@! TA.AperFunction,ComponentPad*
%ADD19R,1.700000X1.700000*%
G04 #@! TD*
G04 #@! TA.AperFunction,ComponentPad*
%ADD20O,1.700000X1.700000*%
G04 #@! TD*
G04 #@! TA.AperFunction,SMDPad,CuDef*
%ADD21RoundRect,0.135000X-0.185000X0.135000X-0.185000X-0.135000X0.185000X-0.135000X0.185000X0.135000X0*%
G04 #@! TD*
G04 #@! TA.AperFunction,SMDPad,CuDef*
%ADD22RoundRect,0.200000X-0.275000X0.200000X-0.275000X-0.200000X0.275000X-0.200000X0.275000X0.200000X0*%
G04 #@! TD*
G04 #@! TA.AperFunction,SMDPad,CuDef*
%ADD23RoundRect,0.225000X0.250000X-0.225000X0.250000X0.225000X-0.250000X0.225000X-0.250000X-0.225000X0*%
G04 #@! TD*
G04 #@! TA.AperFunction,SMDPad,CuDef*
%ADD24RoundRect,0.140000X0.170000X-0.140000X0.170000X0.140000X-0.170000X0.140000X-0.170000X-0.140000X0*%
G04 #@! TD*
G04 #@! TA.AperFunction,SMDPad,CuDef*
%ADD25R,1.060000X0.650000*%
G04 #@! TD*
G04 #@! TA.AperFunction,SMDPad,CuDef*
%ADD26R,1.050000X0.600000*%
G04 #@! TD*
G04 #@! TA.AperFunction,SMDPad,CuDef*
%ADD27R,0.500000X0.375000*%
G04 #@! TD*
G04 #@! TA.AperFunction,SMDPad,CuDef*
%ADD28R,0.650000X0.300000*%
G04 #@! TD*
G04 #@! TA.AperFunction,SMDPad,CuDef*
%ADD29RoundRect,0.225000X-0.250000X0.225000X-0.250000X-0.225000X0.250000X-0.225000X0.250000X0.225000X0*%
G04 #@! TD*
G04 #@! TA.AperFunction,SMDPad,CuDef*
%ADD30RoundRect,0.147500X-0.172500X0.147500X-0.172500X-0.147500X0.172500X-0.147500X0.172500X0.147500X0*%
G04 #@! TD*
G04 #@! TA.AperFunction,SMDPad,CuDef*
%ADD31R,1.400000X1.200000*%
G04 #@! TD*
G04 #@! TA.AperFunction,SMDPad,CuDef*
%ADD32R,1.150000X0.600000*%
G04 #@! TD*
G04 #@! TA.AperFunction,SMDPad,CuDef*
%ADD33R,1.150000X0.300000*%
G04 #@! TD*
G04 #@! TA.AperFunction,ComponentPad*
%ADD34O,2.100000X1.050000*%
G04 #@! TD*
G04 #@! TA.AperFunction,ComponentPad*
%ADD35O,2.000000X1.000000*%
G04 #@! TD*
G04 #@! TA.AperFunction,ViaPad*
%ADD36C,0.800000*%
G04 #@! TD*
G04 #@! TA.AperFunction,ViaPad*
%ADD37C,0.400000*%
G04 #@! TD*
G04 #@! TA.AperFunction,ViaPad*
%ADD38C,0.550000*%
G04 #@! TD*
G04 #@! TA.AperFunction,Conductor*
%ADD39C,0.400000*%
G04 #@! TD*
G04 #@! TA.AperFunction,Conductor*
%ADD40C,0.250000*%
G04 #@! TD*
G04 #@! TA.AperFunction,Conductor*
%ADD41C,0.300000*%
G04 #@! TD*
G04 #@! TA.AperFunction,Conductor*
%ADD42C,0.200000*%
G04 #@! TD*
G04 #@! TA.AperFunction,Conductor*
%ADD43C,1.000000*%
G04 #@! TD*
G04 APERTURE END LIST*
D10*
X103380000Y-57127500D03*
X103880000Y-57127500D03*
X104380000Y-57127500D03*
X104880000Y-57127500D03*
X104880000Y-59627500D03*
X104380000Y-59627500D03*
X103880000Y-59627500D03*
X103380000Y-59627500D03*
D11*
X104130000Y-58377500D03*
D12*
X110400000Y-59562500D03*
X110800000Y-59562500D03*
X111200000Y-59562500D03*
X111600000Y-59562500D03*
X112000000Y-59562500D03*
X112400000Y-59562500D03*
X112800000Y-59562500D03*
X113200000Y-59562500D03*
X113600000Y-59562500D03*
X114000000Y-59562500D03*
X114400000Y-59562500D03*
X114800000Y-59562500D03*
X115200000Y-59562500D03*
X115600000Y-59562500D03*
D13*
X116437500Y-60400000D03*
X116437500Y-60800000D03*
X116437500Y-61200000D03*
X116437500Y-61600000D03*
X116437500Y-62000000D03*
X116437500Y-62400000D03*
X116437500Y-62800000D03*
X116437500Y-63200000D03*
X116437500Y-63600000D03*
X116437500Y-64000000D03*
X116437500Y-64400000D03*
X116437500Y-64800000D03*
X116437500Y-65200000D03*
X116437500Y-65600000D03*
D12*
X115600000Y-66437500D03*
X115200000Y-66437500D03*
X114800000Y-66437500D03*
X114400000Y-66437500D03*
X114000000Y-66437500D03*
X113600000Y-66437500D03*
X113200000Y-66437500D03*
X112800000Y-66437500D03*
X112400000Y-66437500D03*
X112000000Y-66437500D03*
X111600000Y-66437500D03*
X111200000Y-66437500D03*
X110800000Y-66437500D03*
X110400000Y-66437500D03*
D13*
X109562500Y-65600000D03*
X109562500Y-65200000D03*
X109562500Y-64800000D03*
X109562500Y-64400000D03*
X109562500Y-64000000D03*
X109562500Y-63600000D03*
X109562500Y-63200000D03*
X109562500Y-62800000D03*
X109562500Y-62400000D03*
X109562500Y-62000000D03*
X109562500Y-61600000D03*
X109562500Y-61200000D03*
X109562500Y-60800000D03*
X109562500Y-60400000D03*
D14*
X111725000Y-61725000D03*
X113000000Y-61725000D03*
X114275000Y-61725000D03*
X111725000Y-63000000D03*
X113000000Y-63000000D03*
D15*
X113000000Y-63000000D03*
D14*
X114275000Y-63000000D03*
X111725000Y-64275000D03*
X113000000Y-64275000D03*
X114275000Y-64275000D03*
D16*
X156670000Y-69900000D03*
X163170000Y-69900000D03*
X156670000Y-74400000D03*
X163170000Y-74400000D03*
X141920000Y-74650000D03*
X146920000Y-74650000D03*
X144420000Y-74650000D03*
D17*
X139340000Y-67150000D03*
X149500000Y-67150000D03*
D16*
X141920000Y-60150000D03*
X146920000Y-60150000D03*
D18*
X109660000Y-52850000D03*
X112200000Y-52850000D03*
X114740000Y-52850000D03*
X117280000Y-52850000D03*
D19*
X108795000Y-73120000D03*
D20*
X111335000Y-73120000D03*
X113875000Y-73120000D03*
X116415000Y-73120000D03*
X118955000Y-73120000D03*
D21*
X119560000Y-62350000D03*
X119560000Y-63370000D03*
D22*
X115150000Y-68925000D03*
X115150000Y-70575000D03*
D16*
X128975000Y-73145000D03*
X122475000Y-73145000D03*
X128975000Y-77645000D03*
X122475000Y-77645000D03*
D23*
X105520000Y-67750000D03*
X105520000Y-66200000D03*
D24*
X119570000Y-61400000D03*
X119570000Y-60440000D03*
X124880000Y-63340000D03*
X124880000Y-62380000D03*
D25*
X101720000Y-68245000D03*
X101720000Y-67295000D03*
X101720000Y-66345000D03*
X103920000Y-66345000D03*
X103920000Y-68245000D03*
D26*
X123460000Y-67850000D03*
X123460000Y-66900000D03*
X123460000Y-65950000D03*
X126160000Y-65950000D03*
X126160000Y-67850000D03*
D27*
X100345000Y-62987500D03*
D28*
X100270000Y-62450000D03*
D27*
X100345000Y-61912500D03*
X102045000Y-61912500D03*
D28*
X102120000Y-62450000D03*
D27*
X102045000Y-62987500D03*
D19*
X148300000Y-54260000D03*
D20*
X145760000Y-54260000D03*
D29*
X100070000Y-66430000D03*
X100070000Y-67980000D03*
D19*
X97220000Y-69550000D03*
D20*
X97220000Y-67010000D03*
X97220000Y-64470000D03*
X97220000Y-61930000D03*
D16*
X104720000Y-73145000D03*
X98220000Y-73145000D03*
X104720000Y-77645000D03*
X98220000Y-77645000D03*
D30*
X108310000Y-66625000D03*
X108310000Y-67595000D03*
D31*
X121130000Y-60350000D03*
X123330000Y-60350000D03*
X123330000Y-62050000D03*
X121130000Y-62050000D03*
D32*
X92675000Y-70330000D03*
X92675000Y-69530000D03*
D33*
X92675000Y-68380000D03*
X92675000Y-67380000D03*
X92675000Y-66880000D03*
X92675000Y-65880000D03*
D32*
X92675000Y-63930000D03*
X92675000Y-64730000D03*
D33*
X92675000Y-65380000D03*
X92675000Y-66380000D03*
X92675000Y-67880000D03*
X92675000Y-68880000D03*
D34*
X92100000Y-71450000D03*
D35*
X87920000Y-71450000D03*
X87920000Y-62810000D03*
D34*
X92100000Y-62810000D03*
D22*
X113690000Y-68925000D03*
X113690000Y-70575000D03*
D36*
X99320000Y-62850000D03*
D37*
X124865000Y-60775000D03*
D36*
X104220000Y-64250000D03*
D37*
X123610000Y-64750000D03*
X104130000Y-58377500D03*
D38*
X155630000Y-60620000D03*
X128240000Y-67850000D03*
D36*
X94820000Y-64050000D03*
D37*
X111215000Y-57905000D03*
X112767676Y-57117676D03*
X116330000Y-70560000D03*
X117710000Y-66500000D03*
X120050000Y-66500000D03*
D38*
X127389999Y-65950000D03*
X154991233Y-59168767D03*
D37*
X134081800Y-58738200D03*
X116930000Y-69140000D03*
X114178886Y-58358886D03*
X110420000Y-67450000D03*
X108200000Y-65770000D03*
X110220000Y-58150000D03*
X118270000Y-62850000D03*
X114010000Y-67220000D03*
D38*
X108030000Y-63400000D03*
D37*
X116050000Y-56450000D03*
X94020000Y-65450000D03*
X93920000Y-68150000D03*
X108245000Y-64899500D03*
X118491043Y-64168957D03*
X107020000Y-62874500D03*
D39*
X108030000Y-63400000D02*
X107955000Y-63475000D01*
X107955000Y-63475000D02*
X106155000Y-63475000D01*
X106155000Y-63475000D02*
X103380000Y-60700000D01*
X103380000Y-60700000D02*
X103380000Y-59627500D01*
X104220000Y-64250000D02*
X104620000Y-64250000D01*
D40*
X123330000Y-60350000D02*
X124440000Y-60350000D01*
D39*
X92100000Y-62810000D02*
X87640000Y-62810000D01*
D41*
X99720000Y-62450000D02*
X99320000Y-62850000D01*
D42*
X114000000Y-62000000D02*
X113010000Y-62990000D01*
D39*
X92395000Y-70330000D02*
X92395000Y-71155000D01*
D42*
X123460000Y-64900000D02*
X123610000Y-64750000D01*
X104880000Y-57127500D02*
X104880000Y-57627500D01*
D40*
X121130000Y-62050000D02*
X121545000Y-62050000D01*
D39*
X100070000Y-67980000D02*
X100070000Y-71295000D01*
X92395000Y-71155000D02*
X92100000Y-71450000D01*
D40*
X119570000Y-61400000D02*
X120480000Y-61400000D01*
D39*
X92100000Y-71450000D02*
X87640000Y-71450000D01*
X104620000Y-64250000D02*
X105520000Y-65150000D01*
D40*
X124865000Y-60775000D02*
X124880000Y-60790000D01*
X124880000Y-60790000D02*
X124880000Y-62380000D01*
D42*
X113010000Y-62990000D02*
X113000000Y-63000000D01*
D39*
X100755000Y-67295000D02*
X100070000Y-67980000D01*
D40*
X120480000Y-61400000D02*
X121130000Y-62050000D01*
D39*
X92395000Y-63105000D02*
X92100000Y-62810000D01*
X105520000Y-65150000D02*
X105520000Y-66200000D01*
X92395000Y-63930000D02*
X92395000Y-63105000D01*
D42*
X104880000Y-57627500D02*
X104130000Y-58377500D01*
D41*
X100270000Y-62450000D02*
X99720000Y-62450000D01*
D42*
X116435000Y-62000000D02*
X114000000Y-62000000D01*
X123460000Y-65950000D02*
X123460000Y-64900000D01*
D40*
X121545000Y-62050000D02*
X123245000Y-60350000D01*
X123245000Y-60350000D02*
X123330000Y-60350000D01*
D39*
X101720000Y-67295000D02*
X100755000Y-67295000D01*
D40*
X124440000Y-60350000D02*
X124865000Y-60775000D01*
D39*
X100070000Y-71295000D02*
X98220000Y-73145000D01*
X94140000Y-64730000D02*
X92395000Y-64730000D01*
X130290000Y-81210000D02*
X132070000Y-79430000D01*
X132070000Y-79430000D02*
X132070000Y-70230000D01*
X102650000Y-68245000D02*
X101720000Y-68245000D01*
X97880000Y-81210000D02*
X130290000Y-81210000D01*
X97220000Y-69550000D02*
X95720000Y-69550000D01*
X129690000Y-67850000D02*
X128240000Y-67850000D01*
X95220000Y-69550000D02*
X94670000Y-70100000D01*
D41*
X101520000Y-62450000D02*
X101220000Y-62750000D01*
D39*
X102715000Y-66345000D02*
X102715000Y-68180000D01*
D41*
X102120000Y-62450000D02*
X101520000Y-62450000D01*
X101220000Y-62750000D02*
X101220000Y-65845000D01*
D39*
X102715000Y-68180000D02*
X102650000Y-68245000D01*
X94670000Y-70100000D02*
X94670000Y-78000000D01*
X132070000Y-70230000D02*
X129690000Y-67850000D01*
X100070000Y-66430000D02*
X97220000Y-69280000D01*
X95720000Y-69550000D02*
X95220000Y-69550000D01*
X128240000Y-67850000D02*
X126160000Y-67850000D01*
X101635000Y-66430000D02*
X101720000Y-66345000D01*
X100070000Y-66430000D02*
X101635000Y-66430000D01*
X94820000Y-64050000D02*
X94140000Y-64730000D01*
X97220000Y-69280000D02*
X97220000Y-69550000D01*
X94670000Y-78000000D02*
X97880000Y-81210000D01*
X101720000Y-66345000D02*
X102715000Y-66345000D01*
X92415000Y-69550000D02*
X95720000Y-69550000D01*
D41*
X101220000Y-65845000D02*
X101720000Y-66345000D01*
D42*
X92395000Y-66380000D02*
X94110000Y-66380000D01*
X100345000Y-61912500D02*
X99157500Y-61912500D01*
X91120000Y-66550000D02*
X91290000Y-66380000D01*
X94110000Y-66380000D02*
X96020000Y-64470000D01*
X91250000Y-67380000D02*
X91120000Y-67250000D01*
X92395000Y-67380000D02*
X91250000Y-67380000D01*
X97220000Y-63850000D02*
X97220000Y-64470000D01*
X96020000Y-64470000D02*
X97220000Y-64470000D01*
X91120000Y-67250000D02*
X91120000Y-66550000D01*
X91290000Y-66380000D02*
X92395000Y-66380000D01*
X99157500Y-61912500D02*
X97220000Y-63850000D01*
X92395000Y-66880000D02*
X93400000Y-66880000D01*
X96880000Y-67350000D02*
X93912893Y-67350000D01*
X100345000Y-63885000D02*
X97220000Y-67010000D01*
X100345000Y-62987500D02*
X100345000Y-63885000D01*
X97220000Y-67010000D02*
X96880000Y-67350000D01*
X93400000Y-66880000D02*
X93891446Y-67371447D01*
X93382893Y-67880000D02*
X92395000Y-67880000D01*
X93891446Y-67371447D02*
X93382893Y-67880000D01*
X110800000Y-58320000D02*
X110800000Y-59562500D01*
X111215000Y-57905000D02*
X110800000Y-58320000D01*
X112767676Y-57117676D02*
X111200000Y-58685352D01*
X111200000Y-58685352D02*
X111200000Y-59562500D01*
X116437500Y-64000000D02*
X117615686Y-64000000D01*
X119160000Y-68485685D02*
X116075685Y-71570000D01*
X119160000Y-65544314D02*
X119160000Y-68485685D01*
X111335000Y-71905000D02*
X111335000Y-73120000D01*
X116075685Y-71570000D02*
X111670000Y-71570000D01*
X111670000Y-71570000D02*
X111335000Y-71905000D01*
X117615686Y-64000000D02*
X119160000Y-65544314D01*
X116366061Y-70560000D02*
X118760000Y-68166061D01*
X118760000Y-65710000D02*
X117450000Y-64400000D01*
X116330000Y-70560000D02*
X116366061Y-70560000D01*
X116330000Y-70560000D02*
X116315000Y-70575000D01*
X117450000Y-64400000D02*
X116437500Y-64400000D01*
X118760000Y-68166061D02*
X118760000Y-65710000D01*
X116315000Y-70575000D02*
X115150000Y-70575000D01*
X113720000Y-56980000D02*
X152800000Y-56980000D01*
D43*
X163170000Y-74400000D02*
X156670000Y-74400000D01*
D42*
X154050000Y-71780000D02*
X156670000Y-74400000D01*
X152800000Y-56980000D02*
X154050000Y-58230000D01*
X112800000Y-59562500D02*
X112800000Y-57900000D01*
X154050000Y-58230000D02*
X154050000Y-71780000D01*
X112800000Y-57900000D02*
X113720000Y-56980000D01*
X117118628Y-65200000D02*
X117710000Y-65791372D01*
X117710000Y-65791372D02*
X117710000Y-66500000D01*
X121840000Y-66500000D02*
X122240000Y-66900000D01*
X116437500Y-65200000D02*
X117118628Y-65200000D01*
X120050000Y-66500000D02*
X121840000Y-66500000D01*
X122240000Y-66900000D02*
X123460000Y-66900000D01*
D39*
X126160000Y-65950000D02*
X127389999Y-65950000D01*
D42*
X118450000Y-61950000D02*
X118960000Y-61440000D01*
X117116876Y-62400000D02*
X117566877Y-61950000D01*
X119570000Y-60440000D02*
X121040000Y-60440000D01*
X121040000Y-60440000D02*
X121130000Y-60350000D01*
X116437500Y-62400000D02*
X117116876Y-62400000D01*
X118960000Y-61440000D02*
X118960000Y-61050000D01*
X118960000Y-61050000D02*
X119570000Y-60440000D01*
X117566877Y-61950000D02*
X118450000Y-61950000D01*
D40*
X123330000Y-62050000D02*
X123330000Y-63310000D01*
X124880000Y-63340000D02*
X123300000Y-63340000D01*
X123300000Y-63340000D02*
X119590000Y-63340000D01*
X123330000Y-63310000D02*
X123300000Y-63340000D01*
D42*
X133523600Y-58180000D02*
X115070000Y-58180000D01*
X114400000Y-58850000D02*
X114400000Y-59562500D01*
X115070000Y-58180000D02*
X114400000Y-58850000D01*
X134081800Y-58738200D02*
X133523600Y-58180000D01*
X139924314Y-76480000D02*
X146480000Y-76480000D01*
X136670000Y-60620000D02*
X136670000Y-73225686D01*
X113600000Y-58231372D02*
X114051372Y-57780000D01*
X133830000Y-57780000D02*
X136670000Y-60620000D01*
X114051372Y-57780000D02*
X133830000Y-57780000D01*
X136670000Y-73225686D02*
X139924314Y-76480000D01*
X146920000Y-76040000D02*
X146920000Y-74650000D01*
X113600000Y-59562500D02*
X113600000Y-58231372D01*
X146480000Y-76480000D02*
X146920000Y-76040000D01*
X113200000Y-58065686D02*
X113885687Y-57380000D01*
X113200000Y-59562500D02*
X113200000Y-58065686D01*
X138660000Y-74650000D02*
X141920000Y-74650000D01*
X137070000Y-73060000D02*
X138660000Y-74650000D01*
X113885687Y-57380000D02*
X133995686Y-57380000D01*
X137070000Y-60454315D02*
X137070000Y-73060000D01*
X133995686Y-57380000D02*
X137070000Y-60454315D01*
X108790000Y-71100000D02*
X108795000Y-71105000D01*
X116930000Y-69140000D02*
X117184314Y-69140000D01*
X108795000Y-71105000D02*
X108795000Y-73120000D01*
X117284314Y-64800000D02*
X116437500Y-64800000D01*
X118360000Y-67964314D02*
X118360000Y-65875686D01*
X113560000Y-70705000D02*
X109185000Y-70705000D01*
X117184314Y-69140000D02*
X118360000Y-67964314D01*
X113690000Y-70575000D02*
X113560000Y-70705000D01*
X109185000Y-70705000D02*
X108790000Y-71100000D01*
X118360000Y-65875686D02*
X117284314Y-64800000D01*
X108610026Y-65620000D02*
X108350000Y-65620000D01*
X109562500Y-63600000D02*
X108230000Y-63600000D01*
X117995000Y-63125000D02*
X117523248Y-63125000D01*
X114178886Y-58358886D02*
X114000000Y-58537772D01*
D39*
X115150000Y-68925000D02*
X113690000Y-68925000D01*
D42*
X114000000Y-66437500D02*
X114000000Y-67210000D01*
X114000000Y-67210000D02*
X114010000Y-67220000D01*
D39*
X104415000Y-67750000D02*
X103920000Y-68245000D01*
D42*
X109562500Y-65200000D02*
X109030026Y-65200000D01*
X114000000Y-58537772D02*
X114000000Y-59562500D01*
D39*
X107765000Y-65795000D02*
X108175000Y-65795000D01*
X115150000Y-68925000D02*
X115150000Y-68360000D01*
X105520000Y-67750000D02*
X104415000Y-67750000D01*
D42*
X109030026Y-65200000D02*
X108610026Y-65620000D01*
D39*
X105810000Y-67750000D02*
X107765000Y-65795000D01*
D42*
X109562500Y-63200000D02*
X109562500Y-63600000D01*
X108230000Y-63600000D02*
X108030000Y-63400000D01*
D39*
X108200000Y-65770000D02*
X108175000Y-65795000D01*
X105520000Y-67750000D02*
X105810000Y-67750000D01*
X108310000Y-65930000D02*
X108175000Y-65795000D01*
D42*
X110220000Y-58150000D02*
X110400000Y-58330000D01*
X118270000Y-62850000D02*
X117995000Y-63125000D01*
X117448248Y-63200000D02*
X116437500Y-63200000D01*
X117523248Y-63125000D02*
X117448248Y-63200000D01*
X108350000Y-65620000D02*
X108200000Y-65770000D01*
X110400000Y-67430000D02*
X110400000Y-66437500D01*
X109562500Y-63200000D02*
X108230000Y-63200000D01*
D39*
X115150000Y-68360000D02*
X114010000Y-67220000D01*
D42*
X110400000Y-58330000D02*
X110400000Y-59562500D01*
D39*
X108310000Y-66625000D02*
X108310000Y-65930000D01*
D42*
X108230000Y-63200000D02*
X108030000Y-63400000D01*
X110420000Y-67450000D02*
X110400000Y-67430000D01*
X109562500Y-65600000D02*
X109562500Y-65972500D01*
D39*
X109570000Y-66760000D02*
X108735000Y-67595000D01*
X108735000Y-67595000D02*
X108310000Y-67595000D01*
X109570000Y-65980000D02*
X109570000Y-66760000D01*
D42*
X109562500Y-65972500D02*
X109570000Y-65980000D01*
X116437500Y-62800000D02*
X117282562Y-62800000D01*
X117732562Y-62350000D02*
X119560000Y-62350000D01*
X117282562Y-62800000D02*
X117732562Y-62350000D01*
X104797500Y-55160000D02*
X103380000Y-56577500D01*
X107891372Y-56460000D02*
X107630686Y-56199314D01*
X116050000Y-56450000D02*
X116040000Y-56460000D01*
X107820000Y-59024288D02*
X107820000Y-56388628D01*
X103380000Y-56577500D02*
X103380000Y-57127500D01*
X107630686Y-56199314D02*
X106591371Y-55160000D01*
X107820000Y-56388628D02*
X107630686Y-56199314D01*
X109562500Y-60400000D02*
X109195711Y-60400000D01*
X116040000Y-56460000D02*
X107891372Y-56460000D01*
X106591371Y-55160000D02*
X104797500Y-55160000D01*
X109195711Y-60400000D02*
X107820000Y-59024288D01*
D43*
X128975000Y-73145000D02*
X122475000Y-73145000D01*
D42*
X93950000Y-65380000D02*
X92395000Y-65380000D01*
X94020000Y-65450000D02*
X93950000Y-65380000D01*
X106020000Y-64000000D02*
X109562500Y-64000000D01*
X103885394Y-61912500D02*
X105972894Y-64000000D01*
X105972894Y-64000000D02*
X106020000Y-64000000D01*
X102045000Y-61912500D02*
X103885394Y-61912500D01*
X106320000Y-64400000D02*
X109562500Y-64400000D01*
X104394708Y-62987500D02*
X105807209Y-64400000D01*
X105807209Y-64400000D02*
X106320000Y-64400000D01*
X102045000Y-62987500D02*
X104394708Y-62987500D01*
X105130000Y-55960000D02*
X104380000Y-56710000D01*
X107020000Y-59355660D02*
X107020000Y-56720000D01*
X104380000Y-56710000D02*
X104380000Y-57127500D01*
X109562500Y-61200000D02*
X108864339Y-61200000D01*
X108864339Y-61200000D02*
X107020000Y-59355660D01*
X106260000Y-55960000D02*
X105130000Y-55960000D01*
X107020000Y-56720000D02*
X106260000Y-55960000D01*
X107420000Y-56554314D02*
X106425685Y-55560000D01*
X106425685Y-55560000D02*
X104963186Y-55560000D01*
X107420000Y-59189974D02*
X107420000Y-56554314D01*
X109030025Y-60800000D02*
X107420000Y-59189974D01*
X109562500Y-60800000D02*
X109030025Y-60800000D01*
X103880000Y-56643186D02*
X103880000Y-57127500D01*
X104963186Y-55560000D02*
X103880000Y-56643186D01*
X108317284Y-62350000D02*
X105986816Y-62350000D01*
X109562500Y-62400000D02*
X108367284Y-62400000D01*
X103880000Y-60243186D02*
X103880000Y-59627500D01*
X108367284Y-62400000D02*
X108317284Y-62350000D01*
X105986816Y-62350000D02*
X103880000Y-60243186D01*
X106152501Y-61950000D02*
X104380000Y-60177500D01*
X108482969Y-61950000D02*
X106152501Y-61950000D01*
X109562500Y-62000000D02*
X108532969Y-62000000D01*
X104380000Y-60177500D02*
X104380000Y-59627500D01*
X108532969Y-62000000D02*
X108482969Y-61950000D01*
X104880000Y-60111814D02*
X106318186Y-61550000D01*
X108698654Y-61600000D02*
X109562500Y-61600000D01*
X104880000Y-59627500D02*
X104880000Y-60111814D01*
X106318186Y-61550000D02*
X108648653Y-61550000D01*
X108648653Y-61550000D02*
X108698654Y-61600000D01*
X93920000Y-68150000D02*
X93690000Y-68380000D01*
X93690000Y-68380000D02*
X92395000Y-68380000D01*
X107094500Y-62800000D02*
X109565000Y-62800000D01*
X108245000Y-64899500D02*
X108764841Y-64899500D01*
X107020000Y-62874500D02*
X107094500Y-62800000D01*
X118491043Y-64168957D02*
X117922086Y-63600000D01*
X108864341Y-64800000D02*
X109562500Y-64800000D01*
X108764841Y-64899500D02*
X108864341Y-64800000D01*
X117922086Y-63600000D02*
X116437500Y-63600000D01*
M02*
