G04 #@! TF.GenerationSoftware,KiCad,Pcbnew,7.0.1-0*
G04 #@! TF.CreationDate,2023-04-02T15:36:46-05:00*
G04 #@! TF.ProjectId,V0_Display,56305f44-6973-4706-9c61-792e6b696361,rev?*
G04 #@! TF.SameCoordinates,Original*
G04 #@! TF.FileFunction,Paste,Bot*
G04 #@! TF.FilePolarity,Positive*
%FSLAX46Y46*%
G04 Gerber Fmt 4.6, Leading zero omitted, Abs format (unit mm)*
G04 Created by KiCad (PCBNEW 7.0.1-0) date 2023-04-02 15:36:46*
%MOMM*%
%LPD*%
G01*
G04 APERTURE LIST*
G04 Aperture macros list*
%AMRoundRect*
0 Rectangle with rounded corners*
0 $1 Rounding radius*
0 $2 $3 $4 $5 $6 $7 $8 $9 X,Y pos of 4 corners*
0 Add a 4 corners polygon primitive as box body*
4,1,4,$2,$3,$4,$5,$6,$7,$8,$9,$2,$3,0*
0 Add four circle primitives for the rounded corners*
1,1,$1+$1,$2,$3*
1,1,$1+$1,$4,$5*
1,1,$1+$1,$6,$7*
1,1,$1+$1,$8,$9*
0 Add four rect primitives between the rounded corners*
20,1,$1+$1,$2,$3,$4,$5,0*
20,1,$1+$1,$4,$5,$6,$7,0*
20,1,$1+$1,$6,$7,$8,$9,0*
20,1,$1+$1,$8,$9,$2,$3,0*%
G04 Aperture macros list end*
%ADD10C,0.010000*%
%ADD11RoundRect,0.250000X-0.292217X0.292217X-0.292217X-0.292217X0.292217X-0.292217X0.292217X0.292217X0*%
%ADD12RoundRect,0.050000X-0.050000X0.387500X-0.050000X-0.387500X0.050000X-0.387500X0.050000X0.387500X0*%
%ADD13RoundRect,0.050000X-0.387500X0.050000X-0.387500X-0.050000X0.387500X-0.050000X0.387500X0.050000X0*%
%ADD14RoundRect,0.135000X-0.185000X0.135000X-0.185000X-0.135000X0.185000X-0.135000X0.185000X0.135000X0*%
%ADD15RoundRect,0.200000X-0.275000X0.200000X-0.275000X-0.200000X0.275000X-0.200000X0.275000X0.200000X0*%
%ADD16RoundRect,0.225000X0.250000X-0.225000X0.250000X0.225000X-0.250000X0.225000X-0.250000X-0.225000X0*%
%ADD17RoundRect,0.140000X0.170000X-0.140000X0.170000X0.140000X-0.170000X0.140000X-0.170000X-0.140000X0*%
%ADD18R,1.060000X0.650000*%
%ADD19R,1.050000X0.600000*%
%ADD20R,0.500000X0.375000*%
%ADD21R,0.650000X0.300000*%
%ADD22RoundRect,0.225000X-0.250000X0.225000X-0.250000X-0.225000X0.250000X-0.225000X0.250000X0.225000X0*%
%ADD23RoundRect,0.147500X-0.172500X0.147500X-0.172500X-0.147500X0.172500X-0.147500X0.172500X0.147500X0*%
%ADD24R,1.400000X1.200000*%
%ADD25R,1.150000X0.600000*%
%ADD26R,1.150000X0.300000*%
G04 APERTURE END LIST*
D10*
X103480000Y-57277500D02*
X103280000Y-57277500D01*
X103280000Y-56727500D01*
X103480000Y-56727500D01*
X103480000Y-57277500D01*
G36*
X103480000Y-57277500D02*
G01*
X103280000Y-57277500D01*
X103280000Y-56727500D01*
X103480000Y-56727500D01*
X103480000Y-57277500D01*
G37*
X103980000Y-57277500D02*
X103780000Y-57277500D01*
X103780000Y-56727500D01*
X103980000Y-56727500D01*
X103980000Y-57277500D01*
G36*
X103980000Y-57277500D02*
G01*
X103780000Y-57277500D01*
X103780000Y-56727500D01*
X103980000Y-56727500D01*
X103980000Y-57277500D01*
G37*
X104480000Y-57277500D02*
X104280000Y-57277500D01*
X104280000Y-56727500D01*
X104480000Y-56727500D01*
X104480000Y-57277500D01*
G36*
X104480000Y-57277500D02*
G01*
X104280000Y-57277500D01*
X104280000Y-56727500D01*
X104480000Y-56727500D01*
X104480000Y-57277500D01*
G37*
X104980000Y-57277500D02*
X104780000Y-57277500D01*
X104780000Y-56727500D01*
X104980000Y-56727500D01*
X104980000Y-57277500D01*
G36*
X104980000Y-57277500D02*
G01*
X104780000Y-57277500D01*
X104780000Y-56727500D01*
X104980000Y-56727500D01*
X104980000Y-57277500D01*
G37*
X104030000Y-58477500D02*
X103530000Y-58477500D01*
X103530000Y-58277500D01*
X104030000Y-58277500D01*
X104030000Y-58477500D01*
G36*
X104030000Y-58477500D02*
G01*
X103530000Y-58477500D01*
X103530000Y-58277500D01*
X104030000Y-58277500D01*
X104030000Y-58477500D01*
G37*
X104730000Y-58477500D02*
X104230000Y-58477500D01*
X104230000Y-58277500D01*
X104730000Y-58277500D01*
X104730000Y-58477500D01*
G36*
X104730000Y-58477500D02*
G01*
X104230000Y-58477500D01*
X104230000Y-58277500D01*
X104730000Y-58277500D01*
X104730000Y-58477500D01*
G37*
X103480000Y-60027500D02*
X103280000Y-60027500D01*
X103280000Y-59477500D01*
X103480000Y-59477500D01*
X103480000Y-60027500D01*
G36*
X103480000Y-60027500D02*
G01*
X103280000Y-60027500D01*
X103280000Y-59477500D01*
X103480000Y-59477500D01*
X103480000Y-60027500D01*
G37*
X103980000Y-60027500D02*
X103780000Y-60027500D01*
X103780000Y-59477500D01*
X103980000Y-59477500D01*
X103980000Y-60027500D01*
G36*
X103980000Y-60027500D02*
G01*
X103780000Y-60027500D01*
X103780000Y-59477500D01*
X103980000Y-59477500D01*
X103980000Y-60027500D01*
G37*
X104480000Y-60027500D02*
X104280000Y-60027500D01*
X104280000Y-59477500D01*
X104480000Y-59477500D01*
X104480000Y-60027500D01*
G36*
X104480000Y-60027500D02*
G01*
X104280000Y-60027500D01*
X104280000Y-59477500D01*
X104480000Y-59477500D01*
X104480000Y-60027500D01*
G37*
X104980000Y-60027500D02*
X104780000Y-60027500D01*
X104780000Y-59477500D01*
X104980000Y-59477500D01*
X104980000Y-60027500D01*
G36*
X104980000Y-60027500D02*
G01*
X104780000Y-60027500D01*
X104780000Y-59477500D01*
X104980000Y-59477500D01*
X104980000Y-60027500D01*
G37*
D11*
X112362500Y-62362500D03*
X113637500Y-62362500D03*
X112362500Y-63637500D03*
X113637500Y-63637500D03*
D12*
X110400000Y-59562500D03*
X110800000Y-59562500D03*
X111200000Y-59562500D03*
X111600000Y-59562500D03*
X112000000Y-59562500D03*
X112400000Y-59562500D03*
X112800000Y-59562500D03*
X113200000Y-59562500D03*
X113600000Y-59562500D03*
X114000000Y-59562500D03*
X114400000Y-59562500D03*
X114800000Y-59562500D03*
X115200000Y-59562500D03*
X115600000Y-59562500D03*
D13*
X116437500Y-60400000D03*
X116437500Y-60800000D03*
X116437500Y-61200000D03*
X116437500Y-61600000D03*
X116437500Y-62000000D03*
X116437500Y-62400000D03*
X116437500Y-62800000D03*
X116437500Y-63200000D03*
X116437500Y-63600000D03*
X116437500Y-64000000D03*
X116437500Y-64400000D03*
X116437500Y-64800000D03*
X116437500Y-65200000D03*
X116437500Y-65600000D03*
D12*
X115600000Y-66437500D03*
X115200000Y-66437500D03*
X114800000Y-66437500D03*
X114400000Y-66437500D03*
X114000000Y-66437500D03*
X113600000Y-66437500D03*
X113200000Y-66437500D03*
X112800000Y-66437500D03*
X112400000Y-66437500D03*
X112000000Y-66437500D03*
X111600000Y-66437500D03*
X111200000Y-66437500D03*
X110800000Y-66437500D03*
X110400000Y-66437500D03*
D13*
X109562500Y-65600000D03*
X109562500Y-65200000D03*
X109562500Y-64800000D03*
X109562500Y-64400000D03*
X109562500Y-64000000D03*
X109562500Y-63600000D03*
X109562500Y-63200000D03*
X109562500Y-62800000D03*
X109562500Y-62400000D03*
X109562500Y-62000000D03*
X109562500Y-61600000D03*
X109562500Y-61200000D03*
X109562500Y-60800000D03*
X109562500Y-60400000D03*
D14*
X119560000Y-62350000D03*
X119560000Y-63370000D03*
D15*
X115150000Y-68925000D03*
X115150000Y-70575000D03*
D16*
X105520000Y-67750000D03*
X105520000Y-66200000D03*
D17*
X119570000Y-61400000D03*
X119570000Y-60440000D03*
X124880000Y-63340000D03*
X124880000Y-62380000D03*
D18*
X101720000Y-68245000D03*
X101720000Y-67295000D03*
X101720000Y-66345000D03*
X103920000Y-66345000D03*
X103920000Y-68245000D03*
D19*
X123460000Y-67850000D03*
X123460000Y-66900000D03*
X123460000Y-65950000D03*
X126160000Y-65950000D03*
X126160000Y-67850000D03*
D20*
X100345000Y-62987500D03*
D21*
X100270000Y-62450000D03*
D20*
X100345000Y-61912500D03*
X102045000Y-61912500D03*
D21*
X102120000Y-62450000D03*
D20*
X102045000Y-62987500D03*
D22*
X100070000Y-66430000D03*
X100070000Y-67980000D03*
D23*
X108310000Y-66625000D03*
X108310000Y-67595000D03*
D24*
X121130000Y-60350000D03*
X123330000Y-60350000D03*
X123330000Y-62050000D03*
X121130000Y-62050000D03*
D25*
X92675000Y-70330000D03*
X92675000Y-69530000D03*
D26*
X92675000Y-68380000D03*
X92675000Y-67380000D03*
X92675000Y-66880000D03*
X92675000Y-65880000D03*
D25*
X92675000Y-63930000D03*
X92675000Y-64730000D03*
D26*
X92675000Y-65380000D03*
X92675000Y-66380000D03*
X92675000Y-67880000D03*
X92675000Y-68880000D03*
D15*
X113690000Y-68925000D03*
X113690000Y-70575000D03*
M02*
